{
.appVersion = "3099";
classes = (
{
automatic = 1;
code = "A Aacute Abreve Acircumflex Adieresis Adotbelow Agrave Amacron Aogonek Aring Aringacute Atilde AE AEacute B Bhook C Cacute Ccaron Ccedilla Ccircumflex Cdotaccent D Eth Dcaron Dcircumflexbelow Dcroat Dhook E Eacute Ebreve Ecaron Ecircumflex Edieresis Edotaccent Edotbelow Egrave Emacron Eogonek Etilde F G Gbreve Gcaron Gcircumflex Gcommaaccent Gdotaccent H Hbar Hcircumflex I IJ Iacute Ibreve Icircumflex Idieresis Idotaccent Idotbelow Igrave Imacron Iogonek Itilde J Jacute Jcircumflex K Kcommaaccent Khook L Lacute Lcaron Lcircumflexbelow Lcommaaccent Ldot Lslash M N Nacute Ncaron Ncircumflexbelow Ncommaaccent Ndotaccent Nhookleft Ntilde Eng O Oacute Obreve Ocircumflex Odieresis Odotbelow Ograve Ohungarumlaut Omacron Oogonek Oslash Oslashacute Otilde OE P Thorn Q R Racute Rcaron Rcommaaccent S Sacute Scaron Scedilla Scircumflex Scommaaccent Sdotbelow Germandbls Schwa T Tbar Tcaron Tcedilla Tcircumflexbelow Tcommaaccent U Uacute Ubreve Ucircumflex Udieresis Udotbelow Ugrave Uhungarumlaut Umacron Uogonek Uring Utilde V W Wacute Wcircumflex Wdieresis Wgrave X Y Yacute Ycircumflex Ydieresis Ygrave Yhook Ymacron Ytilde Z Zacute Zcaron Zdotaccent Delta Omega";
name = Uppercase;
}
);
copyright = "Copyright 2020 The Climate Crisis Project Authors (https://github.com/dancoull/ClimateCrisis)";
customParameters = (
{
name = "Axis Mappings";
value = {
YEAR = {
1979 = 1979;
1990 = 1994;
2000 = 2000;
2010 = 2012;
2019 = 2019;
2030 = 2028;
2040 = 2040;
2050 = 2050;
};
};
},
{
name = "Use Typo Metrics";
value = 1;
},
{
name = "Variable Font Origin";
value = "F6D8640C-383C-48A8-B63C-DDE9F10207CE";
},
{
name = fsType;
value = (
);
},
{
name = license;
value = "This Font Software is licensed under the SIL Open Font License, Version 1.1. This license is available with a FAQ at: https://scripts.sil.org/OFL";
},
{
name = licenseURL;
value = "https://scripts.sil.org/OFL";
},
{
name = Axes;
value = (
{
Name = Year;
Tag = YEAR;
}
);

glyphs = (
{
color = 6;
glyphname = A;
lastChange = "2021-10-28 08:58:29 +0000";
layers = (
{
anchors = (
{
name = bottom;
position = "{525, 0}";
},
{
name = ogonek;
position = "{945, 0}";
},
{
name = top;
position = "{523, 750}";
}
);
layerId = "F6D8640C-383C-48A8-B63C-DDE9F10207CE";
paths = (
{
closed = 1;
nodes = (
"212 750 LINE",
"142 500 OFFCURVE",
"72 250 OFFCURVE",
"2 0 CURVE",
"429 0 LINE",
"446 98 LINE",
"450 98 OFFCURVE",
"454 98 OFFCURVE",
"458 98 CURVE",
"568 98 LINE",
"573 98 OFFCURVE",
"577 98 OFFCURVE",
"582 98 CURVE",
"599 0 LINE",
"1045 0 LINE",
"974 250 OFFCURVE",
"904 500 OFFCURVE",
"833 750 CURVE"
);
},
{
closed = 1;
nodes = (
"458 170 OFFCURVE",
"512 502 OFFCURVE",
"513 502 CURVE SMOOTH",
"513 502 OFFCURVE",
"514 502 OFFCURVE",
"514 502 CURVE SMOOTH",
"515 502 OFFCURVE",
"570 170 OFFCURVE",
"570 169 CURVE SMOOTH",
"570 169 OFFCURVE",
"570 168 OFFCURVE",
"569 168 CURVE SMOOTH",
"459 168 LINE SMOOTH",
"458 168 OFFCURVE",
"458 168 OFFCURVE",
"458 169 CURVE SMOOTH"
);
}
);
width = 1047;
},
{
anchors = (
{
name = bottom;
position = "{517, 0}";
},
{
name = ogonek;
position = "{802, 115}";
},
{
name = top;
position = "{517, 750}";
}
);
layerId = "96858A69-C8A6-410B-90BB-94EA0DA45935";
name = "2050";
paths = (
{
closed = 1;
nodes = (
"325 645 LINE",
"356 463 OFFCURVE",
"84 238 OFFCURVE",
"84 115 CURVE",
"249 115 LINE",
"249 116 LINE",
"258 146 OFFCURVE",
"275 168 OFFCURVE",
"335 168 CURVE SMOOTH",
"624 168 LINE SMOOTH",
"658 168 OFFCURVE",
"692 138 OFFCURVE",
"695 116 CURVE",
"695 115 LINE",
"942 115 LINE",
"974 242 OFFCURVE",
"702 469 OFFCURVE",
"752 645 CURVE"
);
},
{
closed = 1;
nodes = (
"258 331 OFFCURVE",
"289 645 OFFCURVE",
"487 645 CURVE SMOOTH",
"502 645 OFFCURVE",
"521 645 OFFCURVE",
"531 645 CURVE SMOOTH",
"670 645 OFFCURVE",
"745 422 OFFCURVE",
"745 309 CURVE SMOOTH",
"745 215 OFFCURVE",
"682 168 OFFCURVE",
"611 168 CURVE SMOOTH",
"335 168 LINE SMOOTH",
"288 168 OFFCURVE",
"258 222 OFFCURVE",
"258 280 CURVE SMOOTH"
);
}
);
width = 1032;
},
{
anchors = (
{
name = bottom;
position = "{523, 0}";
},
{
name = ogonek;
position = "{915, 24}";
},
{
name = top;
position = "{522, 750}";
}
);
layerId = "5E5EA508-9E29-4BB2-A27E-EC4DBE9F737B";
paths = (
{
closed = 1;
nodes = (
"236 728 LINE",
"187 492 OFFCURVE",
"75 247 OFFCURVE",
"19 24 CURVE",
"391 24 LINE",
"404 102 LINE",
"409 108 OFFCURVE",
"416 113 OFFCURVE",
"432 113 CURVE",
"580 113 LINE",
"591 113 OFFCURVE",
"601 106 OFFCURVE",
"606 102 CURVE",
"619 24 LINE",
"1023 24 LINE",
"974 248 OFFCURVE",
"861 493 OFFCURVE",
"816 728 CURVE"
);
},
{
closed = 1;
nodes = (
"416 204 OFFCURVE",
"465 532 OFFCURVE",
"508 532 CURVE SMOOTH",
"511 532 OFFCURVE",
"515 532 OFFCURVE",
"518 532 CURVE SMOOTH",
"548 532 OFFCURVE",
"607 223 OFFCURVE",
"607 199 CURVE SMOOTH",
"607 179 OFFCURVE",
"594 168 OFFCURVE",
"578 168 CURVE SMOOTH",
"433 168 LINE SMOOTH",
"422 168 OFFCURVE",
"416 179 OFFCURVE",
"416 192 CURVE SMOOTH"
);
}
);
width = 1043.83099;
},
{
anchors = (
{
name = bottom;
position = "{523, 0}";
},
{
name = ogonek;
position = "{919, 21}";
},
{
name = top;
position = "{522, 750}";
}
);
layerId = "B909D2E0-37C2-42CE-B4A7-1FA9A56E9D28";
paths = (
{
closed = 1;
nodes = (
"233 731 LINE",
"181 493 OFFCURVE",
"75 247 OFFCURVE",
"17 21 CURVE",
"396 21 LINE",
"410 101 LINE",
"414 107 OFFCURVE",
"421 111 OFFCURVE",
"435 111 CURVE",
"578 111 LINE",
"589 111 OFFCURVE",
"598 105 OFFCURVE",
"603 101 CURVE",
"616 21 LINE",
"1026 21 LINE",
"974 248 OFFCURVE",
"867 494 OFFCURVE",
"818 731 CURVE"
);
},
{
closed = 1;
nodes = (
"422 199 OFFCURVE",
"471 528 OFFCURVE",
"509 528 CURVE SMOOTH",
"511 528 OFFCURVE",
"515 528 OFFCURVE",
"517 528 CURVE SMOOTH",
"544 528 OFFCURVE",
"602 216 OFFCURVE",
"602 195 CURVE SMOOTH",
"602 178 OFFCURVE",
"591 168 OFFCURVE",
"577 168 CURVE SMOOTH",
"436 168 LINE SMOOTH",
"427 168 OFFCURVE",
"422 178 OFFCURVE",
"422 189 CURVE SMOOTH"
);
}
);
width = 1044.25352;
}
);
leftKerningGroup = A;
rightKerningGroup = A;
unicode = 0041;
},
{
color = 6;
glyphname = Aogonek;
lastChange = "2021-10-28 08:58:29 +0000";
layers = (
{
layerId = "96858A69-C8A6-410B-90BB-94EA0DA45935";
paths = (
{
closed = 1;
nodes = (
"736 -105 OFFCURVE",
"782 -77 OFFCURVE",
"810 -34 CURVE",
"810 -33 LINE",
"805 -34 OFFCURVE",
"800 -34 OFFCURVE",
"795 -34 CURVE SMOOTH",
"762 -34 OFFCURVE",
"740 -15 OFFCURVE",
"740 15 CURVE SMOOTH",
"740 42 OFFCURVE",
"759 78 OFFCURVE",
"805 115 CURVE",
"942 115 LINE",
"974 242 OFFCURVE",
"702 469 OFFCURVE",
"752 645 CURVE",
"325 645 LINE",
"356 463 OFFCURVE",
"84 238 OFFCURVE",
"84 115 CURVE",
"249 115 LINE",
"249 116 LINE",
"258 146 OFFCURVE",
"275 168 OFFCURVE",
"335 168 CURVE SMOOTH",
"624 168 LINE SMOOTH",
"658 168 OFFCURVE",
"692 138 OFFCURVE",
"695 116 CURVE",
"695 115 LINE",
"906 95 OFFCURVE",
"596 57 OFFCURVE",
"596 -45 CURVE SMOOTH",
"596 -77 OFFCURVE",
"625 -105 OFFCURVE",
"681 -105 CURVE SMOOTH"
);
},
{
closed = 1;
nodes = (
"287 168 OFFCURVE",
"258 222 OFFCURVE",
"258 280 CURVE SMOOTH",
"258 331 OFFCURVE",
"289 645 OFFCURVE",
"487 645 CURVE SMOOTH",
"526 645 OFFCURVE",
"403 645 OFFCURVE",
"531 645 CURVE SMOOTH",
"670 645 OFFCURVE",
"745 422 OFFCURVE",
"745 309 CURVE SMOOTH",
"745 215 OFFCURVE",
"682 168 OFFCURVE",
"611 168 CURVE SMOOTH",
"335 168 LINE SMOOTH"
);
}
);
width = 1032;
},
{
background = {
anchors = (
{
name = bottom;
position = "{482, 0}";
},
{
name = ogonek;
position = "{902, 0}";
},
{
name = top;
position = "{480, 750}";
}
);
components = (
{
name = A;
transform = "{1, 0, 0, 1, 2, 0}";
}
);
};
layerId = "F6D8640C-383C-48A8-B63C-DDE9F10207CE";
name = Regular;
paths = (
{
closed = 1;
nodes = (
"837 -308 OFFCURVE",
"879 -300 OFFCURVE",
"934 -285 CURVE",
"934 -89 LINE",
"904 -101 OFFCURVE",
"882 -105 OFFCURVE",
"854 -105 CURVE SMOOTH",
"820 -105 OFFCURVE",
"800 -92 OFFCURVE",
"800 -70 CURVE SMOOTH",
"800 -43 OFFCURVE",
"829 0 OFFCURVE",
"953 0 CURVE SMOOTH",
"1045 0 LINE",
"974 250 OFFCURVE",
"904 500 OFFCURVE",
"833 750 CURVE",
"212 750 LINE",
"142 500 OFFCURVE",
"72 250 OFFCURVE",
"2 0 CURVE",
"429 0 LINE",
"446 98 LINE",
"450 98 OFFCURVE",
"454 98 OFFCURVE",
"458 98 CURVE",
"568 98 LINE",
"573 98 OFFCURVE",
"577 98 OFFCURVE",
"582 98 CURVE",
"599 0 LINE",
"554 -37 OFFCURVE",
"531 -85 OFFCURVE",
"531 -140 CURVE SMOOTH",
"531 -247 OFFCURVE",
"612 -308 OFFCURVE",
"775 -308 CURVE SMOOTH"
);
},
{
closed = 1;
nodes = (
"458 168 OFFCURVE",
"458 168 OFFCURVE",
"458 169 CURVE SMOOTH",
"458 170 OFFCURVE",
"512 502 OFFCURVE",
"513 502 CURVE SMOOTH",
"513 502 OFFCURVE",
"514 502 OFFCURVE",
"514 502 CURVE SMOOTH",
"515 502 OFFCURVE",
"570 170 OFFCURVE",
"570 169 CURVE SMOOTH",
"570 169 OFFCURVE",
"570 168 OFFCURVE",
"569 168 CURVE SMOOTH",
"459 168 LINE SMOOTH"
);
}
);
width = 1047;
},
{
layerId = "5E5EA508-9E29-4BB2-A27E-EC4DBE9F737B";
name = Regular;
paths = (
{
closed = 1;
nodes = (
"816 -265 OFFCURVE",
"859 -253 OFFCURVE",
"908 -232 CURVE",
"908 -77 LINE",
"883 -87 OFFCURVE",
"865 -90 OFFCURVE",
"842 -90 CURVE SMOOTH",
"808 -90 OFFCURVE",
"787 -76 OFFCURVE",
"787 -52 CURVE SMOOTH",
"787 -25 OFFCURVE",
"814 16 OFFCURVE",
"922 24 CURVE SMOOTH",
"1023 24 LINE",
"974 248 OFFCURVE",
"861 493 OFFCURVE",
"816 728 CURVE",
"236 728 LINE",
"187 492 OFFCURVE",
"75 247 OFFCURVE",
"19 24 CURVE",
"391 24 LINE",
"404 102 LINE",
"409 108 OFFCURVE",
"416 113 OFFCURVE",
"432 113 CURVE",
"580 113 LINE",
"591 113 OFFCURVE",
"601 106 OFFCURVE",
"606 102 CURVE",
"619 24 LINE",
"628 -9 OFFCURVE",
"545 -55 OFFCURVE",
"545 -120 CURVE SMOOTH",
"545 -211 OFFCURVE",
"615 -265 OFFCURVE",
"755 -265 CURVE SMOOTH"
);
},
{
closed = 1;
nodes = (
"422 168 OFFCURVE",
"416 179 OFFCURVE",
"416 192 CURVE SMOOTH",
"416 204 OFFCURVE",
"465 532 OFFCURVE",
"508 532 CURVE SMOOTH",
"516 532 OFFCURVE",
"491 532 OFFCURVE",
"518 532 CURVE SMOOTH",
"548 532 OFFCURVE",
"607 223 OFFCURVE",
"607 199 CURVE SMOOTH",
"607 179 OFFCURVE",
"594 168 OFFCURVE",
"578 168 CURVE SMOOTH",
"433 168 LINE SMOOTH"
);
}
);
width = 1043.83099;
},
{
layerId = "B909D2E0-37C2-42CE-B4A7-1FA9A56E9D28";
name = Regular;
paths = (
{
closed = 1;
nodes = (
"819 -271 OFFCURVE",
"862 -259 OFFCURVE",
"911 -239 CURVE",
"911 -79 LINE",
"886 -89 OFFCURVE",
"867 -92 OFFCURVE",
"844 -92 CURVE SMOOTH",
"810 -92 OFFCURVE",
"789 -78 OFFCURVE",
"789 -54 CURVE SMOOTH",
"789 -27 OFFCURVE",
"816 14 OFFCURVE",
"926 21 CURVE SMOOTH",
"1026 21 LINE",
"974 248 OFFCURVE",
"867 494 OFFCURVE",
"818 731 CURVE",
"233 731 LINE",
"181 493 OFFCURVE",
"75 247 OFFCURVE",
"17 21 CURVE",
"396 21 LINE",
"410 101 LINE",
"414 107 OFFCURVE",
"421 111 OFFCURVE",
"435 111 CURVE",
"578 111 LINE",
"589 111 OFFCURVE",
"598 105 OFFCURVE",
"603 101 CURVE",
"616 21 LINE",
"618 -13 OFFCURVE",
"543 -59 OFFCURVE",
"543 -123 CURVE SMOOTH",
"543 -216 OFFCURVE",
"615 -271 OFFCURVE",
"758 -271 CURVE SMOOTH"
);
},
{
closed = 1;
nodes = (
"427 168 OFFCURVE",
"422 178 OFFCURVE",
"422 189 CURVE SMOOTH",
"422 199 OFFCURVE",
"471 528 OFFCURVE",
"509 528 CURVE SMOOTH",
"516 528 OFFCURVE",
"494 528 OFFCURVE",
"517 528 CURVE SMOOTH",
"544 528 OFFCURVE",
"602 216 OFFCURVE",
"602 195 CURVE SMOOTH",
"602 178 OFFCURVE",
"591 168 OFFCURVE",
"577 168 CURVE SMOOTH",
"436 168 LINE SMOOTH"
);
}
);
width = 1044.25352;
}
);
leftKerningGroup = A;
leftMetricsKey = A;
rightKerningGroup = A;
rightMetricsKey = A;
unicode = 0104;
},
{
color = 6;
glyphname = AE;
lastChange = "2021-10-28 08:58:29 +0000";
layers = (
{
anchors = (
{
name = bottom;
position = "{756, 0}";
},
{
name = top;
position = "{756, 750}";
}
);
background = {
components = (
{
name = E;
transform = "{1, 0, 0, 1, 548, 0}";
}
);
};
layerId = "F6D8640C-383C-48A8-B63C-DDE9F10207CE";
paths = (
{
closed = 1;
nodes = (
"441 0 LINE",
"452 37 OFFCURVE",
"474 112 OFFCURVE",
"474 112 CURVE",
"588 112 LINE",
"588 112 OFFCURVE",
"588 37 OFFCURVE",
"588 0 CURVE",
"1415 0 LINE",
"1415 242 LINE",
"994 242 LINE SMOOTH",
"993 242 OFFCURVE",
"993 242 OFFCURVE",
"993 243 CURVE SMOOTH",
"993 299 LINE SMOOTH",
"993 300 OFFCURVE",
"993 300 OFFCURVE",
"994 300 CURVE SMOOTH",
"1394 300 LINE",
"1394 441 LINE",
"994 441 LINE SMOOTH",
"993 441 OFFCURVE",
"993 441 OFFCURVE",
"993 442 CURVE SMOOTH",
"993 497 LINE SMOOTH",
"993 498 OFFCURVE",
"993 498 OFFCURVE",
"994 498 CURVE SMOOTH",
"1409 498 LINE",
"1409 750 LINE",
"286 750 LINE",
"190 500 OFFCURVE",
"94 250 OFFCURVE",
"-2 0 CURVE"
);
},
{
closed = 1;
nodes = (
"495 182 OFFCURVE",
"495 182 OFFCURVE",
"495 183 CURVE SMOOTH",
"526 289 OFFCURVE",
"556 395 OFFCURVE",
"587 502 CURVE",
"588 502 LINE",
"588 396 OFFCURVE",
"588 289 OFFCURVE",
"588 183 CURVE SMOOTH",
"588 182 OFFCURVE",
"588 182 OFFCURVE",
"587 182 CURVE SMOOTH",
"496 182 LINE SMOOTH"
);
}
);
width = 1427;
},
{
anchors = (
{
name = bottom;
position = "{764, 0}";
},
{
name = top;
position = "{764, 750}";
}
);
layerId = "96858A69-C8A6-410B-90BB-94EA0DA45935";
paths = (
{
closed = 1;
nodes = (
"359 115 LINE",
"372 152 OFFCURVE",
"389 168 OFFCURVE",
"445 168 CURVE SMOOTH",
"652 168 LINE SMOOTH",
"693 168 OFFCURVE",
"705 146 OFFCURVE",
"711 115 CURVE",
"1378 115 LINE",
"1378 120 LINE",
"1096 120 LINE SMOOTH",
"906 120 OFFCURVE",
"882 244 OFFCURVE",
"882 294 CURVE SMOOTH",
"882 296 LINE SMOOTH",
"882 360 OFFCURVE",
"934 382 OFFCURVE",
"982 382 CURVE",
"1197 382 LINE",
"1197 382 LINE",
"982 382 LINE",
"967 382 OFFCURVE",
"882 383 OFFCURVE",
"882 482 CURVE SMOOTH",
"882 485 LINE SMOOTH",
"882 605 OFFCURVE",
"951 645 OFFCURVE",
"1059 645 CURVE SMOOTH",
"1069 645 LINE",
"1069 645 LINE",
"495 645 LINE",
"510 521 OFFCURVE",
"194 238 OFFCURVE",
"194 115 CURVE"
);
},
{
closed = 1;
nodes = (
"405 168 OFFCURVE",
"368 213 OFFCURVE",
"368 286 CURVE SMOOTH",
"368 383 OFFCURVE",
"483 645 OFFCURVE",
"642 645 CURVE",
"686 645 LINE",
"768 645 OFFCURVE",
"823 551 OFFCURVE",
"823 456 CURVE SMOOTH",
"823 326 OFFCURVE",
"729 168 OFFCURVE",
"639 168 CURVE SMOOTH",
"445 168 LINE SMOOTH"
);
}
);
width = 1438;
},
{
anchors = (
{
name = bottom;
position = "{758, 0}";
},
{
name = top;
position = "{758, 750}";
}
);
layerId = "5E5EA508-9E29-4BB2-A27E-EC4DBE9F737B";
paths = (
{
closed = 1;
nodes = (
"424 24 LINE",
"435 61 OFFCURVE",
"456 124 OFFCURVE",
"468 124 CURVE",
"602 124 LINE",
"610 124 OFFCURVE",
"613 60 OFFCURVE",
"614 24 CURVE",
"1407 24 LINE",
"1407 216 LINE",
"1016 216 LINE SMOOTH",
"975 216 OFFCURVE",
"970 242 OFFCURVE",
"970 254 CURVE SMOOTH",
"970 298 LINE SMOOTH",
"970 313 OFFCURVE",
"981 317 OFFCURVE",
"991 317 CURVE SMOOTH",
"1352 317 LINE",
"1352 429 LINE",
"991 429 LINE SMOOTH",
"988 429 OFFCURVE",
"970 429 OFFCURVE",
"970 450 CURVE SMOOTH",
"970 494 LINE SMOOTH",
"970 521 OFFCURVE",
"984 529 OFFCURVE",
"1008 529 CURVE SMOOTH",
"1337 529 LINE",
"1337 728 LINE",
"330 728 LINE",
"258 504 OFFCURVE",
"115 247 OFFCURVE",
"39 24 CURVE"
);
},
{
closed = 1;
nodes = (
"476 179 OFFCURVE",
"468 189 OFFCURVE",
"468 205 CURVE SMOOTH",
"493 309 OFFCURVE",
"541 448 OFFCURVE",
"599 532 CURVE",
"609 532 LINE",
"626 449 OFFCURVE",
"638 344 OFFCURVE",
"638 241 CURVE SMOOTH",
"638 212 OFFCURVE",
"618 179 OFFCURVE",
"598 179 CURVE SMOOTH",
"485 179 LINE SMOOTH"
);
}
);
width = 1429.32394;
},
{
anchors = (
{
name = bottom;
position = "{758, 0}";
},
{
name = top;
position = "{758, 750}";
}
);
layerId = "B909D2E0-37C2-42CE-B4A7-1FA9A56E9D28";
paths = (
{
closed = 1;
nodes = (
"426 21 LINE",
"437 58 OFFCURVE",
"458 122 OFFCURVE",
"469 122 CURVE",
"600 122 LINE",
"607 122 OFFCURVE",
"610 57 OFFCURVE",
"611 21 CURVE",
"1408 21 LINE",
"1408 219 LINE",
"1013 219 LINE SMOOTH",
"977 219 OFFCURVE",
"973 242 OFFCURVE",
"973 253 CURVE SMOOTH",
"973 298 LINE SMOOTH",
"973 311 OFFCURVE",
"983 315 OFFCURVE",
"991 315 CURVE SMOOTH",
"1358 315 LINE",
"1358 431 LINE",
"991 431 LINE SMOOTH",
"989 431 OFFCURVE",
"973 431 OFFCURVE",
"973 449 CURVE SMOOTH",
"973 494 LINE SMOOTH",
"973 518 OFFCURVE",
"985 525 OFFCURVE",
"1006 525 CURVE SMOOTH",
"1347 525 LINE",
"1347 731 LINE",
"324 731 LINE",
"249 503 OFFCURVE",
"112 247 OFFCURVE",
"34 21 CURVE"
);
},
{
closed = 1;
nodes = (
"479 179 OFFCURVE",
"472 188 OFFCURVE",
"472 202 CURVE SMOOTH",
"497 306 OFFCURVE",
"543 441 OFFCURVE",
"597 528 CURVE",
"606 528 LINE",
"621 442 OFFCURVE",
"631 337 OFFCURVE",
"631 233 CURVE SMOOTH",
"631 208 OFFCURVE",
"614 179 OFFCURVE",
"597 179 CURVE SMOOTH",
"486 179 LINE SMOOTH"
);
}
);
width = 1429.01408;
}
);
leftKerningGroup = AE;
rightKerningGroup = E;
unicode = 00C6;
},
{
color = 6;
glyphname = B;
lastChange = "2021-10-28 08:58:29 +0000";
layers = (
{
anchors = (
{
name = bottom;
position = "{520, 0}";
},
{
name = top;
position = "{520, 750}";
}
);
background = {
components = (
{
name = E;
}
);
};
layerId = "F6D8640C-383C-48A8-B63C-DDE9F10207CE";
paths = (
{
closed = 1;
nodes = (
"20 681 OFFCURVE",
"20 611 OFFCURVE",
"20 542 CURVE SMOOTH",
"20 361 OFFCURVE",
"20 181 OFFCURVE",
"20 0 CURVE",
"807 0 LINE SMOOTH",
"959 0 OFFCURVE",
"1037 99 OFFCURVE",
"1037 197 CURVE SMOOTH",
"1037 296 OFFCURVE",
"959 395 OFFCURVE",
"798 395 CURVE SMOOTH",
"797 395 OFFCURVE",
"797 396 OFFCURVE",
"798 396 CURVE SMOOTH",
"938 396 OFFCURVE",
"1007 486 OFFCURVE",
"1007 575 CURVE SMOOTH",
"1007 663 OFFCURVE",
"940 750 OFFCURVE",
"807 750 CURVE SMOOTH",
"20 750 LINE"
);
},
{
closed = 1;
nodes = (
"414 356 OFFCURVE",
"415 357 OFFCURVE",
"415 357 CURVE",
"566 357 LINE SMOOTH",
"595 357 OFFCURVE",
"611 336 OFFCURVE",
"611 313 CURVE SMOOTH",
"611 289 OFFCURVE",
"593 267 OFFCURVE",
"557 267 CURVE SMOOTH",
"415 267 LINE",
"414 267 OFFCURVE",
"414 267 OFFCURVE",
"414 268 CURVE",
"414 281 OFFCURVE",
"414 296 OFFCURVE",
"414 312 CURVE SMOOTH",
"414 326 OFFCURVE",
"414 341 OFFCURVE",
"414 356 CURVE"
);
},
{
closed = 1;
nodes = (
"414 497 OFFCURVE",
"415 497 CURVE",
"561 497 LINE SMOOTH",
"590 497 OFFCURVE",
"606 476 OFFCURVE",
"606 453 CURVE SMOOTH",
"606 429 OFFCURVE",
"588 407 OFFCURVE",
"552 407 CURVE SMOOTH",
"415 407 LINE",
"414 407 OFFCURVE",
"414 407 OFFCURVE",
"414 408 CURVE",
"414 421 OFFCURVE",
"414 437 OFFCURVE",
"414 452 CURVE SMOOTH",
"414 468 OFFCURVE",
"414 483 OFFCURVE",
"414 496 CURVE",
"414 496 OFFCURVE"
);
}
);
width = 1046;
},
{
anchors = (
{
name = bottom;
position = "{560, 0}";
},
{
name = top;
position = "{560, 750}";
}
);
layerId = "96858A69-C8A6-410B-90BB-94EA0DA45935";
paths = (
{
closed = 1;
nodes = (
"246 599 OFFCURVE",
"253 558 OFFCURVE",
"253 520 CURVE SMOOTH",
"253 360 OFFCURVE",
"136 260 OFFCURVE",
"136 115 CURVE",
"736 115 LINE SMOOTH",
"888 115 OFFCURVE",
"901 151 OFFCURVE",
"901 187 CURVE SMOOTH",
"901 234 OFFCURVE",
"846 268 OFFCURVE",
"753 319 CURVE SMOOTH",
"623 390 OFFCURVE",
"632 472 OFFCURVE",
"722 523 CURVE SMOOTH",
"782 557 OFFCURVE",
"802 579 OFFCURVE",
"802 609 CURVE SMOOTH",
"802 630 OFFCURVE",
"785 645 OFFCURVE",
"751 645 CURVE SMOOTH",
"230 645 LINE"
);
},
{
closed = 1;
nodes = (
"410 380 OFFCURVE",
"412 380 OFFCURVE",
"412 380 CURVE",
"570 380 LINE SMOOTH",
"632 380 OFFCURVE",
"700 290 OFFCURVE",
"700 215 CURVE SMOOTH",
"700 161 OFFCURVE",
"665 115 OFFCURVE",
"568 115 CURVE SMOOTH",
"412 115 LINE",
"410 115 OFFCURVE",
"410 115 OFFCURVE",
"410 115 CURVE",
"360 115 OFFCURVE",
"326 193 OFFCURVE",
"326 264 CURVE SMOOTH",
"326 325 OFFCURVE",
"350 380 OFFCURVE",
"410 380 CURVE"
);
},
{
closed = 1;
nodes = (
"410 645 OFFCURVE",
"412 645 CURVE",
"560 645 LINE SMOOTH",
"637 645 OFFCURVE",
"670 591 OFFCURVE",
"670 532 CURVE SMOOTH",
"670 460 OFFCURVE",
"621 380 OFFCURVE",
"548 380 CURVE SMOOTH",
"412 380 LINE",
"410 380 OFFCURVE",
"410 380 OFFCURVE",
"410 380 CURVE",
"348 380 OFFCURVE",
"325 431 OFFCURVE",
"325 488 CURVE SMOOTH",
"325 561 OFFCURVE",
"364 645 OFFCURVE",
"410 645 CURVE",
"410 645 OFFCURVE"
);
}
);
width = 1043;
},
{
anchors = (
{
name = bottom;
position = "{528, 0}";
},
{
name = top;
position = "{528, 750}";
}
);
layerId = "5E5EA508-9E29-4BB2-A27E-EC4DBE9F737B";
paths = (
{
closed = 1;
nodes = (
"68 664 OFFCURVE",
"69 600 OFFCURVE",
"69 537 CURVE SMOOTH",
"69 361 OFFCURVE",
"45 198 OFFCURVE",
"45 24 CURVE",
"792 24 LINE SMOOTH",
"944 24 OFFCURVE",
"1008 110 OFFCURVE",
"1008 195 CURVE SMOOTH",
"1008 283 OFFCURVE",
"935 368 OFFCURVE",
"788 379 CURVE SMOOTH",
"760 394 OFFCURVE",
"762 412 OFFCURVE",
"782 423 CURVE SMOOTH",
"905 430 OFFCURVE",
"964 506 OFFCURVE",
"964 582 CURVE SMOOTH",
"964 656 OFFCURVE",
"907 728 OFFCURVE",
"795 728 CURVE SMOOTH",
"64 728 LINE"
);
},
{
closed = 1;
nodes = (
"413 361 OFFCURVE",
"414 362 OFFCURVE",
"414 362 CURVE",
"567 362 LINE SMOOTH",
"603 362 OFFCURVE",
"630 326 OFFCURVE",
"630 292 CURVE SMOOTH",
"630 262 OFFCURVE",
"608 235 OFFCURVE",
"559 235 CURVE SMOOTH",
"414 235 LINE",
"413 235 OFFCURVE",
"413 235 OFFCURVE",
"413 236 CURVE",
"403 246 OFFCURVE",
"395 274 OFFCURVE",
"395 302 CURVE SMOOTH",
"395 326 OFFCURVE",
"400 349 OFFCURVE",
"413 361 CURVE"
);
},
{
closed = 1;
nodes = (
"413 528 OFFCURVE",
"414 528 CURVE",
"561 528 LINE SMOOTH",
"600 528 OFFCURVE",
"620 500 OFFCURVE",
"620 470 CURVE SMOOTH",
"620 436 OFFCURVE",
"595 401 OFFCURVE",
"551 401 CURVE SMOOTH",
"414 401 LINE",
"413 401 OFFCURVE",
"413 401 OFFCURVE",
"413 402 CURVE",
"400 412 OFFCURVE",
"395 436 OFFCURVE",
"395 460 CURVE SMOOTH",
"395 488 OFFCURVE",
"403 517 OFFCURVE",
"413 527 CURVE",
"413 527 OFFCURVE"
);
}
);
width = 1045.3662;
},
{
anchors = (
{
name = bottom;
position = "{527, 0}";
},
{
name = top;
position = "{527, 750}";
}
);
layerId = "B909D2E0-37C2-42CE-B4A7-1FA9A56E9D28";
paths = (
{
closed = 1;
nodes = (
"62 666 OFFCURVE",
"62 601 OFFCURVE",
"62 538 CURVE SMOOTH",
"62 361 OFFCURVE",
"42 196 OFFCURVE",
"42 21 CURVE",
"794 21 LINE SMOOTH",
"946 21 OFFCURVE",
"1012 109 OFFCURVE",
"1012 195 CURVE SMOOTH",
"1012 285 OFFCURVE",
"938 372 OFFCURVE",
"789 381 CURVE SMOOTH",
"765 394 OFFCURVE",
"767 410 OFFCURVE",
"784 419 CURVE SMOOTH",
"909 425 OFFCURVE",
"970 503 OFFCURVE",
"970 581 CURVE SMOOTH",
"970 657 OFFCURVE",
"911 731 OFFCURVE",
"797 731 CURVE SMOOTH",
"58 731 LINE"
);
},
{
closed = 1;
nodes = (
"413 360 OFFCURVE",
"414 361 OFFCURVE",
"414 361 CURVE",
"567 361 LINE SMOOTH",
"602 361 OFFCURVE",
"627 327 OFFCURVE",
"627 295 CURVE SMOOTH",
"627 266 OFFCURVE",
"606 239 OFFCURVE",
"559 239 CURVE SMOOTH",
"414 239 LINE",
"413 239 OFFCURVE",
"413 239 OFFCURVE",
"413 240 CURVE",
"404 251 OFFCURVE",
"398 277 OFFCURVE",
"398 303 CURVE SMOOTH",
"398 326 OFFCURVE",
"402 348 OFFCURVE",
"413 360 CURVE"
);
},
{
closed = 1;
nodes = (
"413 524 OFFCURVE",
"414 524 CURVE",
"561 524 LINE SMOOTH",
"599 524 OFFCURVE",
"618 497 OFFCURVE",
"618 468 CURVE SMOOTH",
"618 435 OFFCURVE",
"594 402 OFFCURVE",
"551 402 CURVE SMOOTH",
"414 402 LINE",
"413 402 OFFCURVE",
"413 402 OFFCURVE",
"413 403 CURVE",
"402 413 OFFCURVE",
"398 436 OFFCURVE",
"398 459 CURVE SMOOTH",
"398 485 OFFCURVE",
"404 512 OFFCURVE",
"413 523 CURVE",
"413 523 OFFCURVE"
);
}
);
width = 1045.4507;
}
);
leftKerningGroup = H;
rightKerningGroup = B;
unicode = 0042;
},
{
color = 6;
glyphname = Bhook;
lastChange = "2021-10-28 08:58:29 +0000";
layers = (
{
anchors = (
{
name = bottom;
position = "{919, 0}";
},
{
name = top;
position = "{919, 750}";
}
);
background = {
components = (
{
name = Dhook;
}
);
};
layerId = "F6D8640C-383C-48A8-B63C-DDE9F10207CE";
paths = (
{
closed = 1;
nodes = (
"104 750 OFFCURVE",
"-16 654 OFFCURVE",
"18 388 CURVE",
"325 390 LINE",
"303 470 OFFCURVE",
"326 497 OFFCURVE",
"419 497 CURVE SMOOTH",
"419 497 OFFCURVE",
"419 470 OFFCURVE",
"419 435 CURVE SMOOTH",
"419 264 OFFCURVE",
"419 181 OFFCURVE",
"419 0 CURVE",
"1206 0 LINE SMOOTH",
"1358 0 OFFCURVE",
"1436 99 OFFCURVE",
"1436 197 CURVE SMOOTH",
"1436 296 OFFCURVE",
"1358 395 OFFCURVE",
"1197 395 CURVE SMOOTH",
"1196 395 OFFCURVE",
"1196 396 OFFCURVE",
"1197 396 CURVE SMOOTH",
"1337 396 OFFCURVE",
"1406 486 OFFCURVE",
"1406 575 CURVE SMOOTH",
"1406 663 OFFCURVE",
"1339 750 OFFCURVE",
"1206 750 CURVE SMOOTH",
"379 750 LINE SMOOTH"
);
},
{
closed = 1;
nodes = (
"813 356 OFFCURVE",
"814 357 OFFCURVE",
"814 357 CURVE",
"965 357 LINE SMOOTH",
"994 357 OFFCURVE",
"1010 336 OFFCURVE",
"1010 313 CURVE SMOOTH",
"1010 289 OFFCURVE",
"992 267 OFFCURVE",
"956 267 CURVE SMOOTH",
"814 267 LINE",
"813 267 OFFCURVE",
"813 267 OFFCURVE",
"813 268 CURVE",
"813 281 OFFCURVE",
"813 296 OFFCURVE",
"813 312 CURVE SMOOTH",
"813 326 OFFCURVE",
"813 341 OFFCURVE",
"813 356 CURVE"
);
},
{
closed = 1;
nodes = (
"813 497 OFFCURVE",
"814 497 CURVE",
"960 497 LINE SMOOTH",
"989 497 OFFCURVE",
"1005 476 OFFCURVE",
"1005 453 CURVE SMOOTH",
"1005 429 OFFCURVE",
"987 407 OFFCURVE",
"951 407 CURVE SMOOTH",
"814 407 LINE",
"813 407 OFFCURVE",
"813 407 OFFCURVE",
"813 408 CURVE",
"813 421 OFFCURVE",
"813 437 OFFCURVE",
"813 452 CURVE SMOOTH",
"813 468 OFFCURVE",
"813 483 OFFCURVE",
"813 496 CURVE",
"813 496 OFFCURVE"
);
}
);
width = 1445;
},
{
anchors = (
{
name = bottom;
position = "{637, 0}";
},
{
name = top;
position = "{637, 750}";
}
);
layerId = "96858A69-C8A6-410B-90BB-94EA0DA45935";
paths = (
{
closed = 1;
nodes = (
"176 645 OFFCURVE",
"134 609 OFFCURVE",
"134 557 CURVE",
"214 557 LINE",
"214 601 OFFCURVE",
"228 640 OFFCURVE",
"279 640 CURVE SMOOTH",
"317 640 OFFCURVE",
"330 614 OFFCURVE",
"330 520 CURVE SMOOTH",
"330 360 OFFCURVE",
"213 260 OFFCURVE",
"213 115 CURVE",
"813 115 LINE SMOOTH",
"965 115 OFFCURVE",
"978 151 OFFCURVE",
"978 187 CURVE SMOOTH",
"978 234 OFFCURVE",
"923 268 OFFCURVE",
"830 319 CURVE SMOOTH",
"700 390 OFFCURVE",
"709 472 OFFCURVE",
"799 523 CURVE SMOOTH",
"859 557 OFFCURVE",
"879 579 OFFCURVE",
"879 609 CURVE SMOOTH",
"879 630 OFFCURVE",
"862 645 OFFCURVE",
"828 645 CURVE SMOOTH",
"307 645 LINE SMOOTH"
);
},
{
closed = 1;
nodes = (
"487 380 OFFCURVE",
"489 380 OFFCURVE",
"489 380 CURVE",
"647 380 LINE SMOOTH",
"709 380 OFFCURVE",
"777 290 OFFCURVE",
"777 215 CURVE SMOOTH",
"777 161 OFFCURVE",
"742 115 OFFCURVE",
"645 115 CURVE SMOOTH",
"489 115 LINE",
"487 115 OFFCURVE",
"487 115 OFFCURVE",
"487 115 CURVE",
"437 115 OFFCURVE",
"403 193 OFFCURVE",
"403 264 CURVE SMOOTH",
"403 325 OFFCURVE",
"427 380 OFFCURVE",
"487 380 CURVE"
);
},
{
closed = 1;
nodes = (
"487 645 OFFCURVE",
"489 645 CURVE",
"637 645 LINE SMOOTH",
"714 645 OFFCURVE",
"747 591 OFFCURVE",
"747 532 CURVE SMOOTH",
"747 460 OFFCURVE",
"698 380 OFFCURVE",
"625 380 CURVE SMOOTH",
"489 380 LINE",
"487 380 OFFCURVE",
"487 380 OFFCURVE",
"487 380 CURVE",
"425 380 OFFCURVE",
"402 431 OFFCURVE",
"402 488 CURVE SMOOTH",
"402 561 OFFCURVE",
"441 645 OFFCURVE",
"487 645 CURVE",
"487 645 OFFCURVE"
);
}
);
width = 1120;
},
{
anchors = (
{
name = bottom;
position = "{859, 0}";
},
{
name = top;
position = "{859, 750}";
}
);
layerId = "5E5EA508-9E29-4BB2-A27E-EC4DBE9F737B";
paths = (
{
closed = 1;
nodes = (
"119 728 OFFCURVE",
"16 644 OFFCURVE",
"43 424 CURVE",
"302 425 LINE",
"284 498 OFFCURVE",
"305 527 OFFCURVE",
"389 527 CURVE SMOOTH",
"397 527 OFFCURVE",
"400 500 OFFCURVE",
"400 453 CURVE SMOOTH",
"400 284 OFFCURVE",
"375 198 OFFCURVE",
"375 24 CURVE",
"1123 24 LINE SMOOTH",
"1275 24 OFFCURVE",
"1339 110 OFFCURVE",
"1339 195 CURVE SMOOTH",
"1339 283 OFFCURVE",
"1266 368 OFFCURVE",
"1119 379 CURVE SMOOTH",
"1091 394 OFFCURVE",
"1093 412 OFFCURVE",
"1113 423 CURVE SMOOTH",
"1236 430 OFFCURVE",
"1295 506 OFFCURVE",
"1295 582 CURVE SMOOTH",
"1295 656 OFFCURVE",
"1238 728 OFFCURVE",
"1126 728 CURVE SMOOTH",
"364 728 LINE SMOOTH"
);
},
{
closed = 1;
nodes = (
"744 361 OFFCURVE",
"745 362 OFFCURVE",
"745 362 CURVE",
"898 362 LINE SMOOTH",
"934 362 OFFCURVE",
"961 326 OFFCURVE",
"961 292 CURVE SMOOTH",
"961 262 OFFCURVE",
"939 235 OFFCURVE",
"890 235 CURVE SMOOTH",
"745 235 LINE",
"744 235 OFFCURVE",
"744 235 OFFCURVE",
"744 236 CURVE",
"734 246 OFFCURVE",
"726 274 OFFCURVE",
"726 302 CURVE SMOOTH",
"726 326 OFFCURVE",
"731 349 OFFCURVE",
"744 361 CURVE"
);
},
{
closed = 1;
nodes = (
"744 528 OFFCURVE",
"745 528 CURVE",
"892 528 LINE SMOOTH",
"931 528 OFFCURVE",
"950 500 OFFCURVE",
"950 470 CURVE SMOOTH",
"950 436 OFFCURVE",
"926 401 OFFCURVE",
"882 401 CURVE SMOOTH",
"745 401 LINE",
"744 401 OFFCURVE",
"744 401 OFFCURVE",
"744 402 CURVE",
"731 412 OFFCURVE",
"726 436 OFFCURVE",
"726 460 CURVE SMOOTH",
"726 488 OFFCURVE",
"734 517 OFFCURVE",
"744 527 CURVE",
"744 527 OFFCURVE"
);
}
);
width = 1376.33803;
},
{
anchors = (
{
name = bottom;
position = "{867, 0}";
},
{
name = top;
position = "{867, 750}";
}
);
layerId = "B909D2E0-37C2-42CE-B4A7-1FA9A56E9D28";
paths = (
{
closed = 1;
nodes = (
"117 731 OFFCURVE",
"12 645 OFFCURVE",
"40 419 CURVE",
"305 420 LINE",
"287 494 OFFCURVE",
"308 523 OFFCURVE",
"393 523 CURVE SMOOTH",
"400 523 OFFCURVE",
"403 496 OFFCURVE",
"403 451 CURVE SMOOTH",
"403 281 OFFCURVE",
"381 196 OFFCURVE",
"381 21 CURVE",
"1134 21 LINE SMOOTH",
"1286 21 OFFCURVE",
"1352 109 OFFCURVE",
"1352 195 CURVE SMOOTH",
"1352 285 OFFCURVE",
"1278 372 OFFCURVE",
"1129 381 CURVE SMOOTH",
"1105 394 OFFCURVE",
"1107 410 OFFCURVE",
"1124 419 CURVE SMOOTH",
"1249 425 OFFCURVE",
"1310 503 OFFCURVE",
"1310 581 CURVE SMOOTH",
"1310 657 OFFCURVE",
"1251 731 OFFCURVE",
"1137 731 CURVE SMOOTH",
"366 731 LINE SMOOTH"
);
},
{
closed = 1;
nodes = (
"753 360 OFFCURVE",
"754 361 OFFCURVE",
"754 361 CURVE",
"907 361 LINE SMOOTH",
"942 361 OFFCURVE",
"968 327 OFFCURVE",
"968 295 CURVE SMOOTH",
"968 266 OFFCURVE",
"946 239 OFFCURVE",
"899 239 CURVE SMOOTH",
"754 239 LINE",
"753 239 OFFCURVE",
"753 239 OFFCURVE",
"753 240 CURVE",
"745 251 OFFCURVE",
"738 277 OFFCURVE",
"738 303 CURVE SMOOTH",
"738 326 OFFCURVE",
"742 348 OFFCURVE",
"753 360 CURVE"
);
},
{
closed = 1;
nodes = (
"753 524 OFFCURVE",
"754 524 CURVE",
"901 524 LINE SMOOTH",
"939 524 OFFCURVE",
"957 497 OFFCURVE",
"957 468 CURVE SMOOTH",
"957 435 OFFCURVE",
"934 402 OFFCURVE",
"891 402 CURVE SMOOTH",
"754 402 LINE",
"753 402 OFFCURVE",
"753 402 OFFCURVE",
"753 403 CURVE",
"742 413 OFFCURVE",
"738 436 OFFCURVE",
"738 459 CURVE SMOOTH",
"738 485 OFFCURVE",
"745 512 OFFCURVE",
"753 523 CURVE",
"753 523 OFFCURVE"
);
}
);
width = 1385.49296;
}
);
leftKerningGroup = Bhook;
rightKerningGroup = B;
unicode = 0181;
},
{
color = 6;
glyphname = C;
lastChange = "2021-10-28 08:58:29 +0000";
layers = (
{
anchors = (
{
name = bottom;
position = "{562, 0}";
},
{
name = top;
position = "{562, 750}";
}
);
background = {
components = (
{
name = O;
}
);
};
layerId = "F6D8640C-383C-48A8-B63C-DDE9F10207CE";
paths = (
{
closed = 1;
nodes = (
"916 -30 OFFCURVE",
"1081 134 OFFCURVE",
"1110 331 CURVE",
"685 374 LINE",
"685 319 OFFCURVE",
"630 290 OFFCURVE",
"560 290 CURVE SMOOTH",
"488 290 OFFCURVE",
"435 318 OFFCURVE",
"435 376 CURVE SMOOTH",
"435 432 OFFCURVE",
"488 460 OFFCURVE",
"560 460 CURVE SMOOTH",
"628 460 OFFCURVE",
"685 435 OFFCURVE",
"685 374 CURVE",
"1110 443 LINE",
"1075 656 OFFCURVE",
"891 780 OFFCURVE",
"560 780 CURVE SMOOTH",
"248 780 OFFCURVE",
"10 652 OFFCURVE",
"10 374 CURVE SMOOTH",
"10 138 OFFCURVE",
"193 -30 OFFCURVE",
"560 -30 CURVE SMOOTH"
);
}
);
width = 1122;
},
{
anchors = (
{
name = bottom;
position = "{554, 0}";
},
{
name = top;
position = "{544, 750}";
}
);
background = {
components = (
{
name = O;
}
);
};
layerId = "96858A69-C8A6-410B-90BB-94EA0DA45935";
name = "2050";
paths = (
{
closed = 1;
nodes = (
"719 102 OFFCURVE",
"881 136 OFFCURVE",
"898 199 CURVE",
"736 236 LINE",
"706 136 OFFCURVE",
"664 109 OFFCURVE",
"613 109 CURVE SMOOTH",
"497 109 OFFCURVE",
"296 272 OFFCURVE",
"296 458 CURVE SMOOTH",
"296 615 OFFCURVE",
"393 652 OFFCURVE",
"556 652 CURVE SMOOTH",
"709 652 OFFCURVE",
"719 594 OFFCURVE",
"715 535 CURVE",
"896 571 LINE",
"860 624 OFFCURVE",
"722 657 OFFCURVE",
"564 657 CURVE SMOOTH",
"241 657 OFFCURVE",
"223 655 OFFCURVE",
"264 476 CURVE SMOOTH",
"303 308 OFFCURVE",
"13 102 OFFCURVE",
"566 102 CURVE SMOOTH"
);
}
);
width = 1107;
},
{
anchors = (
{
name = bottom;
position = "{560, 0}";
},
{
name = top;
position = "{558, 750}";
}
);
layerId = "5E5EA508-9E29-4BB2-A27E-EC4DBE9F737B";
paths = (
{
closed = 1;
nodes = (
"874 -2 OFFCURVE",
"1039 134 OFFCURVE",
"1065 303 CURVE",
"696 345 LINE",
"689 280 OFFCURVE",
"637 252 OFFCURVE",
"571 252 CURVE SMOOTH",
"490 252 OFFCURVE",
"406 308 OFFCURVE",
"406 393 CURVE SMOOTH",
"406 471 OFFCURVE",
"468 501 OFFCURVE",
"559 501 CURVE SMOOTH",
"645 501 OFFCURVE",
"692 469 OFFCURVE",
"691 408 CURVE",
"1065 470 LINE",
"1030 649 OFFCURVE",
"855 754 OFFCURVE",
"561 754 CURVE SMOOTH",
"247 754 OFFCURVE",
"55 653 OFFCURVE",
"64 396 CURVE SMOOTH",
"72 174 OFFCURVE",
"155 -2 OFFCURVE",
"561 -2 CURVE SMOOTH"
);
}
);
width = 1118.83099;
},
{
anchors = (
{
name = bottom;
position = "{560, 0}";
},
{
name = top;
position = "{559, 750}";
}
);
layerId = "B909D2E0-37C2-42CE-B4A7-1FA9A56E9D28";
paths = (
{
closed = 1;
nodes = (
"880 -6 OFFCURVE",
"1045 134 OFFCURVE",
"1071 307 CURVE",
"695 349 LINE",
"688 285 OFFCURVE",
"636 257 OFFCURVE",
"570 257 CURVE SMOOTH",
"490 257 OFFCURVE",
"410 309 OFFCURVE",
"410 391 CURVE SMOOTH",
"410 466 OFFCURVE",
"471 496 OFFCURVE",
"559 496 CURVE SMOOTH",
"643 496 OFFCURVE",
"691 464 OFFCURVE",
"690 403 CURVE",
"1071 466 LINE",
"1036 650 OFFCURVE",
"860 757 OFFCURVE",
"561 757 CURVE SMOOTH",
"247 757 OFFCURVE",
"49 653 OFFCURVE",
"57 393 CURVE SMOOTH",
"64 169 OFFCURVE",
"160 -6 OFFCURVE",
"561 -6 CURVE SMOOTH"
);
}
);
width = 1119.25352;
}
);
leftKerningGroup = O;
rightKerningGroup = C;
unicode = 0043;
},
{
color = 6;
glyphname = D;
lastChange = "2021-10-28 08:58:29 +0000";
layers = (
{
anchors = (
{
name = bottom;
position = "{524, 0}";
},
{
name = center;
position = "{524, 375}";
},
{
name = top;
position = "{524, 750}";
}
);
background = {
components = (
{
name = O;
transform = "{1, 0, 0, 1, -53, 0}";
}
);
};
layerId = "F6D8640C-383C-48A8-B63C-DDE9F10207CE";
paths = (
{
closed = 1;
nodes = (
"20 750 LINE",
"20 670 OFFCURVE",
"20 589 OFFCURVE",
"20 509 CURVE SMOOTH",
"20 339 OFFCURVE",
"20 170 OFFCURVE",
"20 0 CURVE",
"616 0 LINE SMOOTH",
"925 0 OFFCURVE",
"1057 189 OFFCURVE",
"1057 378 CURVE SMOOTH",
"1057 564 OFFCURVE",
"930 750 OFFCURVE",
"616 750 CURVE SMOOTH"
);
},
{
closed = 1;
nodes = (
"597 462 OFFCURVE",
"632 423 OFFCURVE",
"632 375 CURVE SMOOTH",
"632 329 OFFCURVE",
"597 288 OFFCURVE",
"538 288 CURVE SMOOTH",
"417 288 LINE",
"416 288 OFFCURVE",
"416 288 OFFCURVE",
"416 290 CURVE SMOOTH",
"416 460 LINE",
"416 462 OFFCURVE",
"416 462 OFFCURVE",
"417 462 CURVE",
"536 462 LINE SMOOTH"
);
}
);
width = 1067;
},
{
anchors = (
{
name = bottom;
position = "{500, 0}";
},
{
name = center;
position = "{500, 375}";
},
{
name = top;
position = "{500, 750}";
}
);
layerId = "96858A69-C8A6-410B-90BB-94EA0DA45935";
name = "2050";
paths = (
{
closed = 1;
nodes = (
"178 645 LINE",
"204 594 OFFCURVE",
"213 537 OFFCURVE",
"213 479 CURVE SMOOTH",
"213 325 OFFCURVE",
"150 167 OFFCURVE",
"177 115 CURVE",
"460 115 LINE SMOOTH",
"649 115 OFFCURVE",
"794 283 OFFCURVE",
"895 390 CURVE SMOOTH",
"1045 549 OFFCURVE",
"798 645 OFFCURVE",
"573 645 CURVE SMOOTH"
);
},
{
closed = 1;
nodes = (
"724 645 OFFCURVE",
"760 575 OFFCURVE",
"760 474 CURVE SMOOTH",
"760 316 OFFCURVE",
"684 123 OFFCURVE",
"470 123 CURVE SMOOTH",
"463 123 LINE SMOOTH",
"375 123 OFFCURVE",
"220 198 OFFCURVE",
"220 455 CURVE SMOOTH",
"220 459 LINE SMOOTH",
"220 539 OFFCURVE",
"242 645 OFFCURVE",
"365 645 CURVE SMOOTH",
"571 645 LINE SMOOTH"
);
}
);
visible = 1;
width = 1039;
},
{
anchors = (
{
name = bottom;
position = "{519, 0}";
},
{
name = center;
position = "{519, 375}";
},
{
name = top;
position = "{519, 750}";
}
);
layerId = "5E5EA508-9E29-4BB2-A27E-EC4DBE9F737B";
paths = (
{
closed = 1;
nodes = (
"53 728 LINE",
"59 654 OFFCURVE",
"61 578 OFFCURVE",
"61 503 CURVE SMOOTH",
"61 336 OFFCURVE",
"47 169 OFFCURVE",
"53 24 CURVE",
"583 24 LINE SMOOTH",
"867 24 OFFCURVE",
"1001 209 OFFCURVE",
"1023 381 CURVE SMOOTH",
"1054 561 OFFCURVE",
"902 728 OFFCURVE",
"607 728 CURVE SMOOTH"
);
},
{
closed = 1;
nodes = (
"624 501 OFFCURVE",
"659 455 OFFCURVE",
"659 396 CURVE SMOOTH",
"659 326 OFFCURVE",
"615 253 OFFCURVE",
"524 253 CURVE SMOOTH",
"427 253 LINE",
"407 253 OFFCURVE",
"375 269 OFFCURVE",
"375 325 CURVE SMOOTH",
"375 460 LINE",
"375 478 OFFCURVE",
"379 501 OFFCURVE",
"406 501 CURVE",
"543 501 LINE SMOOTH"
);
}
);
width = 1061.08451;
},
{
anchors = (
{
name = bottom;
position = "{520, 0}";
},
{
name = center;
position = "{520, 375}";
},
{
name = top;
position = "{520, 750}";
}
);
layerId = "B909D2E0-37C2-42CE-B4A7-1FA9A56E9D28";
paths = (
{
closed = 1;
nodes = (
"49 731 LINE",
"54 656 OFFCURVE",
"56 579 OFFCURVE",
"56 504 CURVE SMOOTH",
"56 336 OFFCURVE",
"43 169 OFFCURVE",
"49 21 CURVE",
"587 21 LINE SMOOTH",
"875 21 OFFCURVE",
"1008 206 OFFCURVE",
"1028 381 CURVE SMOOTH",
"1054 561 OFFCURVE",
"906 731 OFFCURVE",
"608 731 CURVE SMOOTH"
);
},
{
closed = 1;
nodes = (
"620 496 OFFCURVE",
"655 451 OFFCURVE",
"655 393 CURVE SMOOTH",
"655 326 OFFCURVE",
"613 258 OFFCURVE",
"526 258 CURVE SMOOTH",
"426 258 LINE",
"408 258 OFFCURVE",
"380 272 OFFCURVE",
"380 320 CURVE SMOOTH",
"380 460 LINE",
"380 476 OFFCURVE",
"384 496 OFFCURVE",
"407 496 CURVE",
"542 496 LINE SMOOTH"
);
}
);
width = 1061.87324;
}
);
leftKerningGroup = H;
rightKerningGroup = O;
unicode = 0044;
},
{
color = 3;
glyphname = Eth;
lastChange = "2021-10-28 08:58:29 +0000";
layers = (
{
components = (
{
name = D;
transform = "{1, 0, 0, 1, 49, 0}";
}
);
layerId = "96858A69-C8A6-410B-90BB-94EA0DA45935";
paths = (
{
closed = 1;
nodes = (
"118 385 LINE",
"537 385 LINE",
"537 391 LINE",
"118 391 LINE"
);
}
);
width = 1088;
},
{
components = (
{
name = D;
transform = "{1, 0, 0, 1, 40, 0}";
}
);
layerId = "F6D8640C-383C-48A8-B63C-DDE9F10207CE";
paths = (
{
closed = 1;
nodes = (
"6 333 LINE",
"590 333 LINE",
"590 417 LINE",
"6 417 LINE"
);
}
);
width = 1107;
},
{
components = (
{
alignment = -1;
name = D;
transform = "{1, 0, 0, 1, 42, 0}";
}
);
layerId = "5E5EA508-9E29-4BB2-A27E-EC4DBE9F737B";
paths = (
{
closed = 1;
nodes = (
"30 344 LINE",
"579 344 LINE",
"579 412 LINE",
"30 412 LINE"
);
}
);
width = 1102.98592;
},
{
components = (
{
alignment = -1;
name = D;
transform = "{1, 0, 0, 1, 42, 0}";
}
);
layerId = "B909D2E0-37C2-42CE-B4A7-1FA9A56E9D28";
paths = (
{
closed = 1;
nodes = (
"27 343 LINE",
"580 343 LINE",
"580 413 LINE",
"27 413 LINE"
);
}
);
width = 1103.52113;
}
);
leftKerningGroup = Dcroat;
rightKerningGroup = O;
rightMetricsKey = D;
unicode = 00D0;
},
{
color = 6;
glyphname = Dhook;
lastChange = "2021-10-28 08:58:29 +0000";
layers = (
{
anchors = (
{
name = bottom;
position = "{923, 0}";
},
{
name = center;
position = "{923, 375}";
},
{
name = top;
position = "{923, 750}";
}
);
layerId = "F6D8640C-383C-48A8-B63C-DDE9F10207CE";
paths = (
{
closed = 1;
nodes = (
"1015 0 LINE SMOOTH",
"1324 0 OFFCURVE",
"1456 189 OFFCURVE",
"1456 378 CURVE SMOOTH",
"1456 564 OFFCURVE",
"1329 750 OFFCURVE",
"1015 750 CURVE SMOOTH",
"393 750 LINE SMOOTH",
"94 750 OFFCURVE",
"-17 647 OFFCURVE",
"18 364 CURVE",
"325 364 LINE",
"308 434 OFFCURVE",
"329 462 OFFCURVE",
"419 462 CURVE",
"419 462 OFFCURVE",
"419 413 OFFCURVE",
"419 389 CURVE SMOOTH",
"419 277 OFFCURVE",
"419 146 OFFCURVE",
"419 0 CURVE"
);
},
{
closed = 1;
nodes = (
"815 288 OFFCURVE",
"815 288 OFFCURVE",
"815 290 CURVE SMOOTH",
"815 460 LINE",
"815 462 OFFCURVE",
"815 462 OFFCURVE",
"816 462 CURVE",
"935 462 LINE SMOOTH",
"996 462 OFFCURVE",
"1031 423 OFFCURVE",
"1031 375 CURVE SMOOTH",
"1031 329 OFFCURVE",
"996 288 OFFCURVE",
"937 288 CURVE SMOOTH",
"816 288 LINE"
);
}
);
width = 1466;
},
{
anchors = (
{
name = bottom;
position = "{580, 0}";
},
{
name = center;
position = "{580, 375}";
},
{
name = top;
position = "{580, 750}";
}
);
layerId = "96858A69-C8A6-410B-90BB-94EA0DA45935";
paths = (
{
closed = 1;
nodes = (
"540 115 LINE SMOOTH",
"729 115 OFFCURVE",
"874 283 OFFCURVE",
"975 390 CURVE SMOOTH",
"1125 549 OFFCURVE",
"878 645 OFFCURVE",
"653 645 CURVE SMOOTH",
"258 645 LINE SMOOTH",
"129 645 OFFCURVE",
"64 627 OFFCURVE",
"64 549 CURVE",
"171 549 LINE",
"171 596 OFFCURVE",
"189 643 OFFCURVE",
"237 643 CURVE SMOOTH",
"273 643 OFFCURVE",
"294 608 OFFCURVE",
"294 496 CURVE SMOOTH",
"294 330 OFFCURVE",
"231 165 OFFCURVE",
"257 115 CURVE"
);
},
{
closed = 1;
nodes = (
"455 123 OFFCURVE",
"300 198 OFFCURVE",
"300 455 CURVE SMOOTH",
"300 459 LINE SMOOTH",
"300 539 OFFCURVE",
"322 645 OFFCURVE",
"445 645 CURVE SMOOTH",
"651 645 LINE SMOOTH",
"804 645 OFFCURVE",
"840 575 OFFCURVE",
"840 474 CURVE SMOOTH",
"840 316 OFFCURVE",
"764 123 OFFCURVE",
"550 123 CURVE SMOOTH",
"543 123 LINE SMOOTH"
);
}
);
width = 1119;
},
{
anchors = (
{
name = bottom;
position = "{851, 0}";
},
{
name = center;
position = "{851, 375}";
},
{
name = top;
position = "{851, 750}";
}
);
layerId = "5E5EA508-9E29-4BB2-A27E-EC4DBE9F737B";
paths = (
{
closed = 1;
nodes = (
"915 24 LINE SMOOTH",
"1198 24 OFFCURVE",
"1333 209 OFFCURVE",
"1354 381 CURVE SMOOTH",
"1386 561 OFFCURVE",
"1234 728 OFFCURVE",
"939 728 CURVE SMOOTH",
"364 728 LINE SMOOTH",
"101 728 OFFCURVE",
"0 643 OFFCURVE",
"28 403 CURVE",
"292 403 LINE",
"279 468 OFFCURVE",
"299 500 OFFCURVE",
"381 500 CURVE",
"388 500 OFFCURVE",
"393 454 OFFCURVE",
"393 412 CURVE SMOOTH",
"393 288 OFFCURVE",
"379 150 OFFCURVE",
"385 24 CURVE"
);
},
{
closed = 1;
nodes = (
"739 253 OFFCURVE",
"706 269 OFFCURVE",
"706 325 CURVE SMOOTH",
"706 460 LINE",
"706 478 OFFCURVE",
"711 501 OFFCURVE",
"738 501 CURVE",
"875 501 LINE SMOOTH",
"955 501 OFFCURVE",
"991 455 OFFCURVE",
"991 396 CURVE SMOOTH",
"991 326 OFFCURVE",
"947 253 OFFCURVE",
"855 253 CURVE SMOOTH",
"758 253 LINE"
);
}
);
width = 1392.69014;
},
{
anchors = (
{
name = bottom;
position = "{861, 0}";
},
{
name = center;
position = "{861, 375}";
},
{
name = top;
position = "{861, 750}";
}
);
layerId = "B909D2E0-37C2-42CE-B4A7-1FA9A56E9D28";
paths = (
{
closed = 1;
nodes = (
"928 21 LINE SMOOTH",
"1215 21 OFFCURVE",
"1349 206 OFFCURVE",
"1368 381 CURVE SMOOTH",
"1395 561 OFFCURVE",
"1247 731 OFFCURVE",
"949 731 CURVE SMOOTH",
"368 731 LINE SMOOTH",
"100 731 OFFCURVE",
"-2 644 OFFCURVE",
"27 398 CURVE",
"296 398 LINE",
"283 463 OFFCURVE",
"303 495 OFFCURVE",
"386 495 CURVE",
"392 495 OFFCURVE",
"396 449 OFFCURVE",
"396 409 CURVE SMOOTH",
"396 287 OFFCURVE",
"384 149 OFFCURVE",
"390 21 CURVE"
);
},
{
closed = 1;
nodes = (
"749 258 OFFCURVE",
"721 272 OFFCURVE",
"721 320 CURVE SMOOTH",
"721 460 LINE",
"721 476 OFFCURVE",
"725 496 OFFCURVE",
"748 496 CURVE",
"883 496 LINE SMOOTH",
"960 496 OFFCURVE",
"996 451 OFFCURVE",
"996 393 CURVE SMOOTH",
"996 326 OFFCURVE",
"954 258 OFFCURVE",
"866 258 CURVE SMOOTH",
"766 258 LINE"
);
}
);
width = 1402.46479;
}
);
leftKerningGroup = Bhook;
rightKerningGroup = O;
unicode = 018A;
},
{
color = 6;
glyphname = E;
lastChange = "2021-10-28 08:58:29 +0000";
layers = (
{
anchors = (
{
name = bottom;
position = "{472, 0}";
},
{
name = ogonek;
position = "{811, 115}";
},
{
name = top;
position = "{472, 750}";
},
{
name = topleft;
position = "{52, 750}";
}
);
background = {
paths = (
{
closed = 1;
nodes = (
"344 521 LINE",
"344 551 OFFCURVE",
"356 581 OFFCURVE",
"378 602 CURVE",
"399 623 OFFCURVE",
"429 636 OFFCURVE",
"459 636 CURVE",
"776 636 LINE",
"776 645 LINE",
"159 645 LINE",
"159 125 LINE",
"776 125 LINE",
"776 134 LINE",
"459 134 LINE",
"429 134 OFFCURVE",
"399 146 OFFCURVE",
"378 167 CURVE",
"356 189 OFFCURVE",
"344 218 OFFCURVE",
"344 249 CURVE",
"344 299 LINE",
"344 329 OFFCURVE",
"356 359 OFFCURVE",
"378 380 CURVE",
"379 382 OFFCURVE",
"381 383 OFFCURVE",
"383 385 CURVE",
"381 386 OFFCURVE",
"379 388 OFFCURVE",
"378 389 CURVE",
"356 411 OFFCURVE",
"344 440 OFFCURVE",
"344 471 CURVE"
);
}
);
};
layerId = "96858A69-C8A6-410B-90BB-94EA0DA45935";
paths = (
{
closed = 1;
nodes = (
"693 645 LINE",
"258 645 LINE",
"268 621 OFFCURVE",
"273 596 OFFCURVE",
"273 568 CURVE SMOOTH",
"273 409 OFFCURVE",
"124 200 OFFCURVE",
"144 115 CURVE",
"811 115 LINE",
"811 120 LINE",
"529 120 LINE SMOOTH",
"339 120 OFFCURVE",
"315 244 OFFCURVE",
"315 294 CURVE SMOOTH",
"315 296 LINE SMOOTH",
"315 360 OFFCURVE",
"368 382 OFFCURVE",
"416 382 CURVE",
"659 382 LINE",
"659 382 LINE",
"416 382 LINE",
"401 382 OFFCURVE",
"315 383 OFFCURVE",
"315 482 CURVE SMOOTH",
"315 485 LINE SMOOTH",
"315 605 OFFCURVE",
"384 645 OFFCURVE",
"492 645 CURVE",
"693 645 LINE"
);
}
);
width = 871;
},
{
anchors = (
{
name = bottom;
position = "{440, 0}";
},
{
name = ogonek;
position = "{854, 0}";
},
{
name = top;
position = "{440, 750}";
},
{
name = topleft;
position = "{20, 750}";
}
);
layerId = "F6D8640C-383C-48A8-B63C-DDE9F10207CE";
name = Regular;
paths = (
{
closed = 1;
nodes = (
"861 750 LINE",
"20 750 LINE",
"20 698 OFFCURVE",
"20 645 OFFCURVE",
"20 593 CURVE SMOOTH",
"20 395 OFFCURVE",
"20 198 OFFCURVE",
"20 0 CURVE",
"867 0 LINE",
"867 242 LINE",
"426 242 LINE",
"425 242 OFFCURVE",
"425 242 OFFCURVE",
"425 242 CURVE",
"425 298 LINE",
"425 300 OFFCURVE",
"425 300 OFFCURVE",
"426 300 CURVE",
"846 300 LINE",
"846 441 LINE",
"426 441 LINE",
"425 441 OFFCURVE",
"425 441 OFFCURVE",
"425 443 CURVE",
"425 498 LINE",
"425 498 OFFCURVE",
"425 498 OFFCURVE",
"426 498 CURVE",
"861 498 LINE"
);
}
);
width = 885;
},
{
anchors = (
{
name = bottom;
position = "{447, 0}";
},
{
name = ogonek;
position = "{845, 24}";
},
{
name = top;
position = "{447, 750}";
},
{
name = topleft;
position = "{27, 750}";
}
);
layerId = "5E5EA508-9E29-4BB2-A27E-EC4DBE9F737B";
name = Regular;
paths = (
{
closed = 1;
nodes = (
"826 728 LINE",
"70 728 LINE",
"72 682 OFFCURVE",
"73 635 OFFCURVE",
"73 588 CURVE SMOOTH",
"73 398 OFFCURVE",
"42 198 OFFCURVE",
"46 24 CURVE",
"855 24 LINE",
"855 216 LINE",
"448 216 LINE",
"407 216 OFFCURVE",
"402 242 OFFCURVE",
"402 253 CURVE",
"402 298 LINE",
"402 313 OFFCURVE",
"413 317 OFFCURVE",
"424 317 CURVE",
"806 317 LINE",
"806 429 LINE",
"424 429 LINE",
"420 429 OFFCURVE",
"402 429 OFFCURVE",
"402 451 CURVE",
"402 495 LINE",
"402 521 OFFCURVE",
"416 529 OFFCURVE",
"440 529 CURVE",
"826 529 LINE"
);
}
);
width = 882.04225;
},
{
anchors = (
{
name = bottom;
position = "{446, 0}";
},
{
name = ogonek;
position = "{846, 21}";
},
{
name = top;
position = "{446, 750}";
},
{
name = topleft;
position = "{26, 750}";
}
);
layerId = "B909D2E0-37C2-42CE-B4A7-1FA9A56E9D28";
name = Regular;
paths = (
{
closed = 1;
nodes = (
"831 731 LINE",
"63 731 LINE",
"65 684 OFFCURVE",
"66 636 OFFCURVE",
"66 589 CURVE SMOOTH",
"66 398 OFFCURVE",
"39 198 OFFCURVE",
"43 21 CURVE",
"857 21 LINE",
"857 219 LINE",
"445 219 LINE",
"409 219 OFFCURVE",
"405 242 OFFCURVE",
"405 252 CURVE",
"405 298 LINE",
"405 311 OFFCURVE",
"415 315 OFFCURVE",
"424 315 CURVE",
"811 315 LINE",
"811 431 LINE",
"424 431 LINE",
"421 431 OFFCURVE",
"405 431 OFFCURVE",
"405 450 CURVE",
"405 495 LINE",
"405 518 OFFCURVE",
"417 525 OFFCURVE",
"438 525 CURVE",
"831 525 LINE"
);
}
);
width = 882.43662;
}
);
leftKerningGroup = H;
rightKerningGroup = E;
unicode = 0045;
},
{
color = 6;
glyphname = Eogonek;
lastChange = "2021-10-28 08:58:29 +0000";
layers = (
{
layerId = "96858A69-C8A6-410B-90BB-94EA0DA45935";
paths = (
{
closed = 1;
nodes = (
"722 -105 OFFCURVE",
"768 -77 OFFCURVE",
"796 -34 CURVE",
"796 -33 LINE",
"791 -34 OFFCURVE",
"787 -34 OFFCURVE",
"783 -34 CURVE SMOOTH",
"748 -34 OFFCURVE",
"721 -7 OFFCURVE",
"721 29 CURVE SMOOTH",
"721 64 OFFCURVE",
"734 95 OFFCURVE",
"811 115 CURVE",
"811 120 LINE",
"529 120 LINE",
"339 120 OFFCURVE",
"315 244 OFFCURVE",
"315 294 CURVE SMOOTH",
"315 296 LINE SMOOTH",
"315 360 OFFCURVE",
"368 382 OFFCURVE",
"416 382 CURVE",
"659 382 LINE",
"659 382 LINE",
"416 382 LINE",
"401 382 OFFCURVE",
"315 383 OFFCURVE",
"315 482 CURVE SMOOTH",
"315 485 LINE SMOOTH",
"315 605 OFFCURVE",
"384 645 OFFCURVE",
"492 645 CURVE",
"693 645 LINE",
"693 645 LINE",
"258 645 LINE",
"268 621 OFFCURVE",
"273 596 OFFCURVE",
"273 568 CURVE SMOOTH",
"273 409 OFFCURVE",
"124 200 OFFCURVE",
"144 115 CURVE",
"655 115 LINE",
"902 115 OFFCURVE",
"582 53 OFFCURVE",
"582 -45 CURVE SMOOTH",
"582 -77 OFFCURVE",
"611 -105 OFFCURVE",
"667 -105 CURVE SMOOTH"
);
}
);
width = 871;
},
{
background = {
components = (
{
name = E;
}
);
};
layerId = "F6D8640C-383C-48A8-B63C-DDE9F10207CE";
name = Regular;
paths = (
{
closed = 1;
nodes = (
"765 -308 OFFCURVE",
"806 -300 OFFCURVE",
"861 -285 CURVE",
"861 -89 LINE",
"831 -101 OFFCURVE",
"810 -105 OFFCURVE",
"782 -105 CURVE SMOOTH",
"748 -105 OFFCURVE",
"728 -92 OFFCURVE",
"728 -70 CURVE SMOOTH",
"728 -43 OFFCURVE",
"756 -5 OFFCURVE",
"867 0 CURVE",
"867 242 LINE",
"426 242 LINE",
"425 242 OFFCURVE",
"425 242 OFFCURVE",
"425 242 CURVE",
"425 298 LINE",
"425 300 OFFCURVE",
"425 300 OFFCURVE",
"426 300 CURVE",
"846 300 LINE",
"846 441 LINE",
"426 441 LINE",
"425 441 OFFCURVE",
"425 441 OFFCURVE",
"425 443 CURVE",
"425 498 LINE",
"425 498 OFFCURVE",
"425 498 OFFCURVE",
"426 498 CURVE",
"861 498 LINE",
"861 750 LINE",
"20 750 LINE",
"20 697 OFFCURVE",
"20 645 OFFCURVE",
"20 593 CURVE SMOOTH",
"20 395 OFFCURVE",
"20 197 OFFCURVE",
"20 0 CURVE",
"527 0 LINE",
"482 -37 OFFCURVE",
"459 -85 OFFCURVE",
"459 -140 CURVE SMOOTH",
"459 -247 OFFCURVE",
"540 -308 OFFCURVE",
"703 -308 CURVE SMOOTH"
);
}
);
width = 885;
},
{
layerId = "5E5EA508-9E29-4BB2-A27E-EC4DBE9F737B";
name = Regular;
paths = (
{
closed = 1;
nodes = (
"756 -265 OFFCURVE",
"798 -253 OFFCURVE",
"847 -232 CURVE",
"847 -77 LINE",
"823 -87 OFFCURVE",
"805 -90 OFFCURVE",
"782 -90 CURVE SMOOTH",
"748 -90 OFFCURVE",
"727 -74 OFFCURVE",
"727 -49 CURVE SMOOTH",
"727 -20 OFFCURVE",
"751 16 OFFCURVE",
"855 24 CURVE",
"855 216 LINE",
"448 216 LINE",
"407 216 OFFCURVE",
"402 242 OFFCURVE",
"402 253 CURVE",
"402 298 LINE",
"402 313 OFFCURVE",
"413 317 OFFCURVE",
"424 317 CURVE",
"806 317 LINE",
"806 429 LINE",
"424 429 LINE",
"420 429 OFFCURVE",
"402 429 OFFCURVE",
"402 451 CURVE",
"402 495 LINE",
"402 521 OFFCURVE",
"416 529 OFFCURVE",
"440 529 CURVE",
"826 529 LINE",
"826 728 LINE",
"70 728 LINE",
"72 681 OFFCURVE",
"73 635 OFFCURVE",
"73 588 CURVE SMOOTH",
"73 398 OFFCURVE",
"42 198 OFFCURVE",
"46 24 CURVE",
"554 24 LINE",
"571 -5 OFFCURVE",
"485 -56 OFFCURVE",
"485 -120 CURVE SMOOTH",
"485 -211 OFFCURVE",
"555 -265 OFFCURVE",
"695 -265 CURVE SMOOTH"
);
}
);
width = 882.04225;
},
{
layerId = "B909D2E0-37C2-42CE-B4A7-1FA9A56E9D28";
name = Regular;
paths = (
{
closed = 1;
nodes = (
"757 -271 OFFCURVE",
"799 -259 OFFCURVE",
"849 -239 CURVE",
"849 -79 LINE",
"824 -89 OFFCURVE",
"806 -92 OFFCURVE",
"782 -92 CURVE SMOOTH",
"748 -92 OFFCURVE",
"727 -76 OFFCURVE",
"727 -52 CURVE SMOOTH",
"727 -23 OFFCURVE",
"752 13 OFFCURVE",
"857 21 CURVE",
"857 219 LINE",
"445 219 LINE",
"409 219 OFFCURVE",
"405 242 OFFCURVE",
"405 252 CURVE",
"405 298 LINE",
"405 311 OFFCURVE",
"415 315 OFFCURVE",
"424 315 CURVE",
"811 315 LINE",
"811 431 LINE",
"424 431 LINE",
"421 431 OFFCURVE",
"405 431 OFFCURVE",
"405 450 CURVE",
"405 495 LINE",
"405 518 OFFCURVE",
"417 525 OFFCURVE",
"438 525 CURVE",
"831 525 LINE",
"831 731 LINE",
"63 731 LINE",
"65 683 OFFCURVE",
"66 636 OFFCURVE",
"66 589 CURVE SMOOTH",
"66 398 OFFCURVE",
"39 198 OFFCURVE",
"43 21 CURVE",
"550 21 LINE",
"559 -9 OFFCURVE",
"482 -60 OFFCURVE",
"482 -123 CURVE SMOOTH",
"482 -216 OFFCURVE",
"553 -271 OFFCURVE",
"696 -271 CURVE SMOOTH"
);
}
);
width = 882.43662;
}
);
leftKerningGroup = H;
leftMetricsKey = E;
rightKerningGroup = E;
rightMetricsKey = E;
unicode = 0118;
},
{
color = 6;
glyphname = F;
lastChange = "2021-10-28 08:58:29 +0000";
layers = (
{
anchors = (
{
name = bottom;
position = "{375, 0}";
},
{
name = top;
position = "{375, 750}";
}
);
layerId = "96858A69-C8A6-410B-90BB-94EA0DA45935";
paths = (
{
closed = 1;
nodes = (
"693 645 LINE",
"225 645 LINE",
"231 619 OFFCURVE",
"233 594 OFFCURVE",
"233 569 CURVE SMOOTH",
"233 398 OFFCURVE",
"121 235 OFFCURVE",
"137 115 CURVE",
"358 115 LINE",
"328 132 OFFCURVE",
"303 160 OFFCURVE",
"303 211 CURVE SMOOTH",
"303 268 OFFCURVE",
"345 289 OFFCURVE",
"387 289 CURVE",
"641 289 LINE",
"641 289 LINE",
"387 289 LINE",
"310 289 OFFCURVE",
"264 325 OFFCURVE",
"264 401 CURVE SMOOTH",
"264 410 LINE SMOOTH",
"264 500 OFFCURVE",
"308 640 OFFCURVE",
"519 640 CURVE",
"693 640 LINE"
);
}
);
width = 868;
},
{
anchors = (
{
name = bottom;
position = "{437, 0}";
},
{
name = top;
position = "{437, 750}";
}
);
layerId = "F6D8640C-383C-48A8-B63C-DDE9F10207CE";
name = Regular;
paths = (
{
closed = 1;
nodes = (
"861 750 LINE",
"20 750 LINE",
"20 689 OFFCURVE",
"20 628 OFFCURVE",
"20 567 CURVE SMOOTH",
"20 378 OFFCURVE",
"20 189 OFFCURVE",
"20 0 CURVE",
"436 0 LINE",
"436 68 OFFCURVE",
"436 89 OFFCURVE",
"436 157 CURVE",
"436 158 OFFCURVE",
"436 158 OFFCURVE",
"436 158 CURVE",
"846 158 LINE",
"846 396 LINE",
"436 396 LINE",
"436 396 OFFCURVE",
"436 396 OFFCURVE",
"436 397 CURVE",
"436 455 LINE",
"436 456 OFFCURVE",
"436 456 OFFCURVE",
"436 456 CURVE",
"861 456 LINE"
);
}
);
width = 877;
},
{
anchors = (
{
name = bottom;
position = "{424, 0}";
},
{
name = top;
position = "{424, 750}";
}
);
layerId = "5E5EA508-9E29-4BB2-A27E-EC4DBE9F737B";
name = Regular;
paths = (
{
closed = 1;
nodes = (
"826 728 LINE",
"63 728 LINE",
"65 674 OFFCURVE",
"65 621 OFFCURVE",
"65 567 CURVE SMOOTH",
"65 382 OFFCURVE",
"41 199 OFFCURVE",
"45 24 CURVE",
"420 24 LINE",
"413 82 OFFCURVE",
"408 104 OFFCURVE",
"408 168 CURVE",
"408 181 OFFCURVE",
"417 186 OFFCURVE",
"426 186 CURVE",
"803 186 LINE",
"803 373 LINE",
"426 373 LINE",
"409 373 OFFCURVE",
"400 381 OFFCURVE",
"400 398 CURVE",
"400 445 LINE",
"400 465 OFFCURVE",
"409 495 OFFCURVE",
"454 495 CURVE",
"826 495 LINE"
);
}
);
width = 875.09859;
},
{
anchors = (
{
name = bottom;
position = "{426, 0}";
},
{
name = top;
position = "{426, 750}";
}
);
layerId = "B909D2E0-37C2-42CE-B4A7-1FA9A56E9D28";
name = Regular;
paths = (
{
closed = 1;
nodes = (
"831 731 LINE",
"57 731 LINE",
"59 676 OFFCURVE",
"59 622 OFFCURVE",
"59 567 CURVE SMOOTH",
"59 381 OFFCURVE",
"38 198 OFFCURVE",
"42 21 CURVE",
"422 21 LINE",
"416 80 OFFCURVE",
"412 102 OFFCURVE",
"412 167 CURVE",
"412 178 OFFCURVE",
"420 182 OFFCURVE",
"427 182 CURVE",
"809 182 LINE",
"809 376 LINE",
"427 376 LINE",
"413 376 OFFCURVE",
"405 383 OFFCURVE",
"405 398 CURVE",
"405 446 LINE",
"405 464 OFFCURVE",
"413 490 OFFCURVE",
"452 490 CURVE",
"831 490 LINE"
);
}
);
width = 875.35211;
}
);
leftKerningGroup = H;
rightKerningGroup = F;
unicode = 0046;
},
{
color = 6;
glyphname = G;
lastChange = "2021-10-28 08:58:29 +0000";
layers = (
{
anchors = (
{
name = bottom;
position = "{566, 0}";
},
{
name = top;
position = "{566, 750}";
}
);
background = {
components = (
{
name = C;
}
);
};
layerId = "F6D8640C-383C-48A8-B63C-DDE9F10207CE";
name = Regular;
paths = (
{
closed = 1;
nodes = (
"164 780 OFFCURVE",
"10 587 OFFCURVE",
"10 374 CURVE SMOOTH",
"10 148 OFFCURVE",
"166 -25 OFFCURVE",
"469 -25 CURVE SMOOTH",
"516 -25 OFFCURVE",
"546 -22 OFFCURVE",
"582 -15 CURVE",
"614 103 OFFCURVE",
"647 226 OFFCURVE",
"679 344 CURVE",
"663 316 OFFCURVE",
"628 300 OFFCURVE",
"560 300 CURVE SMOOTH",
"471 300 OFFCURVE",
"435 341 OFFCURVE",
"435 383 CURVE SMOOTH",
"435 426 OFFCURVE",
"465 470 OFFCURVE",
"560 470 CURVE SMOOTH",
"660 470 OFFCURVE",
"701 419 OFFCURVE",
"679 344 CURVE",
"1111 446 LINE",
"1079 636 OFFCURVE",
"916 780 OFFCURVE",
"561 780 CURVE SMOOTH"
);
},
{
closed = 1;
nodes = (
"1103 0 LINE",
"1103 344 LINE",
"962 344 OFFCURVE",
"820 344 OFFCURVE",
"679 344 CURVE",
"679 229 OFFCURVE",
"679 115 OFFCURVE",
"679 0 CURVE"
);
}
);
width = 1129;
},
{
anchors = (
{
name = bottom;
position = "{569, 0}";
},
{
name = top;
position = "{569, 750}";
}
);
background = {
components = (
{
name = C;
}
);
};
layerId = "96858A69-C8A6-410B-90BB-94EA0DA45935";
name = "2050";
paths = (
{
closed = 1;
nodes = (
"-38 661 OFFCURVE",
"147 513 OFFCURVE",
"223 431 CURVE SMOOTH",
"323 323 OFFCURVE",
"198 95 OFFCURVE",
"434 88 CURVE SMOOTH",
"438 88 OFFCURVE",
"442 88 OFFCURVE",
"446 88 CURVE",
"478 146 OFFCURVE",
"539 225 OFFCURVE",
"558 255 CURVE",
"533 243 OFFCURVE",
"504 239 OFFCURVE",
"478 239 CURVE SMOOTH",
"390 239 OFFCURVE",
"254 273 OFFCURVE",
"254 441 CURVE SMOOTH",
"254 590 OFFCURVE",
"325 656 OFFCURVE",
"504 656 CURVE SMOOTH",
"674 656 OFFCURVE",
"773 621 OFFCURVE",
"764 491 CURVE",
"943 521 LINE",
"879 620 OFFCURVE",
"706 661 OFFCURVE",
"503 661 CURVE SMOOTH"
);
},
{
closed = 1;
nodes = (
"941 115 LINE",
"941 169 LINE",
"846 179 OFFCURVE",
"737 228 OFFCURVE",
"707 287 CURVE",
"707 284 OFFCURVE",
"707 201 OFFCURVE",
"707 115 CURVE"
);
}
);
width = 1097;
},
{
anchors = (
{
name = bottom;
position = "{567, 0}";
},
{
name = top;
position = "{567, 750}";
}
);
layerId = "5E5EA508-9E29-4BB2-A27E-EC4DBE9F737B";
name = Regular;
paths = (
{
closed = 1;
nodes = (
"121 755 OFFCURVE",
"39 571 OFFCURVE",
"55 386 CURVE SMOOTH",
"76 185 OFFCURVE",
"173 0 OFFCURVE",
"462 -1 CURVE SMOOTH",
"500 -1 OFFCURVE",
"524 1 OFFCURVE",
"553 7 CURVE",
"585 112 OFFCURVE",
"624 226 OFFCURVE",
"653 325 CURVE",
"636 301 OFFCURVE",
"602 287 OFFCURVE",
"543 287 CURVE SMOOTH",
"454 287 OFFCURVE",
"397 327 OFFCURVE",
"397 395 CURVE SMOOTH",
"397 461 OFFCURVE",
"435 509 OFFCURVE",
"548 509 CURVE SMOOTH",
"663 509 OFFCURVE",
"716 462 OFFCURVE",
"697 375 CURVE",
"1076 462 LINE",
"1037 633 OFFCURVE",
"872 755 OFFCURVE",
"549 755 CURVE SMOOTH"
);
},
{
closed = 1;
nodes = (
"1069 24 LINE",
"1069 307 LINE",
"937 309 OFFCURVE",
"802 319 OFFCURVE",
"685 332 CURVE",
"685 241 OFFCURVE",
"685 133 OFFCURVE",
"685 24 CURVE"
);
}
);
width = 1122.23944;
},
{
anchors = (
{
name = bottom;
position = "{567, 0}";
},
{
name = top;
position = "{567, 750}";
}
);
layerId = "B909D2E0-37C2-42CE-B4A7-1FA9A56E9D28";
name = Regular;
paths = (
{
closed = 1;
nodes = (
"127 758 OFFCURVE",
"35 573 OFFCURVE",
"49 384 CURVE SMOOTH",
"67 180 OFFCURVE",
"172 -3 OFFCURVE",
"463 -4 CURVE SMOOTH",
"502 -4 OFFCURVE",
"527 -2 OFFCURVE",
"557 4 CURVE",
"589 111 OFFCURVE",
"627 226 OFFCURVE",
"656 328 CURVE",
"640 303 OFFCURVE",
"605 289 OFFCURVE",
"545 289 CURVE SMOOTH",
"456 289 OFFCURVE",
"402 329 OFFCURVE",
"402 393 CURVE SMOOTH",
"402 456 OFFCURVE",
"439 504 OFFCURVE",
"550 504 CURVE SMOOTH",
"663 504 OFFCURVE",
"714 456 OFFCURVE",
"695 371 CURVE",
"1081 460 LINE",
"1043 633 OFFCURVE",
"878 758 OFFCURVE",
"551 758 CURVE SMOOTH"
);
},
{
closed = 1;
nodes = (
"1074 21 LINE",
"1074 312 LINE",
"940 314 OFFCURVE",
"804 322 OFFCURVE",
"684 334 CURVE",
"684 239 OFFCURVE",
"684 131 OFFCURVE",
"684 21 CURVE"
);
}
);
width = 1123.14085;
}
);
leftKerningGroup = O;
rightKerningGroup = G;
unicode = 0047;
},
{
color = 6;
glyphname = H;
lastChange = "2021-10-28 08:58:29 +0000";
layers = (
{
anchors = (
{
name = bottom;
position = "{505, 0}";
},
{
name = center;
position = "{502, 375}";
},
{
name = top;
position = "{505, 750}";
},
{
name = topleft;
position = "{12, 750}";
}
);
layerId = "F6D8640C-383C-48A8-B63C-DDE9F10207CE";
paths = (
{
closed = 1;
nodes = (
"575 653 OFFCURVE",
"575 555 OFFCURVE",
"575 458 CURVE SMOOTH",
"575 457 OFFCURVE",
"574 456 OFFCURVE",
"573 456 CURVE SMOOTH",
"436 456 LINE SMOOTH",
"435 456 OFFCURVE",
"435 457 OFFCURVE",
"435 458 CURVE SMOOTH",
"435 555 OFFCURVE",
"435 653 OFFCURVE",
"435 750 CURVE",
"20 750 LINE",
"20 700 OFFCURVE",
"20 650 OFFCURVE",
"20 600 CURVE SMOOTH",
"20 400 OFFCURVE",
"20 200 OFFCURVE",
"20 0 CURVE",
"435 0 LINE",
"435 81 OFFCURVE",
"435 163 OFFCURVE",
"435 244 CURVE SMOOTH",
"435 245 OFFCURVE",
"435 246 OFFCURVE",
"436 246 CURVE SMOOTH",
"573 246 LINE SMOOTH",
"574 246 OFFCURVE",
"575 245 OFFCURVE",
"575 244 CURVE SMOOTH",
"575 163 OFFCURVE",
"575 81 OFFCURVE",
"575 0 CURVE",
"990 0 LINE",
"990 124 OFFCURVE",
"990 248 OFFCURVE",
"990 371 CURVE SMOOTH",
"990 498 OFFCURVE",
"990 624 OFFCURVE",
"990 750 CURVE",
"575 750 LINE"
);
}
);
width = 1010;
},
{
anchors = (
{
name = bottom;
position = "{514, 0}";
},
{
name = center;
position = "{514, 375}";
},
{
name = top;
position = "{514, 750}";
},
{
name = topleft;
position = "{36, 750}";
}
);
background = {
paths = (
{
closed = 1;
nodes = (
"296 634 LINE",
"111 635 LINE",
"111 115 LINE",
"296 115 LINE",
"296 246 LINE",
"296 276 OFFCURVE",
"308 306 OFFCURVE",
"329 328 CURVE",
"339 338 OFFCURVE",
"351 346 OFFCURVE",
"364 351 CURVE",
"351 357 OFFCURVE",
"339 365 OFFCURVE",
"329 375 CURVE",
"308 396 OFFCURVE",
"296 426 OFFCURVE",
"296 456 CURVE"
);
},
{
closed = 1;
nodes = (
"656 426 OFFCURVE",
"643 396 OFFCURVE",
"622 375 CURVE",
"612 365 OFFCURVE",
"600 357 OFFCURVE",
"587 351 CURVE",
"600 346 OFFCURVE",
"612 338 OFFCURVE",
"622 328 CURVE",
"643 306 OFFCURVE",
"656 276 OFFCURVE",
"656 246 CURVE",
"656 115 LINE",
"841 115 LINE",
"841 635 LINE",
"656 635 LINE",
"656 456 LINE"
);
}
);
};
layerId = "96858A69-C8A6-410B-90BB-94EA0DA45935";
paths = (
{
closed = 1;
nodes = (
"681 615 OFFCURVE",
"702 551 OFFCURVE",
"702 483 CURVE SMOOTH",
"702 405 OFFCURVE",
"662 351 OFFCURVE",
"581 351 CURVE SMOOTH",
"395 351 LINE SMOOTH",
"334 351 OFFCURVE",
"309 391 OFFCURVE",
"309 443 CURVE SMOOTH",
"309 508 OFFCURVE",
"348 594 OFFCURVE",
"403 645 CURVE",
"261 645 LINE",
"268 628 OFFCURVE",
"271 608 OFFCURVE",
"271 587 CURVE SMOOTH",
"271 440 OFFCURVE",
"126 207 OFFCURVE",
"126 115 CURVE",
"338 115 LINE",
"319 149 OFFCURVE",
"308 192 OFFCURVE",
"308 231 CURVE SMOOTH",
"308 295 OFFCURVE",
"336 351 OFFCURVE",
"395 351 CURVE SMOOTH",
"581 351 LINE SMOOTH",
"660 351 OFFCURVE",
"704 298 OFFCURVE",
"704 224 CURVE SMOOTH",
"704 191 OFFCURVE",
"695 153 OFFCURVE",
"677 115 CURVE",
"855 115 LINE",
"818 179 OFFCURVE",
"810 262 OFFCURVE",
"810 346 CURVE SMOOTH",
"810 456 OFFCURVE",
"824 569 OFFCURVE",
"807 645 CURVE",
"639 645 LINE"
);
}
);
width = 989;
},
{
anchors = (
{
name = bottom;
position = "{507, 0}";
},
{
name = center;
position = "{505, 375}";
},
{
name = top;
position = "{507, 750}";
},
{
name = topleft;
position = "{17, 750}";
}
);
layerId = "5E5EA508-9E29-4BB2-A27E-EC4DBE9F737B";
paths = (
{
closed = 1;
nodes = (
"597 645 OFFCURVE",
"602 554 OFFCURVE",
"602 463 CURVE SMOOTH",
"602 446 OFFCURVE",
"593 434 OFFCURVE",
"575 434 CURVE SMOOTH",
"427 434 LINE SMOOTH",
"414 434 OFFCURVE",
"408 443 OFFCURVE",
"408 455 CURVE SMOOTH",
"408 545 OFFCURVE",
"417 641 OFFCURVE",
"428 728 CURVE",
"71 728 LINE",
"72 685 OFFCURVE",
"73 641 OFFCURVE",
"73 597 CURVE SMOOTH",
"73 408 OFFCURVE",
"42 201 OFFCURVE",
"42 24 CURVE",
"415 24 LINE",
"410 95 OFFCURVE",
"408 169 OFFCURVE",
"408 241 CURVE SMOOTH",
"408 256 OFFCURVE",
"414 268 OFFCURVE",
"427 268 CURVE SMOOTH",
"575 268 LINE SMOOTH",
"592 268 OFFCURVE",
"602 256 OFFCURVE",
"602 240 CURVE SMOOTH",
"602 169 OFFCURVE",
"600 96 OFFCURVE",
"597 24 CURVE",
"961 24 LINE",
"954 136 OFFCURVE",
"952 251 OFFCURVE",
"952 366 CURVE SMOOTH",
"952 489 OFFCURVE",
"955 612 OFFCURVE",
"951 728 CURVE",
"589 728 LINE"
);
}
);
width = 1005.56338;
},
{
anchors = (
{
name = bottom;
position = "{507, 0}";
},
{
name = center;
position = "{505, 375}";
},
{
name = top;
position = "{507, 750}";
},
{
name = topleft;
position = "{16, 750}";
}
);
layerId = "B909D2E0-37C2-42CE-B4A7-1FA9A56E9D28";
paths = (
{
closed = 1;
nodes = (
"594 646 OFFCURVE",
"598 554 OFFCURVE",
"598 462 CURVE SMOOTH",
"598 447 OFFCURVE",
"590 437 OFFCURVE",
"575 437 CURVE SMOOTH",
"428 437 LINE SMOOTH",
"417 437 OFFCURVE",
"412 445 OFFCURVE",
"412 455 CURVE SMOOTH",
"412 546 OFFCURVE",
"419 643 OFFCURVE",
"429 731 CURVE",
"64 731 LINE",
"65 687 OFFCURVE",
"66 642 OFFCURVE",
"66 597 CURVE SMOOTH",
"66 407 OFFCURVE",
"39 201 OFFCURVE",
"39 21 CURVE",
"418 21 LINE",
"413 93 OFFCURVE",
"412 168 OFFCURVE",
"412 241 CURVE SMOOTH",
"412 255 OFFCURVE",
"417 265 OFFCURVE",
"428 265 CURVE SMOOTH",
"575 265 LINE SMOOTH",
"590 265 OFFCURVE",
"598 255 OFFCURVE",
"598 241 CURVE SMOOTH",
"598 168 OFFCURVE",
"597 94 OFFCURVE",
"594 21 CURVE",
"965 21 LINE",
"959 134 OFFCURVE",
"957 251 OFFCURVE",
"957 367 CURVE SMOOTH",
"957 490 OFFCURVE",
"960 614 OFFCURVE",
"956 731 CURVE",
"587 731 LINE"
);
}
);
width = 1006.15493;
}
);
leftKerningGroup = H;
rightKerningGroup = H;
unicode = 0048;
},
{
color = 3;
glyphname = Hbar;
lastChange = "2021-10-28 08:58:29 +0000";
layers = (
{
components = (
{
name = H;
transform = "{1, 0, 0, 1, 40, 0}";
}
);
layerId = "F6D8640C-383C-48A8-B63C-DDE9F10207CE";
paths = (
{
closed = 1;
nodes = (
"1084 559 LINE",
"1084 647 LINE",
"6 647 LINE",
"6 559 LINE"
);
}
);
width = 1090;
},
{
components = (
{
name = H;
transform = "{1, 0, 0, 1, 31, 0}";
}
);
layerId = "96858A69-C8A6-410B-90BB-94EA0DA45935";
paths = (
{
closed = 1;
nodes = (
"924 540 LINE",
"924 546 LINE",
"210 546 LINE",
"210 540 LINE"
);
}
);
width = 1088;
},
{
components = (
{
alignment = -1;
name = H;
transform = "{1, 0, 0, 1, 38, 0}";
}
);
layerId = "5E5EA508-9E29-4BB2-A27E-EC4DBE9F737B";
paths = (
{
closed = 1;
nodes = (
"1050 555 LINE",
"1050 626 LINE",
"49 626 LINE",
"49 555 LINE"
);
}
);
width = 1089.57746;
},
{
components = (
{
alignment = -1;
name = H;
transform = "{1, 0, 0, 1, 38, 0}";
}
);
layerId = "B909D2E0-37C2-42CE-B4A7-1FA9A56E9D28";
paths = (
{
closed = 1;
nodes = (
"1055 556 LINE",
"1055 629 LINE",
"43 629 LINE",
"43 556 LINE"
);
}
);
width = 1089.6338;
}
);
leftKerningGroup = H;
rightKerningGroup = H;
unicode = 0126;
},
{
color = 6;
glyphname = I;
lastChange = "2021-10-28 08:58:29 +0000";
layers = (
{
anchors = (
{
name = bottom;
position = "{228, 0}";
},
{
name = ogonek;
position = "{370, 0}";
},
{
name = top;
position = "{228, 750}";
},
{
name = topleft;
position = "{20, 750}";
}
);
layerId = "F6D8640C-383C-48A8-B63C-DDE9F10207CE";
paths = (
{
closed = 1;
nodes = (
"435 0 LINE",
"435 121 OFFCURVE",
"435 242 OFFCURVE",
"435 363 CURVE SMOOTH",
"435 492 OFFCURVE",
"435 621 OFFCURVE",
"435 750 CURVE",
"20 750 LINE",
"20 692 OFFCURVE",
"20 634 OFFCURVE",
"20 576 CURVE SMOOTH",
"20 384 OFFCURVE",
"20 192 OFFCURVE",
"20 0 CURVE"
);
}
);
width = 455;
},
{
anchors = (
{
name = bottom;
position = "{231, 0}";
},
{
name = ogonek;
position = "{339, 115}";
},
{
name = top;
position = "{231, 750}";
},
{
name = topleft;
position = "{35, 750}";
}
);
layerId = "96858A69-C8A6-410B-90BB-94EA0DA45935";
paths = (
{
closed = 1;
nodes = (
"349 115 LINE",
"315 144 OFFCURVE",
"268 202 OFFCURVE",
"268 352 CURVE SMOOTH",
"268 424 OFFCURVE",
"276 522 OFFCURVE",
"299 645 CURVE",
"161 645 LINE",
"166 614 OFFCURVE",
"169 581 OFFCURVE",
"169 549 CURVE SMOOTH",
"169 382 OFFCURVE",
"111 209 OFFCURVE",
"129 115 CURVE"
);
}
);
width = 442;
},
{
anchors = (
{
name = bottom;
position = "{229, 0}";
},
{
name = ogonek;
position = "{363, 24}";
},
{
name = top;
position = "{229, 750}";
},
{
name = topleft;
position = "{23, 750}";
}
);
layerId = "5E5EA508-9E29-4BB2-A27E-EC4DBE9F737B";
paths = (
{
closed = 1;
nodes = (
"417 24 LINE",
"410 126 OFFCURVE",
"400 234 OFFCURVE",
"400 361 CURVE SMOOTH",
"400 478 OFFCURVE",
"401 600 OFFCURVE",
"406 728 CURVE",
"50 728 LINE",
"51 676 OFFCURVE",
"51 623 OFFCURVE",
"51 570 CURVE SMOOTH",
"51 384 OFFCURVE",
"39 196 OFFCURVE",
"43 24 CURVE"
);
}
);
width = 452.25352;
},
{
anchors = (
{
name = bottom;
position = "{229, 0}";
},
{
name = ogonek;
position = "{364, 21}";
},
{
name = top;
position = "{229, 750}";
},
{
name = topleft;
position = "{23, 750}";
}
);
layerId = "B909D2E0-37C2-42CE-B4A7-1FA9A56E9D28";
paths = (
{
closed = 1;
nodes = (
"419 21 LINE",
"413 125 OFFCURVE",
"405 235 OFFCURVE",
"405 361 CURVE SMOOTH",
"405 480 OFFCURVE",
"406 603 OFFCURVE",
"410 731 CURVE",
"46 731 LINE",
"47 678 OFFCURVE",
"47 624 OFFCURVE",
"47 571 CURVE SMOOTH",
"47 384 OFFCURVE",
"36 195 OFFCURVE",
"40 21 CURVE"
);
}
);
width = 452.61972;
}
);
leftKerningGroup = H;
rightKerningGroup = H;
unicode = 0049;
},
{
color = 6;
glyphname = IJ;
lastChange = "2021-10-28 08:58:29 +0000";
layers = (
{
layerId = "96858A69-C8A6-410B-90BB-94EA0DA45935";
name = "2050";
paths = (
{
closed = 1;
nodes = (
"163 148 LINE",
"248 124 OFFCURVE",
"389 108 OFFCURVE",
"498 108 CURVE SMOOTH",
"661 108 OFFCURVE",
"794 115 OFFCURVE",
"794 180 CURVE SMOOTH",
"794 252 OFFCURVE",
"708 330 OFFCURVE",
"708 459 CURVE SMOOTH",
"708 512 OFFCURVE",
"722 573 OFFCURVE",
"762 645 CURVE",
"610 645 LINE",
"630 569 OFFCURVE",
"661 438 OFFCURVE",
"661 326 CURVE SMOOTH",
"661 211 OFFCURVE",
"628 113 OFFCURVE",
"517 113 CURVE SMOOTH",
"368 113 OFFCURVE",
"303 167 OFFCURVE",
"206 262 CURVE"
);
},
{
closed = 1;
nodes = (
"366 403 LINE",
"321 433 OFFCURVE",
"290 472 OFFCURVE",
"290 527 CURVE SMOOTH",
"290 560 OFFCURVE",
"302 599 OFFCURVE",
"330 645 CURVE",
"211 645 LINE",
"228 621 OFFCURVE",
"234 600 OFFCURVE",
"234 580 CURVE SMOOTH",
"234 512 OFFCURVE",
"171 464 OFFCURVE",
"183 403 CURVE"
);
}
);
width = 958;
},
{
layerId = "F6D8640C-383C-48A8-B63C-DDE9F10207CE";
name = Regular;
paths = (
{
closed = 1;
nodes = (
"20 41 LINE",
"102 0 OFFCURVE",
"254 -26 OFFCURVE",
"390 -26 CURVE SMOOTH",
"699 -26 OFFCURVE",
"926 94 OFFCURVE",
"926 293 CURVE SMOOTH",
"926 325 OFFCURVE",
"926 401 OFFCURVE",
"926 482 CURVE SMOOTH",
"926 580 OFFCURVE",
"926 688 OFFCURVE",
"926 750 CURVE",
"511 750 LINE",
"511 717 OFFCURVE",
"511 471 OFFCURVE",
"511 396 CURVE SMOOTH",
"511 326 OFFCURVE",
"434 295 OFFCURVE",
"287 295 CURVE SMOOTH",
"173 295 OFFCURVE",
"70 319 OFFCURVE",
"20 363 CURVE"
);
},
{
closed = 1;
nodes = (
"435 366 LINE",
"435 423 OFFCURVE",
"435 495 OFFCURVE",
"435 550 CURVE SMOOTH",
"435 624 OFFCURVE",
"435 682 OFFCURVE",
"435 750 CURVE",
"20 750 LINE",
"20 702 OFFCURVE",
"20 651 OFFCURVE",
"20 598 CURVE SMOOTH",
"20 532 OFFCURVE",
"20 443 OFFCURVE",
"20 366 CURVE"
);
}
);
width = 945;
},
{
layerId = "5E5EA508-9E29-4BB2-A27E-EC4DBE9F737B";
name = Regular;
paths = (
{
closed = 1;
nodes = (
"50 64 LINE",
"133 26 OFFCURVE",
"283 2 OFFCURVE",
"413 2 CURVE SMOOTH",
"691 2 OFFCURVE",
"898 98 OFFCURVE",
"898 269 CURVE SMOOTH",
"898 310 OFFCURVE",
"880 386 OFFCURVE",
"880 477 CURVE SMOOTH",
"880 566 OFFCURVE",
"883 664 OFFCURVE",
"891 728 CURVE",
"532 728 LINE",
"536 686 OFFCURVE",
"543 464 OFFCURVE",
"543 381 CURVE SMOOTH",
"543 302 OFFCURVE",
"475 257 OFFCURVE",
"336 257 CURVE SMOOTH",
"214 257 OFFCURVE",
"119 287 OFFCURVE",
"59 342 CURVE"
);
},
{
closed = 1;
nodes = (
"420 374 LINE",
"411 425 OFFCURVE",
"404 490 OFFCURVE",
"404 545 CURVE SMOOTH",
"404 610 OFFCURVE",
"407 664 OFFCURVE",
"413 728 CURVE",
"60 728 LINE",
"64 685 OFFCURVE",
"65 640 OFFCURVE",
"65 594 CURVE SMOOTH",
"65 528 OFFCURVE",
"52 447 OFFCURVE",
"54 374 CURVE"
);
}
);
width = 947.74648;
},
{
layerId = "B909D2E0-37C2-42CE-B4A7-1FA9A56E9D28";
name = Regular;
paths = (
{
closed = 1;
nodes = (
"46 61 LINE",
"129 23 OFFCURVE",
"279 -2 OFFCURVE",
"410 -2 CURVE SMOOTH",
"692 -2 OFFCURVE",
"902 97 OFFCURVE",
"902 272 CURVE SMOOTH",
"902 312 OFFCURVE",
"886 388 OFFCURVE",
"886 478 CURVE SMOOTH",
"886 568 OFFCURVE",
"889 667 OFFCURVE",
"896 731 CURVE",
"529 731 LINE",
"533 690 OFFCURVE",
"539 465 OFFCURVE",
"539 383 CURVE SMOOTH",
"539 305 OFFCURVE",
"470 262 OFFCURVE",
"329 262 CURVE SMOOTH",
"209 262 OFFCURVE",
"112 291 OFFCURVE",
"54 345 CURVE"
);
},
{
closed = 1;
nodes = (
"422 373 LINE",
"414 425 OFFCURVE",
"408 491 OFFCURVE",
"408 546 CURVE SMOOTH",
"408 612 OFFCURVE",
"411 666 OFFCURVE",
"416 731 CURVE",
"55 731 LINE",
"58 687 OFFCURVE",
"59 641 OFFCURVE",
"59 595 CURVE SMOOTH",
"59 529 OFFCURVE",
"48 446 OFFCURVE",
"49 373 CURVE"
);
}
);
width = 947.38028;
}
);
leftKerningGroup = H;
rightKerningGroup = J;
unicode = 0132;
},
{
color = 6;
glyphname = Iogonek;
lastChange = "2021-10-28 08:58:29 +0000";
layers = (
{
layerId = "96858A69-C8A6-410B-90BB-94EA0DA45935";
paths = (
{
closed = 1;
nodes = (
"273 -105 OFFCURVE",
"319 -77 OFFCURVE",
"347 -34 CURVE",
"347 -33 LINE",
"342 -34 OFFCURVE",
"338 -34 OFFCURVE",
"333 -34 CURVE SMOOTH",
"296 -34 OFFCURVE",
"266 -10 OFFCURVE",
"266 22 CURVE SMOOTH",
"266 50 OFFCURVE",
"285 83 OFFCURVE",
"349 115 CURVE",
"312 147 OFFCURVE",
"268 202 OFFCURVE",
"268 359 CURVE SMOOTH",
"268 429 OFFCURVE",
"276 522 OFFCURVE",
"299 645 CURVE",
"161 645 LINE",
"166 614 OFFCURVE",
"169 581 OFFCURVE",
"169 549 CURVE SMOOTH",
"169 382 OFFCURVE",
"111 209 OFFCURVE",
"129 115 CURVE",
"486 98 OFFCURVE",
"133 54 OFFCURVE",
"133 -45 CURVE SMOOTH",
"133 -77 OFFCURVE",
"162 -105 OFFCURVE",
"218 -105 CURVE SMOOTH"
);
}
);
width = 442;
},
{
layerId = "F6D8640C-383C-48A8-B63C-DDE9F10207CE";
name = Regular;
paths = (
{
closed = 1;
nodes = (
"297 -308 OFFCURVE",
"338 -300 OFFCURVE",
"390 -285 CURVE",
"390 -89 LINE",
"364 -101 OFFCURVE",
"343 -105 OFFCURVE",
"317 -105 CURVE SMOOTH",
"278 -105 OFFCURVE",
"255 -94 OFFCURVE",
"255 -70 CURVE SMOOTH",
"255 -42 OFFCURVE",
"284 -5 OFFCURVE",
"435 0 CURVE",
"435 121 OFFCURVE",
"435 242 OFFCURVE",
"435 363 CURVE SMOOTH",
"435 492 OFFCURVE",
"435 621 OFFCURVE",
"435 750 CURVE",
"20 750 LINE",
"20 693 OFFCURVE",
"20 633 OFFCURVE",
"20 576 CURVE SMOOTH",
"20 383 OFFCURVE",
"20 193 OFFCURVE",
"20 0 CURVE",
"0 -44 OFFCURVE",
"-8 -85 OFFCURVE",
"-8 -126 CURVE SMOOTH",
"-8 -247 OFFCURVE",
"74 -308 OFFCURVE",
"238 -308 CURVE SMOOTH"
);
}
);
visible = 1;
width = 455;
},
{
layerId = "5E5EA508-9E29-4BB2-A27E-EC4DBE9F737B";
name = Regular;
paths = (
{
closed = 1;
nodes = (
"292 -265 OFFCURVE",
"334 -253 OFFCURVE",
"381 -232 CURVE",
"381 -77 LINE",
"359 -87 OFFCURVE",
"342 -90 OFFCURVE",
"320 -90 CURVE SMOOTH",
"282 -90 OFFCURVE",
"257 -76 OFFCURVE",
"257 -51 CURVE SMOOTH",
"257 -23 OFFCURVE",
"284 14 OFFCURVE",
"417 24 CURVE",
"409 126 OFFCURVE",
"400 234 OFFCURVE",
"400 362 CURVE SMOOTH",
"400 479 OFFCURVE",
"401 600 OFFCURVE",
"406 728 CURVE",
"50 728 LINE",
"51 676 OFFCURVE",
"51 622 OFFCURVE",
"51 570 CURVE SMOOTH",
"51 383 OFFCURVE",
"39 196 OFFCURVE",
"43 24 CURVE",
"103 -14 OFFCURVE",
"22 -56 OFFCURVE",
"22 -109 CURVE SMOOTH",
"22 -211 OFFCURVE",
"93 -265 OFFCURVE",
"234 -265 CURVE SMOOTH"
);
}
);
width = 452.25352;
},
{
layerId = "B909D2E0-37C2-42CE-B4A7-1FA9A56E9D28";
name = Regular;
paths = (
{
closed = 1;
nodes = (
"293 -271 OFFCURVE",
"335 -259 OFFCURVE",
"382 -239 CURVE",
"382 -79 LINE",
"360 -89 OFFCURVE",
"342 -92 OFFCURVE",
"320 -92 CURVE SMOOTH",
"281 -92 OFFCURVE",
"257 -78 OFFCURVE",
"257 -54 CURVE SMOOTH",
"257 -26 OFFCURVE",
"284 11 OFFCURVE",
"419 21 CURVE",
"412 125 OFFCURVE",
"405 235 OFFCURVE",
"405 362 CURVE SMOOTH",
"405 481 OFFCURVE",
"406 603 OFFCURVE",
"410 731 CURVE",
"46 731 LINE",
"47 678 OFFCURVE",
"47 623 OFFCURVE",
"47 571 CURVE SMOOTH",
"47 383 OFFCURVE",
"36 196 OFFCURVE",
"40 21 CURVE",
"89 -18 OFFCURVE",
"18 -60 OFFCURVE",
"18 -111 CURVE SMOOTH",
"18 -216 OFFCURVE",
"90 -271 OFFCURVE",
"235 -271 CURVE SMOOTH"
);
}
);
width = 452.61972;
}
);
leftKerningGroup = H;
rightKerningGroup = H;
rightMetricsKey = I;
unicode = 012E;
},
{
color = 6;
glyphname = J;
lastChange = "2021-10-28 08:58:29 +0000";
layers = (
{
anchors = (
{
name = bottom;
position = "{306, 0}";
},
{
name = top;
position = "{360, 750}";
}
);
layerId = "96858A69-C8A6-410B-90BB-94EA0DA45935";
paths = (
{
closed = 1;
nodes = (
"54 98 LINE",
"101 106 OFFCURVE",
"173 111 OFFCURVE",
"274 111 CURVE SMOOTH",
"416 111 OFFCURVE",
"533 82 OFFCURVE",
"533 180 CURVE SMOOTH",
"533 260 OFFCURVE",
"395 355 OFFCURVE",
"395 508 CURVE SMOOTH",
"395 549 OFFCURVE",
"405 595 OFFCURVE",
"430 645 CURVE",
"278 645 LINE",
"303 547 OFFCURVE",
"386 359 OFFCURVE",
"386 236 CURVE SMOOTH",
"386 166 OFFCURVE",
"359 116 OFFCURVE",
"280 116 CURVE SMOOTH",
"200 116 OFFCURVE",
"157 168 OFFCURVE",
"94 246 CURVE"
);
}
);
width = 647;
},
{
anchors = (
{
name = bottom;
position = "{388, 0}";
},
{
name = top;
position = "{388, 750}";
}
);
background = {
components = (
{
name = U;
transform = "{1, 0, 0, 1, -408, 0}";
}
);
};
layerId = "F6D8640C-383C-48A8-B63C-DDE9F10207CE";
name = Regular;
paths = (
{
closed = 1;
nodes = (
"14 34 LINE",
"79 -5 OFFCURVE",
"160 -19 OFFCURVE",
"251 -19 CURVE SMOOTH",
"422 -19 OFFCURVE",
"593 60 OFFCURVE",
"593 291 CURVE SMOOTH",
"593 308 OFFCURVE",
"593 411 OFFCURVE",
"593 519 CURVE SMOOTH",
"593 607 OFFCURVE",
"593 698 OFFCURVE",
"593 750 CURVE",
"178 750 LINE",
"178 717 OFFCURVE",
"178 412 OFFCURVE",
"178 382 CURVE SMOOTH",
"178 339 OFFCURVE",
"145 320 OFFCURVE",
"104 320 CURVE SMOOTH",
"75 320 OFFCURVE",
"41 330 OFFCURVE",
"14 347 CURVE"
);
}
);
visible = 1;
width = 613;
},
{
anchors = (
{
name = bottom;
position = "{371, 0}";
},
{
name = top;
position = "{382, 750}";
}
);
layerId = "5E5EA508-9E29-4BB2-A27E-EC4DBE9F737B";
name = Regular;
paths = (
{
closed = 1;
nodes = (
"22 48 LINE",
"84 18 OFFCURVE",
"163 8 OFFCURVE",
"256 8 CURVE SMOOTH",
"421 8 OFFCURVE",
"580 65 OFFCURVE",
"580 268 CURVE SMOOTH",
"580 298 OFFCURVE",
"551 399 OFFCURVE",
"551 517 CURVE SMOOTH",
"551 595 OFFCURVE",
"553 676 OFFCURVE",
"559 728 CURVE",
"199 728 LINE",
"204 681 OFFCURVE",
"222 401 OFFCURVE",
"222 351 CURVE SMOOTH",
"222 302 OFFCURVE",
"190 277 OFFCURVE",
"141 277 CURVE SMOOTH",
"101 277 OFFCURVE",
"66 296 OFFCURVE",
"31 326 CURVE"
);
}
);
width = 620.1831;
},
{
anchors = (
{
name = bottom;
position = "{373, 0}";
},
{
name = top;
position = "{383, 750}";
}
);
layerId = "B909D2E0-37C2-42CE-B4A7-1FA9A56E9D28";
name = Regular;
paths = (
{
closed = 1;
nodes = (
"21 46 LINE",
"83 15 OFFCURVE",
"163 4 OFFCURVE",
"255 4 CURVE SMOOTH",
"421 4 OFFCURVE",
"582 64 OFFCURVE",
"582 271 CURVE SMOOTH",
"582 299 OFFCURVE",
"557 401 OFFCURVE",
"557 517 CURVE SMOOTH",
"557 597 OFFCURVE",
"558 679 OFFCURVE",
"564 731 CURVE",
"196 731 LINE",
"201 686 OFFCURVE",
"216 402 OFFCURVE",
"216 355 CURVE SMOOTH",
"216 307 OFFCURVE",
"184 283 OFFCURVE",
"136 283 CURVE SMOOTH",
"98 283 OFFCURVE",
"63 301 OFFCURVE",
"29 329 CURVE"
);
}
);
width = 619.22535;
}
);
leftKerningGroup = J;
rightKerningGroup = J;
unicode = 004A;
},
{
color = 6;
glyphname = K;
lastChange = "2021-10-28 08:58:29 +0000";
layers = (
{
anchors = (
{
name = bottom;
position = "{496, 0}";
},
{
name = top;
position = "{496, 750}";
}
);
background = {
paths = (
{
closed = 1;
nodes = (
"747 361 LINE",
"732 392 OFFCURVE",
"733 429 OFFCURVE",
"748 460 CURVE",
"840 645 LINE",
"653 645 LINE",
"545 384 LINE",
"645 125 LINE",
"856 125 LINE"
);
},
{
closed = 1;
nodes = (
"306 645 LINE",
"121 645 LINE",
"121 125 LINE",
"306 125 LINE"
);
}
);
};
layerId = "96858A69-C8A6-410B-90BB-94EA0DA45935";
paths = (
{
closed = 1;
nodes = (
"854 115 LINE",
"854 188 OFFCURVE",
"677 315 OFFCURVE",
"677 403 CURVE SMOOTH",
"677 457 OFFCURVE",
"727 523 OFFCURVE",
"823 645 CURVE",
"686 645 LINE",
"730 548 OFFCURVE",
"744 476 OFFCURVE",
"578 384 CURVE",
"682 115 LINE"
);
},
{
closed = 1;
nodes = (
"376 115 LINE",
"327 191 OFFCURVE",
"316 268 OFFCURVE",
"316 304 CURVE SMOOTH",
"316 332 OFFCURVE",
"327 381 OFFCURVE",
"374 381 CURVE",
"324 381 OFFCURVE",
"315 412 OFFCURVE",
"315 447 CURVE SMOOTH",
"315 496 OFFCURVE",
"376 596 OFFCURVE",
"376 645 CURVE",
"246 645 LINE",
"253 624 OFFCURVE",
"256 601 OFFCURVE",
"256 576 CURVE SMOOTH",
"256 430 OFFCURVE",
"151 232 OFFCURVE",
"151 115 CURVE"
);
}
);
width = 1033;
},
{
anchors = (
{
name = bottom;
position = "{515, 0}";
},
{
name = top;
position = "{525, 750}";
}
);
layerId = "F6D8640C-383C-48A8-B63C-DDE9F10207CE";
paths = (
{
closed = 1;
nodes = (
"1050 0 LINE",
"988 133 OFFCURVE",
"865 399 OFFCURVE",
"865 400 CURVE SMOOTH",
"865 400 OFFCURVE",
"982 633 OFFCURVE",
"1040 750 CURVE",
"590 750 LINE",
"538 625 OFFCURVE",
"487 500 OFFCURVE",
"435 375 CURVE",
"580 0 LINE"
);
},
{
closed = 1;
nodes = (
"435 0 LINE",
"435 123 OFFCURVE",
"435 245 OFFCURVE",
"435 368 CURVE SMOOTH",
"435 370 OFFCURVE",
"435 373 OFFCURVE",
"435 375 CURVE",
"435 377 OFFCURVE",
"435 380 OFFCURVE",
"435 382 CURVE SMOOTH",
"435 505 OFFCURVE",
"435 627 OFFCURVE",
"435 750 CURVE",
"20 750 LINE",
"20 695 OFFCURVE",
"20 641 OFFCURVE",
"20 586 CURVE SMOOTH",
"20 391 OFFCURVE",
"20 195 OFFCURVE",
"20 0 CURVE"
);
}
);
width = 1049;
},
{
anchors = (
{
name = bottom;
position = "{511, 0}";
},
{
name = top;
position = "{519, 750}";
}
);
layerId = "5E5EA508-9E29-4BB2-A27E-EC4DBE9F737B";
paths = (
{
closed = 1;
nodes = (
"1009 24 LINE",
"960 145 OFFCURVE",
"825 381 OFFCURVE",
"825 401 CURVE SMOOTH",
"825 412 OFFCURVE",
"928 610 OFFCURVE",
"994 728 CURVE",
"610 728 LINE",
"579 609 OFFCURVE",
"541 495 OFFCURVE",
"465 377 CURVE",
"602 24 LINE"
);
},
{
closed = 1;
nodes = (
"423 24 LINE",
"412 137 OFFCURVE",
"410 250 OFFCURVE",
"410 354 CURVE SMOOTH",
"410 362 OFFCURVE",
"412 375 OFFCURVE",
"422 376 CURVE",
"412 378 OFFCURVE",
"410 387 OFFCURVE",
"410 396 CURVE SMOOTH",
"410 503 OFFCURVE",
"423 620 OFFCURVE",
"423 728 CURVE",
"68 728 LINE",
"69 680 OFFCURVE",
"70 633 OFFCURVE",
"70 584 CURVE SMOOTH",
"70 399 OFFCURVE",
"48 203 OFFCURVE",
"48 24 CURVE"
);
}
);
width = 1045.61972;
},
{
anchors = (
{
name = bottom;
position = "{512, 0}";
},
{
name = top;
position = "{520, 750}";
}
);
layerId = "B909D2E0-37C2-42CE-B4A7-1FA9A56E9D28";
paths = (
{
closed = 1;
nodes = (
"1014 21 LINE",
"964 143 OFFCURVE",
"830 383 OFFCURVE",
"830 401 CURVE SMOOTH",
"830 410 OFFCURVE",
"935 613 OFFCURVE",
"1000 731 CURVE",
"607 731 LINE",
"574 611 OFFCURVE",
"534 496 OFFCURVE",
"461 377 CURVE",
"599 21 LINE"
);
},
{
closed = 1;
nodes = (
"425 21 LINE",
"415 135 OFFCURVE",
"413 249 OFFCURVE",
"413 356 CURVE SMOOTH",
"413 363 OFFCURVE",
"415 375 OFFCURVE",
"424 376 CURVE",
"415 378 OFFCURVE",
"413 386 OFFCURVE",
"413 394 CURVE SMOOTH",
"413 503 OFFCURVE",
"425 621 OFFCURVE",
"425 731 CURVE",
"62 731 LINE",
"62 682 OFFCURVE",
"63 634 OFFCURVE",
"63 584 CURVE SMOOTH",
"63 398 OFFCURVE",
"44 202 OFFCURVE",
"44 21 CURVE"
);
}
);
width = 1046.07042;
}
);
leftKerningGroup = H;
rightKerningGroup = K;
unicode = 004B;
},
{
color = 6;
glyphname = Khook;
lastChange = "2021-10-28 08:58:29 +0000";
layers = (
{
anchors = (
{
name = bottom;
position = "{496, 0}";
},
{
name = top;
position = "{496, 750}";
}
);
layerId = "96858A69-C8A6-410B-90BB-94EA0DA45935";
paths = (
{
closed = 1;
nodes = (
"854 115 LINE",
"854 188 OFFCURVE",
"677 325 OFFCURVE",
"677 438 CURVE SMOOTH",
"677 491 OFFCURVE",
"690 540 OFFCURVE",
"714 566 CURVE SMOOTH",
"750 604 OFFCURVE",
"815 571 OFFCURVE",
"851 571 CURVE SMOOTH",
"854 571 OFFCURVE",
"857 571 OFFCURVE",
"860 571 CURVE",
"860 645 LINE",
"858 645 OFFCURVE",
"856 645 OFFCURVE",
"854 645 CURVE SMOOTH",
"811 645 OFFCURVE",
"737 618 OFFCURVE",
"682 539 CURVE SMOOTH",
"652 495 OFFCURVE",
"616 447 OFFCURVE",
"578 384 CURVE",
"682 115 LINE"
);
},
{
closed = 1;
nodes = (
"376 115 LINE",
"327 191 OFFCURVE",
"316 268 OFFCURVE",
"316 304 CURVE SMOOTH",
"316 332 OFFCURVE",
"327 381 OFFCURVE",
"374 381 CURVE",
"324 381 OFFCURVE",
"315 412 OFFCURVE",
"315 447 CURVE SMOOTH",
"315 496 OFFCURVE",
"376 596 OFFCURVE",
"376 645 CURVE",
"246 645 LINE",
"253 624 OFFCURVE",
"256 601 OFFCURVE",
"256 576 CURVE SMOOTH",
"256 430 OFFCURVE",
"151 232 OFFCURVE",
"151 115 CURVE"
);
}
);
width = 1033;
},
{
anchors = (
{
name = bottom;
position = "{515, 0}";
},
{
name = top;
position = "{525, 750}";
}
);
layerId = "F6D8640C-383C-48A8-B63C-DDE9F10207CE";
name = Regular;
paths = (
{
closed = 1;
nodes = (
"1050 0 LINE",
"988 133 OFFCURVE",
"865 399 OFFCURVE",
"865 400 CURVE",
"879 428 OFFCURVE",
"893 456 OFFCURVE",
"904 478 CURVE SMOOTH",
"920 510 OFFCURVE",
"942 523 OFFCURVE",
"977 523 CURVE SMOOTH",
"1004 523 OFFCURVE",
"1035 515 OFFCURVE",
"1041 507 CURVE",
"1042 751 LINE",
"1002 765 OFFCURVE",
"913 777 OFFCURVE",
"833 777 CURVE SMOOTH",
"702 777 OFFCURVE",
"586 740 OFFCURVE",
"535 617 CURVE SMOOTH",
"507 551 OFFCURVE",
"471 463 OFFCURVE",
"435 375 CURVE",
"580 0 LINE"
);
},
{
closed = 1;
nodes = (
"435 0 LINE",
"435 123 OFFCURVE",
"435 245 OFFCURVE",
"435 368 CURVE SMOOTH",
"435 370 OFFCURVE",
"435 373 OFFCURVE",
"435 375 CURVE",
"435 377 OFFCURVE",
"435 380 OFFCURVE",
"435 382 CURVE SMOOTH",
"435 505 OFFCURVE",
"435 627 OFFCURVE",
"435 750 CURVE",
"20 750 LINE",
"20 695 OFFCURVE",
"20 641 OFFCURVE",
"20 586 CURVE SMOOTH",
"20 391 OFFCURVE",
"20 195 OFFCURVE",
"20 0 CURVE"
);
}
);
width = 1049;
},
{
anchors = (
{
name = bottom;
position = "{511, 0}";
},
{
name = top;
position = "{519, 750}";
}
);
layerId = "5E5EA508-9E29-4BB2-A27E-EC4DBE9F737B";
name = Regular;
paths = (
{
closed = 1;
nodes = (
"1009 24 LINE",
"960 145 OFFCURVE",
"825 383 OFFCURVE",
"825 408 CURVE",
"836 441 OFFCURVE",
"850 474 OFFCURVE",
"864 497 CURVE SMOOTH",
"884 530 OFFCURVE",
"915 533 OFFCURVE",
"950 533 CURVE SMOOTH",
"972 533 OFFCURVE",
"997 527 OFFCURVE",
"1003 521 CURVE",
"1004 729 LINE",
"972 740 OFFCURVE",
"901 749 OFFCURVE",
"837 749 CURVE SMOOTH",
"725 749 OFFCURVE",
"618 714 OFFCURVE",
"566 601 CURVE SMOOTH",
"538 539 OFFCURVE",
"502 460 OFFCURVE",
"465 377 CURVE",
"602 24 LINE"
);
},
{
closed = 1;
nodes = (
"423 24 LINE",
"412 137 OFFCURVE",
"410 250 OFFCURVE",
"410 354 CURVE SMOOTH",
"410 362 OFFCURVE",
"412 375 OFFCURVE",
"422 376 CURVE",
"412 378 OFFCURVE",
"410 387 OFFCURVE",
"410 396 CURVE SMOOTH",
"410 503 OFFCURVE",
"423 620 OFFCURVE",
"423 728 CURVE",
"68 728 LINE",
"69 680 OFFCURVE",
"70 633 OFFCURVE",
"70 584 CURVE SMOOTH",
"70 399 OFFCURVE",
"48 203 OFFCURVE",
"48 24 CURVE"
);
}
);
width = 1045.61972;
},
{
anchors = (
{
name = bottom;
position = "{512, 0}";
},
{
name = top;
position = "{520, 750}";
}
);
layerId = "B909D2E0-37C2-42CE-B4A7-1FA9A56E9D28";
name = Regular;
paths = (
{
closed = 1;
nodes = (
"1014 21 LINE",
"964 143 OFFCURVE",
"830 385 OFFCURVE",
"830 407 CURVE",
"842 439 OFFCURVE",
"856 472 OFFCURVE",
"869 494 CURVE SMOOTH",
"889 527 OFFCURVE",
"919 532 OFFCURVE",
"954 532 CURVE SMOOTH",
"976 532 OFFCURVE",
"1002 525 OFFCURVE",
"1008 519 CURVE",
"1009 732 LINE",
"976 743 OFFCURVE",
"903 753 OFFCURVE",
"836 753 CURVE SMOOTH",
"722 753 OFFCURVE",
"614 717 OFFCURVE",
"562 603 CURVE SMOOTH",
"534 541 OFFCURVE",
"498 460 OFFCURVE",
"461 377 CURVE",
"599 21 LINE"
);
},
{
closed = 1;
nodes = (
"425 21 LINE",
"415 135 OFFCURVE",
"413 249 OFFCURVE",
"413 356 CURVE SMOOTH",
"413 363 OFFCURVE",
"415 375 OFFCURVE",
"424 376 CURVE",
"415 378 OFFCURVE",
"413 386 OFFCURVE",
"413 394 CURVE SMOOTH",
"413 503 OFFCURVE",
"425 621 OFFCURVE",
"425 731 CURVE",
"62 731 LINE",
"62 682 OFFCURVE",
"63 634 OFFCURVE",
"63 584 CURVE SMOOTH",
"63 398 OFFCURVE",
"44 202 OFFCURVE",
"44 21 CURVE"
);
}
);
width = 1046.07042;
}
);
leftKerningGroup = H;
rightKerningGroup = Khook;
unicode = 0198;
},
{
color = 6;
glyphname = L;
lastChange = "2021-10-28 08:58:29 +0000";
layers = (
{
anchors = (
{
name = bottom;
position = "{420, 0}";
},
{
name = center;
position = "{420, 375}";
},
{
name = top;
position = "{182, 750}";
},
{
name = topright;
position = "{477, 620}";
}
);
layerId = "F6D8640C-383C-48A8-B63C-DDE9F10207CE";
paths = (
{
closed = 1;
nodes = (
"435 447 OFFCURVE",
"435 599 OFFCURVE",
"435 750 CURVE",
"20 750 LINE",
"20 666 OFFCURVE",
"20 581 OFFCURVE",
"20 497 CURVE SMOOTH",
"20 331 OFFCURVE",
"20 166 OFFCURVE",
"20 0 CURVE",
"827 0 LINE",
"827 294 LINE",
"437 294 LINE SMOOTH",
"436 294 OFFCURVE",
"435 295 OFFCURVE",
"435 296 CURVE SMOOTH"
);
}
);
width = 840;
},
{
anchors = (
{
name = bottom;
position = "{408, 0}";
},
{
name = center;
position = "{394, 375}";
},
{
name = top;
position = "{259, 750}";
},
{
name = topright;
position = "{530, 620}";
}
);
layerId = "96858A69-C8A6-410B-90BB-94EA0DA45935";
paths = (
{
closed = 1;
nodes = (
"299 346 OFFCURVE",
"351 535 OFFCURVE",
"351 645 CURVE",
"178 645 LINE",
"221 590 OFFCURVE",
"237 533 OFFCURVE",
"237 476 CURVE SMOOTH",
"237 324 OFFCURVE",
"123 180 OFFCURVE",
"120 115 CURVE",
"693 115 LINE",
"693 120 LINE",
"448 120 LINE SMOOTH",
"354 120 OFFCURVE",
"299 150 OFFCURVE",
"299 236 CURVE SMOOTH"
);
}
);
width = 837;
},
{
anchors = (
{
name = bottom;
position = "{417, 0}";
},
{
name = center;
position = "{415, 375}";
},
{
name = top;
position = "{198, 750}";
},
{
name = topright;
position = "{488, 620}";
}
);
layerId = "5E5EA508-9E29-4BB2-A27E-EC4DBE9F737B";
paths = (
{
closed = 1;
nodes = (
"406 426 OFFCURVE",
"417 585 OFFCURVE",
"417 728 CURVE",
"53 728 LINE",
"62 650 OFFCURVE",
"66 571 OFFCURVE",
"66 493 CURVE SMOOTH",
"66 330 OFFCURVE",
"42 169 OFFCURVE",
"41 24 CURVE",
"799 24 LINE",
"799 257 LINE",
"439 257 LINE SMOOTH",
"419 257 OFFCURVE",
"406 264 OFFCURVE",
"406 283 CURVE SMOOTH"
);
}
);
width = 839.3662;
},
{
anchors = (
{
name = bottom;
position = "{417, 0}";
},
{
name = center;
position = "{416, 375}";
},
{
name = top;
position = "{196, 750}";
},
{
name = topright;
position = "{487, 620}";
}
);
layerId = "B909D2E0-37C2-42CE-B4A7-1FA9A56E9D28";
paths = (
{
closed = 1;
nodes = (
"410 429 OFFCURVE",
"419 587 OFFCURVE",
"419 731 CURVE",
"49 731 LINE",
"56 652 OFFCURVE",
"60 572 OFFCURVE",
"60 494 CURVE SMOOTH",
"60 330 OFFCURVE",
"39 169 OFFCURVE",
"38 21 CURVE",
"803 21 LINE",
"803 262 LINE",
"439 262 LINE SMOOTH",
"421 262 OFFCURVE",
"410 268 OFFCURVE",
"410 285 CURVE SMOOTH"
);
}
);
width = 839.4507;
}
);
leftKerningGroup = H;
rightKerningGroup = L;
unicode = 004C;
},
{
color = 3;
glyphname = Ldot;
lastChange = "2021-10-28 08:58:29 +0000";
layers = (
{
components = (
{
name = L;
}
);
layerId = "F6D8640C-383C-48A8-B63C-DDE9F10207CE";
paths = (
{
closed = 1;
nodes = (
"788 354 LINE",
"788 578 LINE",
"517 578 LINE",
"517 354 LINE"
);
}
);
width = 839;
},
{
components = (
{
name = L;
}
);
layerId = "96858A69-C8A6-410B-90BB-94EA0DA45935";
paths = (
{
closed = 1;
nodes = (
"688 407 LINE",
"688 458 LINE",
"599 458 LINE",
"599 407 LINE"
);
}
);
width = 837;
},
{
components = (
{
alignment = -1;
name = L;
}
);
layerId = "5E5EA508-9E29-4BB2-A27E-EC4DBE9F737B";
paths = (
{
closed = 1;
nodes = (
"767 365 LINE",
"767 553 LINE",
"534 553 LINE",
"534 365 LINE"
);
}
);
width = 838.57746;
},
{
components = (
{
alignment = -1;
name = L;
}
);
layerId = "B909D2E0-37C2-42CE-B4A7-1FA9A56E9D28";
paths = (
{
closed = 1;
nodes = (
"770 364 LINE",
"770 556 LINE",
"532 556 LINE",
"532 364 LINE"
);
}
);
width = 838.6338;
}
);
leftKerningGroup = H;
leftMetricsKey = L;
rightKerningGroup = L;
unicode = 013F;
},
{
color = 3;
glyphname = Lslash;
lastChange = "2021-10-28 08:58:29 +0000";
layers = (
{
components = (
{
name = L;
transform = "{1, 0, 0, 1, 76, 0}";
}
);
layerId = "96858A69-C8A6-410B-90BB-94EA0DA45935";
paths = (
{
closed = 1;
nodes = (
"577 482 LINE",
"577 489 LINE",
"174 332 LINE",
"174 325 LINE"
);
}
);
width = 897;
},
{
components = (
{
name = L;
transform = "{1, 0, 0, 1, 56, 0}";
}
);
layerId = "F6D8640C-383C-48A8-B63C-DDE9F10207CE";
paths = (
{
closed = 1;
nodes = (
"645 478 LINE",
"645 575 LINE",
"8 313 LINE",
"8 216 LINE"
);
}
);
width = 895;
},
{
components = (
{
alignment = -1;
name = L;
transform = "{1, 0, 0, 1, 60, 0}";
}
);
layerId = "5E5EA508-9E29-4BB2-A27E-EC4DBE9F737B";
paths = (
{
closed = 1;
nodes = (
"631 479 LINE",
"631 557 LINE",
"43 317 LINE",
"43 239 LINE"
);
}
);
width = 895.42254;
},
{
components = (
{
alignment = -1;
name = L;
transform = "{1, 0, 0, 1, 59, 0}";
}
);
layerId = "B909D2E0-37C2-42CE-B4A7-1FA9A56E9D28";
paths = (
{
closed = 1;
nodes = (
"633 479 LINE",
"633 559 LINE",
"38 316 LINE",
"38 236 LINE"
);
}
);
width = 895.3662;
}
);
leftKerningGroup = Lslash;
rightKerningGroup = L;
unicode = 0141;
},
{
color = 6;
glyphname = M;
lastChange = "2021-10-28 08:58:29 +0000";
layers = (
{
anchors = (
{
name = bottom;
position = "{649, 0}";
},
{
name = top;
position = "{649, 750}";
}
);
background = {
paths = (
{
closed = 1;
nodes = (
"494 635 LINE",
"122 635 LINE",
"122 115 LINE",
"243 115 LINE",
"243 460 LINE",
"243 519 OFFCURVE",
"287 568 OFFCURVE",
"345 575 CURVE",
"404 581 OFFCURVE",
"457 542 OFFCURVE",
"470 485 CURVE",
"550 115 LINE",
"620 115 LINE",
"666 330 LINE",
"660 329 OFFCURVE",
"653 328 OFFCURVE",
"646 328 CURVE",
"592 329 OFFCURVE",
"545 368 OFFCURVE",
"535 422 CURVE"
);
},
{
closed = 1;
nodes = (
"883 571 OFFCURVE",
"928 522 OFFCURVE",
"928 463 CURVE",
"928 115 LINE",
"1110 115 LINE",
"1110 635 LINE",
"805 635 LINE",
"793 577 LINE",
"803 578 OFFCURVE",
"814 579 OFFCURVE",
"825 578 CURVE"
);
}
);
};
layerId = "96858A69-C8A6-410B-90BB-94EA0DA45935";
name = "2050";
paths = (
{
closed = 1;
nodes = (
"811 645 LINE",
"708 337 LINE SMOOTH",
"693 292 OFFCURVE",
"618 302 OFFCURVE",
"581 355 CURVE SMOOTH",
"517 446 OFFCURVE",
"508 561 OFFCURVE",
"536 645 CURVE",
"228 645 LINE",
"232 626 OFFCURVE",
"233 606 OFFCURVE",
"233 586 CURVE SMOOTH",
"233 434 OFFCURVE",
"148 238 OFFCURVE",
"153 115 CURVE",
"347 115 LINE",
"301 197 OFFCURVE",
"268 306 OFFCURVE",
"268 396 CURVE SMOOTH",
"268 639 OFFCURVE",
"536 630 OFFCURVE",
"536 370 CURVE SMOOTH",
"536 255 OFFCURVE",
"517 184 OFFCURVE",
"497 115 CURVE",
"634 115 LINE",
"776 540 LINE SMOOTH",
"796 601 OFFCURVE",
"968 582 OFFCURVE",
"968 288 CURVE SMOOTH",
"968 228 OFFCURVE",
"960 167 OFFCURVE",
"942 115 CURVE",
"1124 115 LINE",
"1124 292 OFFCURVE",
"972 448 OFFCURVE",
"982 645 CURVE"
);
}
);
width = 1246;
},
{
anchors = (
{
name = bottom;
position = "{623, 0}";
},
{
name = top;
position = "{623, 750}";
}
);
layerId = "F6D8640C-383C-48A8-B63C-DDE9F10207CE";
name = Regular;
paths = (
{
closed = 1;
nodes = (
"721 750 LINE",
"641 379 LINE SMOOTH",
"641 377 OFFCURVE",
"639 377 OFFCURVE",
"639 379 CURVE",
"610 503 OFFCURVE",
"582 626 OFFCURVE",
"553 750 CURVE",
"20 750 LINE",
"20 701 OFFCURVE",
"20 652 OFFCURVE",
"20 603 CURVE SMOOTH",
"20 402 OFFCURVE",
"20 201 OFFCURVE",
"20 0 CURVE",
"385 0 LINE",
"385 138 OFFCURVE",
"385 275 OFFCURVE",
"385 413 CURVE",
"385 414 OFFCURVE",
"387 414 OFFCURVE",
"387 413 CURVE",
"420 275 OFFCURVE",
"452 138 OFFCURVE",
"485 0 CURVE",
"740 0 LINE",
"838 416 LINE SMOOTH",
"838 417 OFFCURVE",
"840 417 OFFCURVE",
"840 416 CURVE",
"840 277 OFFCURVE",
"840 139 OFFCURVE",
"840 0 CURVE",
"1225 0 LINE",
"1225 250 OFFCURVE",
"1225 500 OFFCURVE",
"1225 750 CURVE"
);
}
);
width = 1245;
},
{
anchors = (
{
name = bottom;
position = "{628, 0}";
},
{
name = top;
position = "{628, 750}";
}
);
layerId = "5E5EA508-9E29-4BB2-A27E-EC4DBE9F737B";
name = Regular;
paths = (
{
closed = 1;
nodes = (
"740 728 LINE",
"655 370 LINE SMOOTH",
"652 359 OFFCURVE",
"635 361 OFFCURVE",
"627 374 CURVE",
"590 491 OFFCURVE",
"566 612 OFFCURVE",
"549 728 CURVE",
"64 728 LINE",
"65 685 OFFCURVE",
"65 642 OFFCURVE",
"65 599 CURVE SMOOTH",
"65 409 OFFCURVE",
"47 209 OFFCURVE",
"48 24 CURVE",
"377 24 LINE",
"367 150 OFFCURVE",
"360 282 OFFCURVE",
"360 409 CURVE",
"360 462 OFFCURVE",
"418 460 OFFCURVE",
"418 404 CURVE",
"445 271 OFFCURVE",
"466 148 OFFCURVE",
"488 24 CURVE",
"718 24 LINE",
"825 442 LINE SMOOTH",
"829 456 OFFCURVE",
"867 452 OFFCURVE",
"867 389 CURVE",
"867 267 OFFCURVE",
"865 145 OFFCURVE",
"862 24 CURVE",
"1204 24 LINE",
"1204 259 OFFCURVE",
"1172 489 OFFCURVE",
"1174 728 CURVE"
);
}
);
width = 1245.21127;
},
{
anchors = (
{
name = bottom;
position = "{627, 0}";
},
{
name = top;
position = "{627, 750}";
}
);
layerId = "B909D2E0-37C2-42CE-B4A7-1FA9A56E9D28";
name = Regular;
paths = (
{
closed = 1;
nodes = (
"737 731 LINE",
"653 371 LINE SMOOTH",
"651 361 OFFCURVE",
"636 363 OFFCURVE",
"629 375 CURVE",
"593 493 OFFCURVE",
"568 614 OFFCURVE",
"550 731 CURVE",
"58 731 LINE",
"59 687 OFFCURVE",
"59 643 OFFCURVE",
"59 600 CURVE SMOOTH",
"59 408 OFFCURVE",
"43 208 OFFCURVE",
"44 21 CURVE",
"378 21 LINE",
"369 148 OFFCURVE",
"363 281 OFFCURVE",
"363 410 CURVE",
"363 456 OFFCURVE",
"414 454 OFFCURVE",
"414 405 CURVE",
"442 272 OFFCURVE",
"464 147 OFFCURVE",
"488 21 CURVE",
"721 21 LINE",
"827 439 LINE SMOOTH",
"830 451 OFFCURVE",
"863 447 OFFCURVE",
"863 393 CURVE",
"863 268 OFFCURVE",
"862 144 OFFCURVE",
"859 21 CURVE",
"1207 21 LINE",
"1207 258 OFFCURVE",
"1179 490 OFFCURVE",
"1181 731 CURVE"
);
}
);
width = 1245.1831;
}
);
leftKerningGroup = H;
rightKerningGroup = H;
unicode = 004D;
},
{
color = 6;
glyphname = N;
lastChange = "2021-10-28 08:58:29 +0000";
layers = (
{
anchors = (
{
name = bottom;
position = "{524, 0}";
},
{
name = top;
position = "{524, 750}";
}
);
background = {
paths = (
{
closed = 1;
nodes = (
"143 115 LINE",
"313 115 LINE",
"313 367 LINE",
"313 423 OFFCURVE",
"354 472 OFFCURVE",
"409 480 CURVE",
"425 483 OFFCURVE",
"441 482 OFFCURVE",
"455 479 CURVE",
"405 645 LINE",
"143 645 LINE"
);
},
{
closed = 1;
nodes = (
"628 115 LINE",
"900 115 LINE",
"900 645 LINE",
"730 645 LINE",
"730 348 LINE",
"730 291 OFFCURVE",
"688 242 OFFCURVE",
"631 234 CURVE",
"618 232 OFFCURVE",
"605 233 OFFCURVE",
"592 235 CURVE"
);
}
);
};
layerId = "96858A69-C8A6-410B-90BB-94EA0DA45935";
paths = (
{
closed = 1;
nodes = (
"727 296 LINE SMOOTH",
"727 171 OFFCURVE",
"579 188 OFFCURVE",
"558 245 CURVE SMOOTH",
"413 645 LINE",
"292 645 LINE",
"302 388 OFFCURVE",
"140 211 OFFCURVE",
"140 115 CURVE",
"350 115 LINE",
"307 194 OFFCURVE",
"291 283 OFFCURVE",
"291 332 CURVE SMOOTH",
"291 501 OFFCURVE",
"469 491 OFFCURVE",
"487 441 CURVE SMOOTH",
"605 115 LINE",
"843 115 LINE",
"761 219 OFFCURVE",
"733 298 OFFCURVE",
"733 362 CURVE SMOOTH",
"733 507 OFFCURVE",
"878 571 OFFCURVE",
"864 645 CURVE",
"727 645 LINE"
);
}
);
width = 1015;
},
{
anchors = (
{
name = bottom;
position = "{499, 0}";
},
{
name = top;
position = "{499, 750}";
}
);
background = {
paths = (
{
closed = 1;
nodes = (
"611 336 LINE SMOOTH",
"611 335 OFFCURVE",
"609 334 OFFCURVE",
"609 335 CURVE SMOOTH",
"468 750 LINE",
"20 750 LINE",
"20 500 OFFCURVE",
"20 250 OFFCURVE",
"20 0 CURVE",
"405 0 LINE",
"405 117 OFFCURVE",
"405 243 OFFCURVE",
"405 360 CURVE",
"405 361 OFFCURVE",
"407 361 OFFCURVE",
"407 360 CURVE SMOOTH",
"555 0 LINE",
"996 0 LINE",
"996 125 OFFCURVE",
"996 250 OFFCURVE",
"996 375 CURVE SMOOTH",
"996 500 OFFCURVE",
"996 625 OFFCURVE",
"996 750 CURVE",
"611 750 LINE"
);
}
);
};
layerId = "F6D8640C-383C-48A8-B63C-DDE9F10207CE";
name = Regular;
paths = (
{
closed = 1;
nodes = (
"611 336 LINE SMOOTH",
"611 335 OFFCURVE",
"609 334 OFFCURVE",
"609 335 CURVE SMOOTH",
"468 750 LINE",
"20 750 LINE",
"20 500 OFFCURVE",
"20 250 OFFCURVE",
"20 0 CURVE",
"405 0 LINE",
"405 117 OFFCURVE",
"405 243 OFFCURVE",
"405 360 CURVE",
"405 361 OFFCURVE",
"407 361 OFFCURVE",
"407 360 CURVE SMOOTH",
"533 0 LINE",
"996 0 LINE",
"996 125 OFFCURVE",
"996 250 OFFCURVE",
"996 375 CURVE SMOOTH",
"996 500 OFFCURVE",
"996 625 OFFCURVE",
"996 750 CURVE",
"611 750 LINE"
);
}
);
width = 1016;
},
{
anchors = (
{
name = bottom;
position = "{504, 0}";
},
{
name = top;
position = "{504, 750}";
}
);
layerId = "5E5EA508-9E29-4BB2-A27E-EC4DBE9F737B";
name = Regular;
paths = (
{
closed = 1;
nodes = (
"636 328 LINE SMOOTH",
"636 300 OFFCURVE",
"603 303 OFFCURVE",
"598 316 CURVE SMOOTH",
"456 728 LINE",
"77 728 LINE",
"80 476 OFFCURVE",
"45 242 OFFCURVE",
"45 24 CURVE",
"393 24 LINE",
"384 133 OFFCURVE",
"381 251 OFFCURVE",
"381 354 CURVE",
"381 391 OFFCURVE",
"420 388 OFFCURVE",
"424 377 CURVE SMOOTH",
"548 24 LINE",
"964 24 LINE",
"946 145 OFFCURVE",
"940 260 OFFCURVE",
"940 372 CURVE SMOOTH",
"940 501 OFFCURVE",
"971 614 OFFCURVE",
"968 728 CURVE",
"636 728 LINE"
);
}
);
width = 1015.78873;
},
{
anchors = (
{
name = bottom;
position = "{503, 0}";
},
{
name = top;
position = "{503, 750}";
}
);
layerId = "B909D2E0-37C2-42CE-B4A7-1FA9A56E9D28";
name = Regular;
paths = (
{
closed = 1;
nodes = (
"633 329 LINE SMOOTH",
"633 305 OFFCURVE",
"604 307 OFFCURVE",
"599 319 CURVE SMOOTH",
"458 731 LINE",
"69 731 LINE",
"72 479 OFFCURVE",
"42 243 OFFCURVE",
"42 21 CURVE",
"395 21 LINE",
"387 131 OFFCURVE",
"384 250 OFFCURVE",
"384 355 CURVE",
"384 387 OFFCURVE",
"418 384 OFFCURVE",
"422 375 CURVE SMOOTH",
"546 21 LINE",
"968 21 LINE",
"953 142 OFFCURVE",
"947 259 OFFCURVE",
"947 372 CURVE SMOOTH",
"947 501 OFFCURVE",
"974 615 OFFCURVE",
"972 731 CURVE",
"633 731 LINE"
);
}
);
width = 1015.8169;
}
);
leftKerningGroup = H;
rightKerningGroup = H;
unicode = 004E;
},
{
color = 6;
glyphname = Nhookleft;
lastChange = "2021-10-28 08:58:29 +0000";
layers = (
{
background = {
components = (
{
name = Eng;
transform = "{1, 0, 0, 1, -451, 0}";
}
);
};
guideLines = (
{
position = "{105, -172}";
}
);
layerId = "F6D8640C-383C-48A8-B63C-DDE9F10207CE";
paths = (
{
closed = 1;
nodes = (
"314 -188 OFFCURVE",
"485 -100 OFFCURVE",
"485 80 CURVE SMOOTH",
"485 155 OFFCURVE",
"485 243 OFFCURVE",
"485 360 CURVE",
"485 361 OFFCURVE",
"487 361 OFFCURVE",
"487 360 CURVE SMOOTH",
"613 0 LINE",
"1076 0 LINE",
"1076 126 OFFCURVE",
"1076 249 OFFCURVE",
"1076 375 CURVE SMOOTH",
"1076 499 OFFCURVE",
"1076 626 OFFCURVE",
"1076 750 CURVE",
"691 750 LINE",
"691 336 LINE SMOOTH",
"691 335 OFFCURVE",
"689 334 OFFCURVE",
"689 335 CURVE SMOOTH",
"548 750 LINE",
"105 750 LINE",
"105 500 OFFCURVE",
"105 383 OFFCURVE",
"105 166 CURVE SMOOTH",
"105 115 OFFCURVE",
"70 101 OFFCURVE",
"10 118 CURVE",
"10 -148 LINE"
);
}
);
width = 1091;
},
{
layerId = "96858A69-C8A6-410B-90BB-94EA0DA45935";
paths = (
{
closed = 1;
nodes = (
"314 24 OFFCURVE",
"331 55 OFFCURVE",
"331 90 CURVE SMOOTH",
"331 157 OFFCURVE",
"292 241 OFFCURVE",
"292 342 CURVE SMOOTH",
"292 500 OFFCURVE",
"456 491 OFFCURVE",
"474 441 CURVE SMOOTH",
"592 115 LINE",
"830 115 LINE",
"748 219 OFFCURVE",
"720 298 OFFCURVE",
"720 362 CURVE SMOOTH",
"720 507 OFFCURVE",
"865 571 OFFCURVE",
"851 645 CURVE",
"714 645 LINE",
"714 296 LINE SMOOTH",
"714 171 OFFCURVE",
"566 188 OFFCURVE",
"545 245 CURVE SMOOTH",
"400 645 LINE",
"273 645 LINE",
"282 553 OFFCURVE",
"286 447 OFFCURVE",
"286 345 CURVE SMOOTH",
"286 218 OFFCURVE",
"232 98 OFFCURVE",
"147 61 CURVE",
"263 0 LINE"
);
}
);
width = 1016;
},
{
layerId = "5E5EA508-9E29-4BB2-A27E-EC4DBE9F737B";
paths = (
{
closed = 1;
nodes = (
"314 -143 OFFCURVE",
"452 -67 OFFCURVE",
"452 82 CURVE SMOOTH",
"452 155 OFFCURVE",
"444 243 OFFCURVE",
"444 356 CURVE",
"444 390 OFFCURVE",
"480 388 OFFCURVE",
"484 377 CURVE SMOOTH",
"609 24 LINE",
"1024 24 LINE",
"1007 146 OFFCURVE",
"1001 259 OFFCURVE",
"1001 372 CURVE SMOOTH",
"1001 501 OFFCURVE",
"1031 614 OFFCURVE",
"1028 728 CURVE",
"696 728 LINE",
"696 328 LINE SMOOTH",
"696 300 OFFCURVE",
"663 303 OFFCURVE",
"659 316 CURVE SMOOTH",
"517 728 LINE",
"140 728 LINE",
"142 511 OFFCURVE",
"143 397 OFFCURVE",
"143 204 CURVE SMOOTH",
"143 137 OFFCURVE",
"104 100 OFFCURVE",
"39 106 CURVE",
"63 -117 LINE"
);
}
);
width = 1075.15493;
},
{
layerId = "B909D2E0-37C2-42CE-B4A7-1FA9A56E9D28";
paths = (
{
closed = 1;
nodes = (
"314 -149 OFFCURVE",
"456 -71 OFFCURVE",
"456 82 CURVE SMOOTH",
"456 155 OFFCURVE",
"449 243 OFFCURVE",
"449 357 CURVE",
"449 386 OFFCURVE",
"481 384 OFFCURVE",
"484 375 CURVE SMOOTH",
"610 21 LINE",
"1031 21 LINE",
"1016 143 OFFCURVE",
"1011 258 OFFCURVE",
"1011 372 CURVE SMOOTH",
"1011 501 OFFCURVE",
"1037 616 OFFCURVE",
"1034 731 CURVE",
"695 731 LINE",
"695 329 LINE SMOOTH",
"695 305 OFFCURVE",
"666 307 OFFCURVE",
"663 319 CURVE SMOOTH",
"521 731 LINE",
"135 731 LINE",
"137 510 OFFCURVE",
"138 395 OFFCURVE",
"138 199 CURVE SMOOTH",
"138 134 OFFCURVE",
"99 100 OFFCURVE",
"35 108 CURVE",
"56 -121 LINE"
);
}
);
width = 1077.26761;
}
);
leftKerningGroup = Nhookleft;
rightKerningGroup = H;
unicode = 019D;
},
{
color = 6;
glyphname = Eng;
lastChange = "2021-10-28 08:58:29 +0000";
layers = (
{
layerId = "96858A69-C8A6-410B-90BB-94EA0DA45935";
name = "2050";
paths = (
{
closed = 1;
nodes = (
"762 17 OFFCURVE",
"801 94 OFFCURVE",
"801 243 CURVE SMOOTH",
"801 440 LINE SMOOTH",
"801 579 OFFCURVE",
"734 634 OFFCURVE",
"663 634 CURVE SMOOTH",
"637 634 OFFCURVE",
"608 627 OFFCURVE",
"578 612 CURVE",
"578 611 LINE",
"638 616 OFFCURVE",
"691 546 OFFCURVE",
"691 370 CURVE SMOOTH",
"691 307 LINE SMOOTH",
"691 183 OFFCURVE",
"671 82 OFFCURVE",
"557 42 CURVE",
"691 -19 LINE"
);
},
{
closed = 1;
nodes = (
"322 115 LINE",
"301 167 OFFCURVE",
"283 257 OFFCURVE",
"283 365 CURVE SMOOTH",
"283 420 OFFCURVE",
"294 462 OFFCURVE",
"324 462 CURVE",
"282 470 OFFCURVE",
"267 597 OFFCURVE",
"272 642 CURVE",
"268 642 OFFCURVE",
"175 642 OFFCURVE",
"134 642 CURVE",
"165 585 OFFCURVE",
"175 529 OFFCURVE",
"175 476 CURVE SMOOTH",
"175 355 OFFCURVE",
"123 207 OFFCURVE",
"147 115 CURVE"
);
}
);
width = 905;
},
{
layerId = "F6D8640C-383C-48A8-B63C-DDE9F10207CE";
name = Regular;
paths = (
{
closed = 1;
nodes = (
"802 -192 OFFCURVE",
"986 -104 OFFCURVE",
"986 97 CURVE SMOOTH",
"986 560 LINE SMOOTH",
"986 716 OFFCURVE",
"865 776 OFFCURVE",
"730 776 CURVE SMOOTH",
"665 776 OFFCURVE",
"597 763 OFFCURVE",
"531 738 CURVE",
"435 427 LINE",
"448 447 OFFCURVE",
"571 469 OFFCURVE",
"571 376 CURVE SMOOTH",
"571 188 LINE SMOOTH",
"571 113 OFFCURVE",
"530 101 OFFCURVE",
"463 118 CURVE",
"463 -148 LINE"
);
},
{
closed = 1;
nodes = (
"435 0 LINE",
"435 121 OFFCURVE",
"435 259 OFFCURVE",
"435 383 CURVE SMOOTH",
"435 398 OFFCURVE",
"435 412 OFFCURVE",
"435 427 CURVE",
"435 542 OFFCURVE",
"435 635 OFFCURVE",
"435 750 CURVE",
"296 750 OFFCURVE",
"159 750 OFFCURVE",
"20 750 CURVE",
"20 660 OFFCURVE",
"20 571 OFFCURVE",
"20 481 CURVE SMOOTH",
"20 320 OFFCURVE",
"20 160 OFFCURVE",
"20 0 CURVE"
);
}
);
width = 1006;
},
{
layerId = "5E5EA508-9E29-4BB2-A27E-EC4DBE9F737B";
name = Regular;
paths = (
{
closed = 1;
nodes = (
"794 -148 OFFCURVE",
"947 -62 OFFCURVE",
"947 128 CURVE SMOOTH",
"947 535 LINE SMOOTH",
"947 687 OFFCURVE",
"837 746 OFFCURVE",
"716 746 CURVE SMOOTH",
"659 746 OFFCURVE",
"599 734 OFFCURVE",
"541 711 CURVE",
"465 466 LINE",
"488 483 OFFCURVE",
"596 485 OFFCURVE",
"596 375 CURVE SMOOTH",
"596 213 LINE SMOOTH",
"596 128 OFFCURVE",
"560 97 OFFCURVE",
"483 102 CURVE",
"511 -121 LINE"
);
},
{
closed = 1;
nodes = (
"411 24 LINE",
"407 131 OFFCURVE",
"403 259 OFFCURVE",
"403 379 CURVE SMOOTH",
"403 403 OFFCURVE",
"405 423 OFFCURVE",
"412 434 CURVE",
"403 527 OFFCURVE",
"400 627 OFFCURVE",
"401 727 CURVE",
"290 727 OFFCURVE",
"162 727 OFFCURVE",
"44 727 CURVE",
"51 644 OFFCURVE",
"53 562 OFFCURVE",
"53 480 CURVE SMOOTH",
"53 327 OFFCURVE",
"42 170 OFFCURVE",
"47 24 CURVE"
);
}
);
width = 984.66197;
},
{
layerId = "B909D2E0-37C2-42CE-B4A7-1FA9A56E9D28";
name = Regular;
paths = (
{
closed = 1;
nodes = (
"795 -154 OFFCURVE",
"952 -68 OFFCURVE",
"952 124 CURVE SMOOTH",
"952 538 LINE SMOOTH",
"952 691 OFFCURVE",
"841 750 OFFCURVE",
"718 750 CURVE SMOOTH",
"660 750 OFFCURVE",
"599 738 OFFCURVE",
"540 715 CURVE",
"461 461 LINE",
"483 478 OFFCURVE",
"593 483 OFFCURVE",
"593 375 CURVE SMOOTH",
"593 210 LINE SMOOTH",
"593 126 OFFCURVE",
"556 98 OFFCURVE",
"480 104 CURVE",
"505 -125 LINE"
);
},
{
closed = 1;
nodes = (
"414 21 LINE",
"411 130 OFFCURVE",
"407 259 OFFCURVE",
"407 380 CURVE SMOOTH",
"407 402 OFFCURVE",
"409 422 OFFCURVE",
"415 433 CURVE",
"407 529 OFFCURVE",
"405 628 OFFCURVE",
"406 730 CURVE",
"291 730 OFFCURVE",
"162 730 OFFCURVE",
"41 730 CURVE",
"47 646 OFFCURVE",
"49 563 OFFCURVE",
"49 480 CURVE SMOOTH",
"49 326 OFFCURVE",
"39 169 OFFCURVE",
"43 21 CURVE"
);
}
);
width = 987.50704;
}
);
leftKerningGroup = H;
rightKerningGroup = H;
unicode = 014A;
},
{
color = 6;
glyphname = O;
lastChange = "2021-10-28 08:58:29 +0000";
layers = (
{
anchors = (
{
name = bottom;
position = "{560, 0}";
},
{
name = center;
position = "{560, 375}";
},
{
name = ogonek;
position = "{788, 0}";
},
{
name = top;
position = "{560, 750}";
},
{
name = topleft;
position = "{20, 750}";
},
{
name = topright;
position = "{1100, 750}";
}
);
layerId = "F6D8640C-383C-48A8-B63C-DDE9F10207CE";
paths = (
{
closed = 1;
nodes = (
"927 780 OFFCURVE",
"1110 612 OFFCURVE",
"1110 376 CURVE SMOOTH",
"1110 164 OFFCURVE",
"957 -30 OFFCURVE",
"560 -30 CURVE SMOOTH",
"162 -30 OFFCURVE",
"10 164 OFFCURVE",
"10 376 CURVE SMOOTH",
"10 612 OFFCURVE",
"193 780 OFFCURVE",
"560 780 CURVE SMOOTH"
);
},
{
closed = 1;
nodes = (
"467 462 OFFCURVE",
"435 417 OFFCURVE",
"435 375 CURVE SMOOTH",
"435 332 OFFCURVE",
"468 288 OFFCURVE",
"561 288 CURVE SMOOTH",
"652 288 OFFCURVE",
"685 333 OFFCURVE",
"685 376 CURVE SMOOTH",
"685 415 OFFCURVE",
"654 462 OFFCURVE",
"561 462 CURVE SMOOTH"
);
}
);
width = 1120;
},
{
anchors = (
{
name = bottom;
position = "{550, 0}";
},
{
name = center;
position = "{550, 375}";
},
{
name = ogonek;
position = "{791, 125}";
},
{
name = top;
position = "{550, 750}";
},
{
name = topleft;
position = "{2, 750}";
},
{
name = topright;
position = "{1082, 750}";
}
);
layerId = "96858A69-C8A6-410B-90BB-94EA0DA45935";
paths = (
{
closed = 1;
nodes = (
"791 652 OFFCURVE",
"944 489 OFFCURVE",
"944 272 CURVE SMOOTH",
"944 173 OFFCURVE",
"918 108 OFFCURVE",
"548 108 CURVE SMOOTH",
"-9 108 OFFCURVE",
"255 204 OFFCURVE",
"255 475 CURVE SMOOTH",
"255 649 OFFCURVE",
"125 652 OFFCURVE",
"530 652 CURVE SMOOTH"
);
},
{
closed = 1;
nodes = (
"335 647 OFFCURVE",
"321 606 OFFCURVE",
"321 471 CURVE SMOOTH",
"321 261 OFFCURVE",
"436 113 OFFCURVE",
"577 113 CURVE SMOOTH",
"753 113 OFFCURVE",
"812 313 OFFCURVE",
"812 422 CURVE SMOOTH",
"812 603 OFFCURVE",
"669 647 OFFCURVE",
"530 647 CURVE SMOOTH"
);
}
);
width = 1118;
},
{
anchors = (
{
name = bottom;
position = "{558, 0}";
},
{
name = center;
position = "{558, 375}";
},
{
name = ogonek;
position = "{789, 26}";
},
{
name = top;
position = "{558, 750}";
},
{
name = topleft;
position = "{16, 750}";
},
{
name = topright;
position = "{1096, 750}";
}
);
layerId = "5E5EA508-9E29-4BB2-A27E-EC4DBE9F737B";
paths = (
{
closed = 1;
nodes = (
"898 753 OFFCURVE",
"1075 586 OFFCURVE",
"1075 354 CURVE SMOOTH",
"1075 166 OFFCURVE",
"949 -1 OFFCURVE",
"557 -1 CURVE SMOOTH",
"126 -1 OFFCURVE",
"62 172 OFFCURVE",
"62 397 CURVE SMOOTH",
"62 620 OFFCURVE",
"179 753 OFFCURVE",
"554 753 CURVE SMOOTH"
);
},
{
closed = 1;
nodes = (
"439 501 OFFCURVE",
"411 457 OFFCURVE",
"411 395 CURVE SMOOTH",
"411 317 OFFCURVE",
"461 251 OFFCURVE",
"564 251 CURVE SMOOTH",
"673 251 OFFCURVE",
"712 329 OFFCURVE",
"712 386 CURVE SMOOTH",
"712 455 OFFCURVE",
"657 501 OFFCURVE",
"554 501 CURVE SMOOTH"
);
}
);
width = 1119.57746;
},
{
anchors = (
{
name = bottom;
position = "{558, 0}";
},
{
name = center;
position = "{558, 375}";
},
{
name = ogonek;
position = "{789, 23}";
},
{
name = top;
position = "{558, 750}";
},
{
name = topleft;
position = "{17, 750}";
},
{
name = topright;
position = "{1097, 750}";
}
);
layerId = "B909D2E0-37C2-42CE-B4A7-1FA9A56E9D28";
paths = (
{
closed = 1;
nodes = (
"902 757 OFFCURVE",
"1080 589 OFFCURVE",
"1080 357 CURVE SMOOTH",
"1080 166 OFFCURVE",
"950 -5 OFFCURVE",
"557 -5 CURVE SMOOTH",
"131 -5 OFFCURVE",
"55 171 OFFCURVE",
"55 394 CURVE SMOOTH",
"55 619 OFFCURVE",
"181 757 OFFCURVE",
"555 757 CURVE SMOOTH"
);
},
{
closed = 1;
nodes = (
"443 496 OFFCURVE",
"414 452 OFFCURVE",
"414 392 CURVE SMOOTH",
"414 319 OFFCURVE",
"462 256 OFFCURVE",
"564 256 CURVE SMOOTH",
"670 256 OFFCURVE",
"708 330 OFFCURVE",
"708 385 CURVE SMOOTH",
"708 450 OFFCURVE",
"657 496 OFFCURVE",
"555 496 CURVE SMOOTH"
);
}
);
width = 1119.6338;
}
);
leftKerningGroup = O;
rightKerningGroup = O;
unicode = 004F;
},
{
color = 6;
glyphname = Oogonek;
lastChange = "2021-10-28 08:58:29 +0000";
layers = (
{
layerId = "96858A69-C8A6-410B-90BB-94EA0DA45935";
paths = (
{
closed = 1;
nodes = (
"567 -111 OFFCURVE",
"613 -83 OFFCURVE",
"641 -40 CURVE",
"641 -39 LINE",
"636 -40 OFFCURVE",
"631 -40 OFFCURVE",
"626 -40 CURVE SMOOTH",
"588 -40 OFFCURVE",
"558 -16 OFFCURVE",
"558 19 CURVE SMOOTH",
"558 64 OFFCURVE",
"577 101 OFFCURVE",
"680 111 CURVE SMOOTH",
"875 130 OFFCURVE",
"946 162 OFFCURVE",
"946 273 CURVE SMOOTH",
"946 482 OFFCURVE",
"788 652 OFFCURVE",
"532 652 CURVE SMOOTH",
"127 652 OFFCURVE",
"257 648 OFFCURVE",
"257 476 CURVE SMOOTH",
"257 205 OFFCURVE",
"-8 109 OFFCURVE",
"535 109 CURVE",
"538 109 LINE",
"702 109 OFFCURVE",
"427 51 OFFCURVE",
"427 -51 CURVE SMOOTH",
"427 -83 OFFCURVE",
"456 -111 OFFCURVE",
"512 -111 CURVE SMOOTH"
);
},
{
closed = 1;
nodes = (
"438 113 OFFCURVE",
"323 261 OFFCURVE",
"323 472 CURVE SMOOTH",
"323 605 OFFCURVE",
"337 647 OFFCURVE",
"532 647 CURVE SMOOTH",
"673 647 OFFCURVE",
"814 602 OFFCURVE",
"814 423 CURVE SMOOTH",
"814 314 OFFCURVE",
"755 113 OFFCURVE",
"579 113 CURVE SMOOTH"
);
}
);
width = 1120;
},
{
background = {
components = (
{
name = O;
}
);
};
layerId = "F6D8640C-383C-48A8-B63C-DDE9F10207CE";
name = Regular;
paths = (
{
closed = 1;
nodes = (
"706 -307 OFFCURVE",
"750 -299 OFFCURVE",
"805 -284 CURVE",
"805 -88 LINE",
"775 -100 OFFCURVE",
"752 -104 OFFCURVE",
"722 -104 CURVE SMOOTH",
"680 -104 OFFCURVE",
"656 -92 OFFCURVE",
"656 -73 CURVE SMOOTH",
"656 -48 OFFCURVE",
"680 -30 OFFCURVE",
"767 -13 CURVE SMOOTH",
"971 27 OFFCURVE",
"1110 176 OFFCURVE",
"1110 376 CURVE SMOOTH",
"1110 612 OFFCURVE",
"927 780 OFFCURVE",
"560 780 CURVE SMOOTH",
"193 780 OFFCURVE",
"10 612 OFFCURVE",
"10 376 CURVE SMOOTH",
"10 185 OFFCURVE",
"130 9 OFFCURVE",
"435 -28 CURVE",
"435 -21 LINE",
"403 -52 OFFCURVE",
"387 -93 OFFCURVE",
"387 -139 CURVE SMOOTH",
"387 -246 OFFCURVE",
"472 -307 OFFCURVE",
"643 -307 CURVE SMOOTH"
);
},
{
closed = 1;
nodes = (
"468 288 OFFCURVE",
"435 332 OFFCURVE",
"435 375 CURVE SMOOTH",
"435 417 OFFCURVE",
"467 462 OFFCURVE",
"561 462 CURVE SMOOTH",
"654 462 OFFCURVE",
"685 415 OFFCURVE",
"685 376 CURVE SMOOTH",
"685 333 OFFCURVE",
"652 288 OFFCURVE",
"561 288 CURVE SMOOTH"
);
}
);
width = 1120;
},
{
layerId = "5E5EA508-9E29-4BB2-A27E-EC4DBE9F737B";
name = Regular;
paths = (
{
closed = 1;
nodes = (
"677 -266 OFFCURVE",
"721 -253 OFFCURVE",
"770 -232 CURVE",
"770 -78 LINE",
"746 -87 OFFCURVE",
"726 -90 OFFCURVE",
"702 -90 CURVE SMOOTH",
"661 -90 OFFCURVE",
"635 -76 OFFCURVE",
"635 -54 CURVE SMOOTH",
"635 -24 OFFCURVE",
"658 -2 OFFCURVE",
"749 13 CURVE SMOOTH",
"951 49 OFFCURVE",
"1075 173 OFFCURVE",
"1075 354 CURVE SMOOTH",
"1075 585 OFFCURVE",
"898 753 OFFCURVE",
"554 753 CURVE SMOOTH",
"179 753 OFFCURVE",
"62 620 OFFCURVE",
"62 397 CURVE SMOOTH",
"62 189 OFFCURVE",
"101 30 OFFCURVE",
"456 1 CURVE",
"457 6 LINE",
"466 -18 OFFCURVE",
"395 -63 OFFCURVE",
"395 -120 CURVE SMOOTH",
"395 -212 OFFCURVE",
"469 -266 OFFCURVE",
"615 -266 CURVE SMOOTH"
);
},
{
closed = 1;
nodes = (
"462 251 OFFCURVE",
"411 317 OFFCURVE",
"411 395 CURVE SMOOTH",
"411 457 OFFCURVE",
"440 501 OFFCURVE",
"555 501 CURVE SMOOTH",
"658 501 OFFCURVE",
"712 455 OFFCURVE",
"712 386 CURVE SMOOTH",
"712 329 OFFCURVE",
"674 251 OFFCURVE",
"565 251 CURVE SMOOTH"
);
}
);
width = 1120;
},
{
layerId = "B909D2E0-37C2-42CE-B4A7-1FA9A56E9D28";
name = Regular;
paths = (
{
closed = 1;
nodes = (
"681 -271 OFFCURVE",
"725 -259 OFFCURVE",
"775 -239 CURVE",
"775 -79 LINE",
"750 -89 OFFCURVE",
"729 -92 OFFCURVE",
"705 -92 CURVE SMOOTH",
"664 -92 OFFCURVE",
"638 -78 OFFCURVE",
"638 -57 CURVE SMOOTH",
"638 -27 OFFCURVE",
"661 -6 OFFCURVE",
"751 10 CURVE SMOOTH",
"954 46 OFFCURVE",
"1080 173 OFFCURVE",
"1080 357 CURVE SMOOTH",
"1080 589 OFFCURVE",
"902 757 OFFCURVE",
"555 757 CURVE SMOOTH",
"181 757 OFFCURVE",
"55 619 OFFCURVE",
"55 394 CURVE SMOOTH",
"55 188 OFFCURVE",
"105 27 OFFCURVE",
"453 -3 CURVE",
"454 2 LINE",
"458 -23 OFFCURVE",
"394 -67 OFFCURVE",
"394 -123 CURVE SMOOTH",
"394 -217 OFFCURVE",
"469 -271 OFFCURVE",
"619 -271 CURVE SMOOTH"
);
},
{
closed = 1;
nodes = (
"463 256 OFFCURVE",
"414 319 OFFCURVE",
"414 392 CURVE SMOOTH",
"414 452 OFFCURVE",
"444 496 OFFCURVE",
"556 496 CURVE SMOOTH",
"657 496 OFFCURVE",
"708 450 OFFCURVE",
"708 385 CURVE SMOOTH",
"708 330 OFFCURVE",
"671 256 OFFCURVE",
"564 256 CURVE SMOOTH"
);
}
);
width = 1120;
}
);
leftKerningGroup = O;
leftMetricsKey = O;
rightKerningGroup = O;
rightMetricsKey = O;
unicode = 01EA;
},
{
color = 3;
glyphname = Oslash;
lastChange = "2021-10-28 08:58:29 +0000";
layers = (
{
anchors = (
{
name = bottom;
position = "{560, 0}";
},
{
name = top;
position = "{560, 750}";
}
);
components = (
{
name = O;
}
);
layerId = "F6D8640C-383C-48A8-B63C-DDE9F10207CE";
paths = (
{
closed = 1;
nodes = (
"976 838 LINE",
"1037 774 LINE",
"144 -86 LINE",
"83 -22 LINE"
);
}
);
width = 1120;
},
{
anchors = (
{
name = bottom;
position = "{559, 0}";
},
{
name = top;
position = "{559, 750}";
}
);
components = (
{
name = O;
}
);
layerId = "96858A69-C8A6-410B-90BB-94EA0DA45935";
paths = (
{
closed = 1;
nodes = (
"854 667 LINE",
"859 661 LINE",
"220 39 LINE",
"215 45 LINE"
);
}
);
width = 1118;
},
{
anchors = (
{
name = bottom;
position = "{560, 0}";
},
{
name = top;
position = "{560, 750}";
}
);
components = (
{
alignment = -1;
name = O;
}
);
layerId = "5E5EA508-9E29-4BB2-A27E-EC4DBE9F737B";
paths = (
{
closed = 1;
nodes = (
"950 802 LINE",
"999 750 LINE",
"160 -60 LINE",
"111 -8 LINE"
);
}
);
width = 1119.57746;
},
{
anchors = (
{
name = bottom;
position = "{560, 0}";
},
{
name = top;
position = "{560, 750}";
}
);
components = (
{
alignment = -1;
name = O;
}
);
layerId = "B909D2E0-37C2-42CE-B4A7-1FA9A56E9D28";
paths = (
{
closed = 1;
nodes = (
"953 807 LINE",
"1004 753 LINE",
"158 -63 LINE",
"107 -10 LINE"
);
}
);
width = 1119.6338;
}
);
leftKerningGroup = O;
leftMetricsKey = O;
rightKerningGroup = O;
rightMetricsKey = O;
unicode = 00D8;
},
{
color = 6;
glyphname = OE;
lastChange = "2021-10-28 08:58:29 +0000";
layers = (
{
anchors = (
{
name = bottom;
position = "{742, 0}";
},
{
name = top;
position = "{742, 750}";
}
);
background = {
components = (
{
name = E;
transform = "{1, 0, 0, 1, 605, 0}";
}
);
};
layerId = "F6D8640C-383C-48A8-B63C-DDE9F10207CE";
paths = (
{
closed = 1;
nodes = (
"637 -25 OFFCURVE",
"704 -16 OFFCURVE",
"763 0 CURVE",
"797 0 OFFCURVE",
"832 0 OFFCURVE",
"866 0 CURVE",
"1472 0 LINE",
"1472 242 LINE",
"1061 242 LINE SMOOTH",
"1060 242 OFFCURVE",
"1060 242 OFFCURVE",
"1060 243 CURVE SMOOTH",
"1060 299 LINE SMOOTH",
"1060 300 OFFCURVE",
"1060 300 OFFCURVE",
"1061 300 CURVE SMOOTH",
"1451 300 LINE",
"1451 441 LINE",
"1061 441 LINE SMOOTH",
"1060 441 OFFCURVE",
"1060 441 OFFCURVE",
"1060 442 CURVE SMOOTH",
"1060 497 LINE SMOOTH",
"1060 498 OFFCURVE",
"1060 498 OFFCURVE",
"1061 498 CURVE SMOOTH",
"1466 498 LINE",
"1466 750 LINE",
"765 750 LINE",
"706 766 OFFCURVE",
"638 775 OFFCURVE",
"560 775 CURVE SMOOTH",
"163 775 OFFCURVE",
"10 585 OFFCURVE",
"10 374 CURVE SMOOTH",
"10 141 OFFCURVE",
"193 -25 OFFCURVE",
"560 -25 CURVE SMOOTH"
);
},
{
closed = 1;
nodes = (
"467 294 OFFCURVE",
"435 335 OFFCURVE",
"435 374 CURVE SMOOTH",
"435 415 OFFCURVE",
"468 456 OFFCURVE",
"561 456 CURVE SMOOTH",
"605 456 OFFCURVE",
"635 446 OFFCURVE",
"655 432 CURVE",
"655 318 LINE",
"635 304 OFFCURVE",
"605 294 OFFCURVE",
"561 294 CURVE SMOOTH"
);
}
);
width = 1484;
},
{
anchors = (
{
name = bottom;
position = "{783, 0}";
},
{
name = top;
position = "{783, 750}";
}
);
layerId = "96858A69-C8A6-410B-90BB-94EA0DA45935";
paths = (
{
closed = 1;
nodes = (
"713 107 OFFCURVE",
"767 158 OFFCURVE",
"846 158 CURVE",
"881 158 OFFCURVE",
"900 115 OFFCURVE",
"933 115 CURVE SMOOTH",
"1371 115 LINE",
"1371 120 LINE",
"1179 120 LINE SMOOTH",
"989 120 OFFCURVE",
"965 244 OFFCURVE",
"965 294 CURVE SMOOTH",
"965 296 LINE SMOOTH",
"965 360 OFFCURVE",
"1018 382 OFFCURVE",
"1066 382 CURVE SMOOTH",
"1327 382 LINE",
"1327 382 LINE",
"1066 382 LINE SMOOTH",
"1044 382 OFFCURVE",
"965 387 OFFCURVE",
"965 482 CURVE SMOOTH",
"965 485 LINE SMOOTH",
"965 597 OFFCURVE",
"1025 644 OFFCURVE",
"1121 644 CURVE SMOOTH",
"1275 644 LINE",
"1275 644 LINE",
"912 644 LINE SMOOTH",
"820 644 OFFCURVE",
"685 651 OFFCURVE",
"602 651 CURVE SMOOTH",
"259 651 OFFCURVE",
"258 649 OFFCURVE",
"258 472 CURVE SMOOTH",
"258 201 OFFCURVE",
"-6 107 OFFCURVE",
"551 107 CURVE SMOOTH"
);
},
{
closed = 1;
nodes = (
"439 113 OFFCURVE",
"324 258 OFFCURVE",
"324 468 CURVE SMOOTH",
"324 601 OFFCURVE",
"458 646 OFFCURVE",
"602 646 CURVE SMOOTH",
"749 646 OFFCURVE",
"815 598 OFFCURVE",
"815 429 CURVE",
"815 425 LINE",
"815 315 OFFCURVE",
"754 113 OFFCURVE",
"577 113 CURVE SMOOTH"
);
}
);
width = 1473;
},
{
anchors = (
{
name = bottom;
position = "{751, 0}";
},
{
name = top;
position = "{751, 750}";
}
);
layerId = "5E5EA508-9E29-4BB2-A27E-EC4DBE9F737B";
paths = (
{
closed = 1;
nodes = (
"653 3 OFFCURVE",
"717 21 OFFCURVE",
"781 33 CURVE",
"815 33 OFFCURVE",
"846 24 OFFCURVE",
"880 24 CURVE",
"1451 24 LINE",
"1451 216 LINE",
"1086 216 LINE SMOOTH",
"1045 216 OFFCURVE",
"1040 242 OFFCURVE",
"1040 254 CURVE SMOOTH",
"1040 298 LINE SMOOTH",
"1040 313 OFFCURVE",
"1051 317 OFFCURVE",
"1062 317 CURVE SMOOTH",
"1425 317 LINE",
"1425 429 LINE",
"1062 429 LINE SMOOTH",
"1057 429 OFFCURVE",
"1040 430 OFFCURVE",
"1040 450 CURVE SMOOTH",
"1040 494 LINE SMOOTH",
"1040 519 OFFCURVE",
"1053 529 OFFCURVE",
"1074 529 CURVE SMOOTH",
"1426 529 LINE",
"1426 728 LINE",
"796 728 LINE",
"730 740 OFFCURVE",
"648 749 OFFCURVE",
"569 749 CURVE SMOOTH",
"183 749 OFFCURVE",
"62 599 OFFCURVE",
"62 395 CURVE SMOOTH",
"62 154 OFFCURVE",
"151 3 OFFCURVE",
"558 3 CURVE SMOOTH"
);
},
{
closed = 1;
nodes = (
"461 256 OFFCURVE",
"412 319 OFFCURVE",
"412 394 CURVE SMOOTH",
"412 454 OFFCURVE",
"466 496 OFFCURVE",
"570 496 CURVE SMOOTH",
"635 496 OFFCURVE",
"673 478 OFFCURVE",
"689 431 CURVE",
"689 341 LINE",
"673 306 OFFCURVE",
"636 256 OFFCURVE",
"564 256 CURVE SMOOTH"
);
}
);
width = 1481.67606;
},
{
anchors = (
{
name = bottom;
position = "{750, 0}";
},
{
name = top;
position = "{750, 750}";
}
);
layerId = "B909D2E0-37C2-42CE-B4A7-1FA9A56E9D28";
paths = (
{
closed = 1;
nodes = (
"651 -1 OFFCURVE",
"715 16 OFFCURVE",
"779 29 CURVE",
"813 29 OFFCURVE",
"844 21 OFFCURVE",
"878 21 CURVE",
"1454 21 LINE",
"1454 219 LINE",
"1083 219 LINE SMOOTH",
"1047 219 OFFCURVE",
"1043 242 OFFCURVE",
"1043 253 CURVE SMOOTH",
"1043 298 LINE SMOOTH",
"1043 311 OFFCURVE",
"1052 315 OFFCURVE",
"1062 315 CURVE SMOOTH",
"1428 315 LINE",
"1428 431 LINE",
"1062 431 LINE SMOOTH",
"1057 431 OFFCURVE",
"1043 431 OFFCURVE",
"1043 449 CURVE SMOOTH",
"1043 494 LINE SMOOTH",
"1043 516 OFFCURVE",
"1054 525 OFFCURVE",
"1072 525 CURVE SMOOTH",
"1431 525 LINE",
"1431 731 LINE",
"792 731 LINE",
"727 743 OFFCURVE",
"647 752 OFFCURVE",
"568 752 CURVE SMOOTH",
"180 752 OFFCURVE",
"55 597 OFFCURVE",
"55 392 CURVE SMOOTH",
"55 152 OFFCURVE",
"157 -1 OFFCURVE",
"558 -1 CURVE SMOOTH"
);
},
{
closed = 1;
nodes = (
"462 261 OFFCURVE",
"415 321 OFFCURVE",
"415 391 CURVE SMOOTH",
"415 449 OFFCURVE",
"466 491 OFFCURVE",
"569 491 CURVE SMOOTH",
"631 491 OFFCURVE",
"668 474 OFFCURVE",
"684 431 CURVE",
"684 338 LINE",
"668 306 OFFCURVE",
"632 261 OFFCURVE",
"564 261 CURVE SMOOTH"
);
}
);
width = 1481.98592;
}
);
leftKerningGroup = O;
rightKerningGroup = E;
unicode = 0152;
},
{
color = 6;
glyphname = P;
lastChange = "2021-10-28 08:58:29 +0000";
layers = (
{
anchors = (
{
name = bottom;
position = "{539, 0}";
},
{
name = top;
position = "{539, 750}";
}
);
background = {
components = (
{
name = O;
transform = "{1, 0, 0, 1, -56, 0}";
}
);
};
layerId = "96858A69-C8A6-410B-90BB-94EA0DA45935";
paths = (
{
closed = 1;
nodes = (
"204 645 LINE",
"215 601 OFFCURVE",
"219 559 OFFCURVE",
"219 520 CURVE SMOOTH",
"219 340 OFFCURVE",
"126 214 OFFCURVE",
"138 115 CURVE",
"313 115 LINE",
"297 170 LINE SMOOTH",
"272 255 OFFCURVE",
"326 287 OFFCURVE",
"409 287 CURVE SMOOTH",
"660 287 LINE SMOOTH",
"813 287 OFFCURVE",
"893 379 OFFCURVE",
"893 469 CURVE SMOOTH",
"893 558 OFFCURVE",
"817 645 OFFCURVE",
"660 645 CURVE SMOOTH"
);
},
{
closed = 1;
nodes = (
"409 287 LINE SMOOTH",
"359 287 OFFCURVE",
"280 344 OFFCURVE",
"280 464 CURVE SMOOTH",
"280 478 LINE SMOOTH",
"280 575 OFFCURVE",
"320 645 OFFCURVE",
"416 645 CURVE SMOOTH",
"580 645 LINE SMOOTH",
"699 645 OFFCURVE",
"749 557 OFFCURVE",
"749 468 CURVE SMOOTH",
"749 378 OFFCURVE",
"697 287 OFFCURVE",
"614 287 CURVE SMOOTH"
);
}
);
width = 1002;
},
{
anchors = (
{
name = bottom;
position = "{505, 0}";
},
{
name = top;
position = "{505, 750}";
}
);
background = {
components = (
{
name = E;
}
);
};
layerId = "F6D8640C-383C-48A8-B63C-DDE9F10207CE";
name = Regular;
paths = (
{
closed = 1;
nodes = (
"20 750 LINE",
"20 679 OFFCURVE",
"20 608 OFFCURVE",
"20 536 CURVE SMOOTH",
"20 358 OFFCURVE",
"20 179 OFFCURVE",
"20 0 CURVE",
"436 0 LINE",
"436 126 LINE SMOOTH",
"436 127 OFFCURVE",
"437 128 OFFCURVE",
"438 128 CURVE SMOOTH",
"653 128 LINE SMOOTH",
"896 128 OFFCURVE",
"1022 276 OFFCURVE",
"1022 443 CURVE SMOOTH",
"1022 601 OFFCURVE",
"901 750 OFFCURVE",
"653 750 CURVE SMOOTH"
);
},
{
closed = 1;
nodes = (
"438 345 LINE SMOOTH",
"437 345 OFFCURVE",
"436 346 OFFCURVE",
"436 346 CURVE SMOOTH",
"436 483 LINE SMOOTH",
"436 484 OFFCURVE",
"437 485 OFFCURVE",
"438 485 CURVE SMOOTH",
"530 485 LINE SMOOTH",
"591 485 OFFCURVE",
"621 451 OFFCURVE",
"621 416 CURVE SMOOTH",
"621 381 OFFCURVE",
"590 345 OFFCURVE",
"530 345 CURVE SMOOTH"
);
}
);
visible = 1;
width = 1030;
},
{
anchors = (
{
name = bottom;
position = "{512, 0}";
},
{
name = top;
position = "{512, 750}";
}
);
layerId = "5E5EA508-9E29-4BB2-A27E-EC4DBE9F737B";
name = Regular;
paths = (
{
closed = 1;
nodes = (
"59 728 LINE",
"61 663 OFFCURVE",
"62 598 OFFCURVE",
"62 533 CURVE SMOOTH",
"62 354 OFFCURVE",
"42 186 OFFCURVE",
"45 24 CURVE",
"410 24 LINE",
"407 135 LINE SMOOTH",
"401 154 OFFCURVE",
"414 162 OFFCURVE",
"432 162 CURVE SMOOTH",
"654 162 LINE SMOOTH",
"878 162 OFFCURVE",
"995 298 OFFCURVE",
"995 448 CURVE SMOOTH",
"995 592 OFFCURVE",
"883 728 OFFCURVE",
"654 728 CURVE SMOOTH"
);
},
{
closed = 1;
nodes = (
"432 333 LINE SMOOTH",
"421 333 OFFCURVE",
"403 346 OFFCURVE",
"403 371 CURVE SMOOTH",
"403 482 LINE SMOOTH",
"403 503 OFFCURVE",
"412 519 OFFCURVE",
"433 519 CURVE SMOOTH",
"541 519 LINE SMOOTH",
"614 519 OFFCURVE",
"648 473 OFFCURVE",
"648 427 CURVE SMOOTH",
"648 380 OFFCURVE",
"613 333 OFFCURVE",
"548 333 CURVE SMOOTH"
);
}
);
width = 1024.08451;
},
{
anchors = (
{
name = bottom;
position = "{511, 0}";
},
{
name = top;
position = "{511, 750}";
}
);
layerId = "B909D2E0-37C2-42CE-B4A7-1FA9A56E9D28";
name = Regular;
paths = (
{
closed = 1;
nodes = (
"54 731 LINE",
"56 665 OFFCURVE",
"56 599 OFFCURVE",
"56 533 CURVE SMOOTH",
"56 355 OFFCURVE",
"39 185 OFFCURVE",
"42 21 CURVE",
"413 21 LINE",
"411 134 LINE SMOOTH",
"406 150 OFFCURVE",
"417 157 OFFCURVE",
"433 157 CURVE SMOOTH",
"654 157 LINE SMOOTH",
"880 157 OFFCURVE",
"999 295 OFFCURVE",
"999 447 CURVE SMOOTH",
"999 593 OFFCURVE",
"885 731 OFFCURVE",
"654 731 CURVE SMOOTH"
);
},
{
closed = 1;
nodes = (
"433 335 LINE SMOOTH",
"423 335 OFFCURVE",
"407 346 OFFCURVE",
"407 368 CURVE SMOOTH",
"407 482 LINE SMOOTH",
"407 500 OFFCURVE",
"415 514 OFFCURVE",
"434 514 CURVE SMOOTH",
"540 514 LINE SMOOTH",
"611 514 OFFCURVE",
"644 470 OFFCURVE",
"644 426 CURVE SMOOTH",
"644 380 OFFCURVE",
"610 335 OFFCURVE",
"546 335 CURVE SMOOTH"
);
}
);
width = 1024.87324;
}
);
leftKerningGroup = H;
rightKerningGroup = P;
unicode = 0050;
},
{
color = 6;
glyphname = Thorn;
lastChange = "2021-10-28 08:58:29 +0000";
layers = (
{
background = {
anchors = (
{
name = bottom;
position = "{504, -64}";
},
{
name = top;
position = "{504, 686}";
}
);
};
layerId = "F6D8640C-383C-48A8-B63C-DDE9F10207CE";
name = Regular;
paths = (
{
closed = 1;
nodes = (
"436 0 LINE",
"436 82 LINE",
"436 83 OFFCURVE",
"437 84 OFFCURVE",
"438 84 CURVE SMOOTH",
"654 84 LINE SMOOTH",
"894 84 OFFCURVE",
"1021 220 OFFCURVE",
"1021 383 CURVE SMOOTH",
"1021 549 OFFCURVE",
"894 686 OFFCURVE",
"654 686 CURVE SMOOTH",
"566 686 OFFCURVE",
"506 686 OFFCURVE",
"438 686 CURVE SMOOTH",
"438 686 OFFCURVE",
"438 707 OFFCURVE",
"438 719 CURVE SMOOTH",
"438 729 OFFCURVE",
"438 740 OFFCURVE",
"438 750 CURVE",
"20 750 LINE",
"20 660 OFFCURVE",
"20 571 OFFCURVE",
"20 483 CURVE SMOOTH",
"20 304 OFFCURVE",
"20 136 OFFCURVE",
"20 0 CURVE"
);
},
{
closed = 1;
nodes = (
"436 287 OFFCURVE",
"435 288 OFFCURVE",
"435 289 CURVE SMOOTH",
"435 427 LINE SMOOTH",
"435 428 OFFCURVE",
"436 429 OFFCURVE",
"437 429 CURVE SMOOTH",
"530 429 LINE SMOOTH",
"591 429 OFFCURVE",
"620 397 OFFCURVE",
"620 360 CURVE SMOOTH",
"620 321 OFFCURVE",
"590 287 OFFCURVE",
"530 287 CURVE SMOOTH",
"437 287 LINE SMOOTH"
);
}
);
width = 1029;
},
{
background = {
components = (
{
name = P;
transform = "{1, 0, 0, 1, -13, -67}";
}
);
};
layerId = "96858A69-C8A6-410B-90BB-94EA0DA45935";
name = "2050";
paths = (
{
closed = 1;
nodes = (
"306 115 LINE",
"300 136 LINE SMOOTH",
"281 202 OFFCURVE",
"317 224 OFFCURVE",
"396 224 CURVE SMOOTH",
"647 224 LINE SMOOTH",
"800 224 OFFCURVE",
"880 316 OFFCURVE",
"880 402 CURVE SMOOTH",
"880 487 OFFCURVE",
"804 574 OFFCURVE",
"647 574 CURVE SMOOTH",
"567 574 OFFCURVE",
"492 574 OFFCURVE",
"408 574 CURVE SMOOTH",
"345 574 OFFCURVE",
"314 587 OFFCURVE",
"314 616 CURVE SMOOTH",
"314 624 OFFCURVE",
"318 634 OFFCURVE",
"327 645 CURVE",
"183 645 LINE",
"199 582 OFFCURVE",
"205 527 OFFCURVE",
"205 479 CURVE SMOOTH",
"205 298 OFFCURVE",
"120 210 OFFCURVE",
"131 115 CURVE"
);
},
{
closed = 1;
nodes = (
"349 224 OFFCURVE",
"268 286 OFFCURVE",
"268 410 CURVE SMOOTH",
"268 420 LINE SMOOTH",
"268 521 OFFCURVE",
"311 574 OFFCURVE",
"403 574 CURVE SMOOTH",
"567 574 LINE SMOOTH",
"686 574 OFFCURVE",
"736 486 OFFCURVE",
"736 401 CURVE SMOOTH",
"736 315 OFFCURVE",
"684 224 OFFCURVE",
"601 224 CURVE SMOOTH",
"396 224 LINE SMOOTH"
);
}
);
width = 989;
},
{
layerId = "5E5EA508-9E29-4BB2-A27E-EC4DBE9F737B";
name = Regular;
paths = (
{
closed = 1;
nodes = (
"409 24 LINE",
"407 93 LINE",
"403 108 OFFCURVE",
"412 114 OFFCURVE",
"429 114 CURVE SMOOTH",
"653 114 LINE SMOOTH",
"874 114 OFFCURVE",
"991 240 OFFCURVE",
"991 387 CURVE SMOOTH",
"991 536 OFFCURVE",
"875 662 OFFCURVE",
"653 662 CURVE SMOOTH",
"566 662 OFFCURVE",
"503 662 OFFCURVE",
"432 662 CURVE SMOOTH",
"418 662 OFFCURVE",
"412 682 OFFCURVE",
"412 697 CURVE SMOOTH",
"412 707 OFFCURVE",
"413 718 OFFCURVE",
"415 728 CURVE",
"54 728 LINE",
"58 644 OFFCURVE",
"59 562 OFFCURVE",
"59 482 CURVE SMOOTH",
"59 303 OFFCURVE",
"41 152 OFFCURVE",
"43 24 CURVE"
);
},
{
closed = 1;
nodes = (
"418 274 OFFCURVE",
"400 288 OFFCURVE",
"400 315 CURVE SMOOTH",
"400 426 LINE SMOOTH",
"400 448 OFFCURVE",
"410 460 OFFCURVE",
"430 460 CURVE SMOOTH",
"538 460 LINE SMOOTH",
"611 460 OFFCURVE",
"645 416 OFFCURVE",
"645 369 CURVE SMOOTH",
"645 320 OFFCURVE",
"610 274 OFFCURVE",
"545 274 CURVE SMOOTH",
"428 274 LINE SMOOTH"
);
}
);
width = 1020.5493;
},
{
layerId = "B909D2E0-37C2-42CE-B4A7-1FA9A56E9D28";
name = Regular;
paths = (
{
closed = 1;
nodes = (
"413 21 LINE",
"411 92 LINE",
"407 105 OFFCURVE",
"415 110 OFFCURVE",
"430 110 CURVE SMOOTH",
"653 110 LINE SMOOTH",
"877 110 OFFCURVE",
"995 237 OFFCURVE",
"995 386 CURVE SMOOTH",
"995 538 OFFCURVE",
"878 665 OFFCURVE",
"653 665 CURVE SMOOTH",
"566 665 OFFCURVE",
"503 665 OFFCURVE",
"433 665 CURVE SMOOTH",
"421 665 OFFCURVE",
"415 685 OFFCURVE",
"415 700 CURVE SMOOTH",
"415 710 OFFCURVE",
"416 721 OFFCURVE",
"418 731 CURVE",
"49 731 LINE",
"53 646 OFFCURVE",
"54 563 OFFCURVE",
"54 482 CURVE SMOOTH",
"54 303 OFFCURVE",
"38 150 OFFCURVE",
"40 21 CURVE"
);
},
{
closed = 1;
nodes = (
"420 276 OFFCURVE",
"405 288 OFFCURVE",
"405 312 CURVE SMOOTH",
"405 426 LINE SMOOTH",
"405 445 OFFCURVE",
"413 456 OFFCURVE",
"431 456 CURVE SMOOTH",
"537 456 LINE SMOOTH",
"608 456 OFFCURVE",
"642 413 OFFCURVE",
"642 368 CURVE SMOOTH",
"642 320 OFFCURVE",
"607 276 OFFCURVE",
"543 276 CURVE SMOOTH",
"429 276 LINE SMOOTH"
);
}
);
width = 1021.67606;
}
);
leftKerningGroup = H;
rightKerningGroup = Thorn;
rightMetricsKey = P;
unicode = 00DE;
},
{
color = 6;
glyphname = Q;
lastChange = "2021-10-28 08:58:29 +0000";
layers = (
{
anchors = (
{
name = bottom;
position = "{559, 0}";
},
{
name = top;
position = "{559, 750}";
}
);
layerId = "F6D8640C-383C-48A8-B63C-DDE9F10207CE";
paths = (
{
closed = 1;
nodes = (
"927 115 OFFCURVE",
"1103 210 OFFCURVE",
"1103 406 CURVE SMOOTH",
"1103 652 OFFCURVE",
"868 780 OFFCURVE",
"557 780 CURVE SMOOTH",
"193 780 OFFCURVE",
"10 612 OFFCURVE",
"10 376 CURVE SMOOTH",
"10 144 OFFCURVE",
"171 16 OFFCURVE",
"421 -15 CURVE",
"422 -15 OFFCURVE",
"422 -16 OFFCURVE",
"422 -17 CURVE",
"413 -54 OFFCURVE",
"405 -79 OFFCURVE",
"397 -110 CURVE",
"1028 -140 LINE",
"1091 129 LINE",
"695 84 LINE",
"695 84 OFFCURVE",
"695 86 OFFCURVE",
"695 87 CURVE SMOOTH",
"695 88 OFFCURVE",
"695 89 OFFCURVE",
"695 89 CURVE"
);
},
{
closed = 1;
nodes = (
"652 462 OFFCURVE",
"685 417 OFFCURVE",
"685 374 CURVE SMOOTH",
"685 336 OFFCURVE",
"654 290 OFFCURVE",
"561 290 CURVE SMOOTH",
"467 290 OFFCURVE",
"435 333 OFFCURVE",
"435 375 CURVE SMOOTH",
"435 418 OFFCURVE",
"468 462 OFFCURVE",
"561 462 CURVE SMOOTH"
);
}
);
width = 1113;
},
{
anchors = (
{
name = bottom;
position = "{567, 0}";
},
{
name = top;
position = "{567, 750}";
}
);
layerId = "96858A69-C8A6-410B-90BB-94EA0DA45935";
name = "2050";
paths = (
{
closed = 1;
nodes = (
"852 241 OFFCURVE",
"957 285 OFFCURVE",
"957 400 CURVE SMOOTH",
"957 553 OFFCURVE",
"819 664 OFFCURVE",
"578 664 CURVE SMOOTH",
"308 664 OFFCURVE",
"53 534 OFFCURVE",
"181 427 CURVE SMOOTH",
"343 291 OFFCURVE",
"358 105 OFFCURVE",
"530 105 CURVE SMOOTH",
"561 105 OFFCURVE",
"574 102 OFFCURVE",
"574 87 CURVE SMOOTH",
"574 64 OFFCURVE",
"555 18 OFFCURVE",
"543 -1 CURVE",
"874 -11 LINE",
"875 -6 LINE",
"749 0 LINE SMOOTH",
"655 4 OFFCURVE",
"618 53 OFFCURVE",
"618 95 CURVE SMOOTH",
"618 139 OFFCURVE",
"639 173 OFFCURVE",
"711 196 CURVE SMOOTH"
);
},
{
closed = 1;
nodes = (
"671 659 OFFCURVE",
"813 634 OFFCURVE",
"813 418 CURVE SMOOTH",
"813 314 OFFCURVE",
"778 182 OFFCURVE",
"614 182 CURVE SMOOTH",
"483 182 OFFCURVE",
"288 291 OFFCURVE",
"288 495 CURVE SMOOTH",
"288 619 OFFCURVE",
"418 659 OFFCURVE",
"578 659 CURVE SMOOTH"
);
}
);
width = 1110;
},
{
anchors = (
{
name = bottom;
position = "{561, 0}";
},
{
name = top;
position = "{561, 750}";
}
);
layerId = "5E5EA508-9E29-4BB2-A27E-EC4DBE9F737B";
paths = (
{
closed = 1;
nodes = (
"911 142 OFFCURVE",
"1072 226 OFFCURVE",
"1072 405 CURVE SMOOTH",
"1072 631 OFFCURVE",
"858 755 OFFCURVE",
"561 755 CURVE SMOOTH",
"217 755 OFFCURVE",
"19 596 OFFCURVE",
"46 387 CURVE SMOOTH",
"80 175 OFFCURVE",
"211 35 OFFCURVE",
"444 10 CURVE",
"451 10 OFFCURVE",
"454 9 OFFCURVE",
"454 5 CURVE",
"447 -29 OFFCURVE",
"437 -59 OFFCURVE",
"428 -87 CURVE",
"995 -113 LINE",
"1045 100 LINE",
"706 66 LINE",
"687 67 OFFCURVE",
"679 79 OFFCURVE",
"679 89 CURVE SMOOTH",
"679 99 OFFCURVE",
"683 107 OFFCURVE",
"698 112 CURVE"
);
},
{
closed = 1;
nodes = (
"656 504 OFFCURVE",
"712 463 OFFCURVE",
"712 383 CURVE SMOOTH",
"712 331 OFFCURVE",
"680 267 OFFCURVE",
"572 267 CURVE SMOOTH",
"470 267 OFFCURVE",
"404 324 OFFCURVE",
"404 400 CURVE SMOOTH",
"404 460 OFFCURVE",
"457 504 OFFCURVE",
"565 504 CURVE SMOOTH"
);
}
);
width = 1112.3662;
},
{
anchors = (
{
name = bottom;
position = "{561, 0}";
},
{
name = top;
position = "{561, 750}";
}
);
layerId = "B909D2E0-37C2-42CE-B4A7-1FA9A56E9D28";
paths = (
{
closed = 1;
nodes = (
"913 138 OFFCURVE",
"1076 224 OFFCURVE",
"1076 405 CURVE SMOOTH",
"1076 634 OFFCURVE",
"859 758 OFFCURVE",
"560 758 CURVE SMOOTH",
"214 758 OFFCURVE",
"18 598 OFFCURVE",
"41 386 CURVE SMOOTH",
"71 171 OFFCURVE",
"206 32 OFFCURVE",
"441 7 CURVE",
"447 7 OFFCURVE",
"450 6 OFFCURVE",
"450 2 CURVE",
"442 -32 OFFCURVE",
"433 -62 OFFCURVE",
"424 -90 CURVE",
"999 -117 LINE",
"1051 104 LINE",
"705 68 LINE",
"688 69 OFFCURVE",
"681 80 OFFCURVE",
"681 89 CURVE SMOOTH",
"681 98 OFFCURVE",
"685 105 OFFCURVE",
"698 109 CURVE"
);
},
{
closed = 1;
nodes = (
"655 498 OFFCURVE",
"708 457 OFFCURVE",
"708 382 CURVE SMOOTH",
"708 332 OFFCURVE",
"677 270 OFFCURVE",
"571 270 CURVE SMOOTH",
"470 270 OFFCURVE",
"408 325 OFFCURVE",
"408 397 CURVE SMOOTH",
"408 454 OFFCURVE",
"458 498 OFFCURVE",
"564 498 CURVE SMOOTH"
);
}
);
width = 1112.4507;
}
);
leftKerningGroup = O;
rightKerningGroup = Q;
unicode = 0051;
},
{
color = 6;
glyphname = R;
lastChange = "2021-10-28 08:58:29 +0000";
layers = (
{
anchors = (
{
name = bottom;
position = "{526, 0}";
},
{
name = top;
position = "{526, 750}";
}
);
layerId = "F6D8640C-383C-48A8-B63C-DDE9F10207CE";
paths = (
{
closed = 1;
nodes = (
"20 671 OFFCURVE",
"20 593 OFFCURVE",
"20 514 CURVE SMOOTH",
"20 343 OFFCURVE",
"20 171 OFFCURVE",
"20 0 CURVE",
"435 0 LINE",
"435 65 OFFCURVE",
"435 159 OFFCURVE",
"435 225 CURVE SMOOTH",
"435 271 OFFCURVE",
"435 304 OFFCURVE",
"435 305 CURVE",
"435 300 OFFCURVE",
"435 313 OFFCURVE",
"435 444 CURVE",
"435 445 OFFCURVE",
"436 446 OFFCURVE",
"437 446 CURVE SMOOTH",
"551 446 LINE SMOOTH",
"605 446 OFFCURVE",
"632 411 OFFCURVE",
"632 376 CURVE SMOOTH",
"632 341 OFFCURVE",
"605 306 OFFCURVE",
"551 306 CURVE SMOOTH",
"435 306 LINE",
"474 204 OFFCURVE",
"513 102 OFFCURVE",
"552 0 CURVE",
"1027 0 LINE",
"873 297 LINE",
"646 297 LINE SMOOTH",
"646 297 OFFCURVE",
"646 299 OFFCURVE",
"646 299 CURVE",
"646 299 OFFCURVE",
"646 301 OFFCURVE",
"646 301 CURVE SMOOTH",
"656 301 OFFCURVE",
"712 301 OFFCURVE",
"720 301 CURVE SMOOTH",
"910 301 OFFCURVE",
"1005 418 OFFCURVE",
"1005 533 CURVE SMOOTH",
"1005 643 OFFCURVE",
"918 750 OFFCURVE",
"743 750 CURVE SMOOTH",
"20 750 LINE"
);
}
);
width = 1030;
},
{
anchors = (
{
name = bottom;
position = "{515, 0}";
},
{
name = top;
position = "{515, 750}";
}
);
layerId = "96858A69-C8A6-410B-90BB-94EA0DA45935";
paths = (
{
closed = 1;
nodes = (
"187 606 OFFCURVE",
"195 557 OFFCURVE",
"195 505 CURVE SMOOTH",
"195 355 OFFCURVE",
"133 176 OFFCURVE",
"147 115 CURVE",
"284 115 LINE",
"271 151 OFFCURVE",
"265 181 OFFCURVE",
"265 205 CURVE SMOOTH",
"265 287 OFFCURVE",
"331 306 OFFCURVE",
"393 306 CURVE",
"295 306 OFFCURVE",
"245 406 OFFCURVE",
"245 482 CURVE SMOOTH",
"245 562 OFFCURVE",
"301 645 OFFCURVE",
"414 645 CURVE SMOOTH",
"613 645 LINE SMOOTH",
"686 645 OFFCURVE",
"776 584 OFFCURVE",
"776 475 CURVE SMOOTH",
"776 365 OFFCURVE",
"690 306 OFFCURVE",
"651 306 CURVE SMOOTH",
"473 306 LINE",
"577 287 OFFCURVE",
"592 204 OFFCURVE",
"597 115 CURVE",
"889 115 LINE",
"848 203 LINE",
"677 203 LINE SMOOTH",
"623 203 OFFCURVE",
"559 220 OFFCURVE",
"559 278 CURVE SMOOTH",
"559 301 OFFCURVE",
"579 306 OFFCURVE",
"591 306 CURVE SMOOTH",
"602 306 OFFCURVE",
"652 306 OFFCURVE",
"658 306 CURVE SMOOTH",
"805 306 OFFCURVE",
"890 388 OFFCURVE",
"890 490 CURVE SMOOTH",
"890 569 OFFCURVE",
"820 645 OFFCURVE",
"700 645 CURVE SMOOTH",
"167 645 LINE"
);
}
);
width = 1039;
},
{
anchors = (
{
name = bottom;
position = "{524, 0}";
},
{
name = top;
position = "{524, 750}";
}
);
layerId = "5E5EA508-9E29-4BB2-A27E-EC4DBE9F737B";
paths = (
{
closed = 1;
nodes = (
"55 657 OFFCURVE",
"57 585 OFFCURVE",
"57 512 CURVE SMOOTH",
"57 346 OFFCURVE",
"44 172 OFFCURVE",
"47 24 CURVE",
"403 24 LINE",
"400 83 OFFCURVE",
"399 164 OFFCURVE",
"399 221 CURVE SMOOTH",
"399 274 OFFCURVE",
"413 304 OFFCURVE",
"426 305 CURVE",
"405 301 OFFCURVE",
"395 333 OFFCURVE",
"395 452 CURVE",
"395 470 OFFCURVE",
"407 488 OFFCURVE",
"432 488 CURVE SMOOTH",
"564 488 LINE SMOOTH",
"622 488 OFFCURVE",
"662 448 OFFCURVE",
"662 397 CURVE SMOOTH",
"662 346 OFFCURVE",
"623 306 OFFCURVE",
"572 306 CURVE SMOOTH",
"443 306 LINE",
"496 222 OFFCURVE",
"530 124 OFFCURVE",
"562 24 CURVE",
"998 24 LINE",
"868 277 LINE",
"653 277 LINE SMOOTH",
"641 277 OFFCURVE",
"628 282 OFFCURVE",
"628 295 CURVE",
"628 299 OFFCURVE",
"632 302 OFFCURVE",
"634 302 CURVE SMOOTH",
"645 302 OFFCURVE",
"699 302 OFFCURVE",
"707 302 CURVE SMOOTH",
"888 302 OFFCURVE",
"981 412 OFFCURVE",
"981 524 CURVE SMOOTH",
"981 627 OFFCURVE",
"897 728 OFFCURVE",
"734 728 CURVE SMOOTH",
"51 728 LINE"
);
}
);
width = 1031.90141;
},
{
anchors = (
{
name = bottom;
position = "{524, 0}";
},
{
name = top;
position = "{524, 750}";
}
);
layerId = "B909D2E0-37C2-42CE-B4A7-1FA9A56E9D28";
paths = (
{
closed = 1;
nodes = (
"50 659 OFFCURVE",
"52 586 OFFCURVE",
"52 512 CURVE SMOOTH",
"52 346 OFFCURVE",
"41 172 OFFCURVE",
"43 21 CURVE",
"407 21 LINE",
"405 81 OFFCURVE",
"404 163 OFFCURVE",
"404 222 CURVE SMOOTH",
"404 274 OFFCURVE",
"416 304 OFFCURVE",
"427 305 CURVE",
"409 301 OFFCURVE",
"400 330 OFFCURVE",
"400 451 CURVE",
"400 467 OFFCURVE",
"411 482 OFFCURVE",
"433 482 CURVE SMOOTH",
"562 482 LINE SMOOTH",
"620 482 OFFCURVE",
"658 443 OFFCURVE",
"658 394 CURVE SMOOTH",
"658 345 OFFCURVE",
"621 306 OFFCURVE",
"569 306 CURVE SMOOTH",
"442 306 LINE",
"493 220 OFFCURVE",
"528 121 OFFCURVE",
"561 21 CURVE",
"1002 21 LINE",
"869 280 LINE",
"652 280 LINE SMOOTH",
"642 280 OFFCURVE",
"630 284 OFFCURVE",
"630 296 CURVE",
"630 299 OFFCURVE",
"634 302 OFFCURVE",
"636 302 CURVE SMOOTH",
"646 302 OFFCURVE",
"701 302 OFFCURVE",
"709 302 CURVE SMOOTH",
"891 302 OFFCURVE",
"984 413 OFFCURVE",
"984 525 CURVE SMOOTH",
"984 629 OFFCURVE",
"900 731 OFFCURVE",
"735 731 CURVE SMOOTH",
"47 731 LINE"
);
}
);
width = 1031.64789;
}
);
leftKerningGroup = H;
rightKerningGroup = R;
unicode = 0052;
},
{
color = 6;
glyphname = S;
lastChange = "2021-10-28 08:58:29 +0000";
layers = (
{
anchors = (
{
name = bottom;
position = "{541, 0}";
},
{
name = top;
position = "{541, 750}";
}
);
layerId = "F6D8640C-383C-48A8-B63C-DDE9F10207CE";
name = Regular;
paths = (
{
closed = 1;
nodes = (
"533 452 OFFCURVE",
"525 452 OFFCURVE",
"517 452 CURVE SMOOTH",
"463 452 OFFCURVE",
"441 460 OFFCURVE",
"441 485 CURVE SMOOTH",
"441 512 OFFCURVE",
"476 533 OFFCURVE",
"529 533 CURVE SMOOTH",
"593 533 OFFCURVE",
"646 508 OFFCURVE",
"625 450 CURVE",
"1038 469 LINE",
"1078 658 OFFCURVE",
"871 780 OFFCURVE",
"544 780 CURVE SMOOTH",
"254 780 OFFCURVE",
"12 689 OFFCURVE",
"12 519 CURVE SMOOTH",
"12 392 OFFCURVE",
"123 308 OFFCURVE",
"518 307 CURVE SMOOTH",
"525 307 OFFCURVE",
"536 307 OFFCURVE",
"543 307 CURVE SMOOTH",
"605 307 OFFCURVE",
"639 301 OFFCURVE",
"639 269 CURVE SMOOTH",
"639 236 OFFCURVE",
"598 220 OFFCURVE",
"546 220 CURVE SMOOTH",
"479 220 OFFCURVE",
"426 250 OFFCURVE",
"442 310 CURVE",
"15 281 LINE",
"-5 62 OFFCURVE",
"213 -30 OFFCURVE",
"539 -30 CURVE SMOOTH",
"832 -30 OFFCURVE",
"1066 59 OFFCURVE",
"1066 228 CURVE SMOOTH",
"1066 383 OFFCURVE",
"941 452 OFFCURVE",
"542 452 CURVE SMOOTH"
);
}
);
width = 1078;
},
{
anchors = (
{
name = bottom;
position = "{537, 0}";
},
{
name = top;
position = "{517, 750}";
}
);
background = {
components = (
{
name = C;
}
);
};
layerId = "96858A69-C8A6-410B-90BB-94EA0DA45935";
name = "2050";
paths = (
{
closed = 1;
nodes = (
"654 358 OFFCURVE",
"403 358 OFFCURVE",
"395 358 CURVE SMOOTH",
"320 358 OFFCURVE",
"290 417 OFFCURVE",
"290 456 CURVE SMOOTH",
"290 579 OFFCURVE",
"470 644 OFFCURVE",
"579 644 CURVE SMOOTH",
"666 644 OFFCURVE",
"677 589 OFFCURVE",
"674 517 CURVE",
"857 553 LINE",
"744 621 OFFCURVE",
"614 681 OFFCURVE",
"446 659 CURVE SMOOTH",
"369 649 OFFCURVE",
"430 567 OFFCURVE",
"154 479 CURVE SMOOTH",
"91 459 OFFCURVE",
"189 358 OFFCURVE",
"384 358 CURVE SMOOTH",
"434 358 OFFCURVE",
"647 358 OFFCURVE",
"654 358 CURVE SMOOTH",
"724 358 OFFCURVE",
"753 324 OFFCURVE",
"753 260 CURVE SMOOTH",
"753 211 OFFCURVE",
"695 107 OFFCURVE",
"546 107 CURVE SMOOTH",
"434 107 OFFCURVE",
"373 177 OFFCURVE",
"353 206 CURVE",
"150 158 LINE",
"196 118 OFFCURVE",
"389 102 OFFCURVE",
"545 102 CURVE SMOOTH",
"722 102 OFFCURVE",
"923 138 OFFCURVE",
"923 234 CURVE SMOOTH",
"923 305 OFFCURVE",
"831 358 OFFCURVE",
"664 358 CURVE SMOOTH"
);
}
);
width = 1028;
},
{
anchors = (
{
name = bottom;
position = "{540, 0}";
},
{
name = top;
position = "{536, 750}";
}
);
layerId = "5E5EA508-9E29-4BB2-A27E-EC4DBE9F737B";
name = Regular;
paths = (
{
closed = 1;
nodes = (
"559 432 OFFCURVE",
"499 432 OFFCURVE",
"491 432 CURVE SMOOTH",
"433 432 OFFCURVE",
"409 451 OFFCURVE",
"409 479 CURVE SMOOTH",
"409 526 OFFCURVE",
"475 556 OFFCURVE",
"540 556 CURVE SMOOTH",
"608 556 OFFCURVE",
"653 525 OFFCURVE",
"635 464 CURVE",
"1000 487 LINE",
"1007 650 OFFCURVE",
"817 759 OFFCURVE",
"523 754 CURVE SMOOTH",
"278 752 OFFCURVE",
"100 663 OFFCURVE",
"42 511 CURVE SMOOTH",
"29 406 OFFCURVE",
"137 319 OFFCURVE",
"490 318 CURVE SMOOTH",
"506 318 OFFCURVE",
"559 318 OFFCURVE",
"566 318 CURVE SMOOTH",
"630 318 OFFCURVE",
"663 306 OFFCURVE",
"663 267 CURVE SMOOTH",
"663 231 OFFCURVE",
"618 196 OFFCURVE",
"546 196 CURVE SMOOTH",
"469 196 OFFCURVE",
"415 235 OFFCURVE",
"423 288 CURVE",
"44 255 LINE",
"37 74 OFFCURVE",
"250 -2 OFFCURVE",
"540 -2 CURVE SMOOTH",
"809 -2 OFFCURVE",
"1036 76 OFFCURVE",
"1036 229 CURVE SMOOTH",
"1036 367 OFFCURVE",
"918 432 OFFCURVE",
"568 432 CURVE SMOOTH"
);
}
);
width = 1067.43662;
},
{
anchors = (
{
name = bottom;
position = "{540, 0}";
},
{
name = top;
position = "{537, 750}";
}
);
layerId = "B909D2E0-37C2-42CE-B4A7-1FA9A56E9D28";
name = Regular;
paths = (
{
closed = 1;
nodes = (
"556 435 OFFCURVE",
"502 435 OFFCURVE",
"494 435 CURVE SMOOTH",
"437 435 OFFCURVE",
"413 452 OFFCURVE",
"413 480 CURVE SMOOTH",
"413 524 OFFCURVE",
"475 553 OFFCURVE",
"539 553 CURVE SMOOTH",
"606 553 OFFCURVE",
"652 523 OFFCURVE",
"634 462 CURVE",
"1005 485 LINE",
"1016 651 OFFCURVE",
"824 762 OFFCURVE",
"526 757 CURVE SMOOTH",
"275 756 OFFCURVE",
"88 666 OFFCURVE",
"38 512 CURVE SMOOTH",
"27 404 OFFCURVE",
"135 318 OFFCURVE",
"494 317 CURVE SMOOTH",
"509 317 OFFCURVE",
"556 317 OFFCURVE",
"563 317 CURVE SMOOTH",
"627 317 OFFCURVE",
"660 305 OFFCURVE",
"660 267 CURVE SMOOTH",
"660 232 OFFCURVE",
"615 199 OFFCURVE",
"546 199 CURVE SMOOTH",
"470 199 OFFCURVE",
"416 237 OFFCURVE",
"426 291 CURVE",
"40 258 LINE",
"31 72 OFFCURVE",
"245 -6 OFFCURVE",
"540 -6 CURVE SMOOTH",
"812 -6 OFFCURVE",
"1040 74 OFFCURVE",
"1040 229 CURVE SMOOTH",
"1040 369 OFFCURVE",
"921 435 OFFCURVE",
"565 435 CURVE SMOOTH"
);
}
);
width = 1068.84507;
}
);
leftKerningGroup = S;
rightKerningGroup = S;
unicode = 0053;
},
{
color = 6;
glyphname = Germandbls;
lastChange = "2021-10-28 08:58:29 +0000";
layers = (
{
layerId = "F6D8640C-383C-48A8-B63C-DDE9F10207CE";
name = Regular;
paths = (
{
closed = 1;
nodes = (
"918 -16 OFFCURVE",
"1058 109 OFFCURVE",
"1058 252 CURVE SMOOTH",
"1058 358 OFFCURVE",
"1004 432 OFFCURVE",
"882 474 CURVE SMOOTH",
"882 474 OFFCURVE",
"992 652 OFFCURVE",
"1051 750 CURVE",
"438 750 LINE",
"159 750 OFFCURVE",
"20 620 OFFCURVE",
"20 429 CURVE SMOOTH",
"20 387 OFFCURVE",
"20 350 OFFCURVE",
"20 306 CURVE SMOOTH",
"20 238 OFFCURVE",
"20 151 OFFCURVE",
"20 0 CURVE",
"418 0 LINE",
"418 145 OFFCURVE",
"418 261 OFFCURVE",
"418 405 CURVE SMOOTH",
"418 486 OFFCURVE",
"465 512 OFFCURVE",
"556 512 CURVE SMOOTH",
"592 512 LINE",
"560 459 OFFCURVE",
"529 405 OFFCURVE",
"497 352 CURVE",
"588 352 LINE SMOOTH",
"646 352 OFFCURVE",
"676 336 OFFCURVE",
"676 307 CURVE SMOOTH",
"676 278 OFFCURVE",
"643 259 OFFCURVE",
"594 259 CURVE SMOOTH",
"532 259 OFFCURVE",
"491 276 OFFCURVE",
"476 314 CURVE",
"476 21 LINE",
"517 -1 OFFCURVE",
"566 -16 OFFCURVE",
"667 -16 CURVE SMOOTH"
);
}
);
width = 1068;
},
{
layerId = "96858A69-C8A6-410B-90BB-94EA0DA45935";
name = "2050";
paths = (
{
closed = 1;
nodes = (
"891 103 OFFCURVE",
"993 147 OFFCURVE",
"993 238 CURVE SMOOTH",
"993 373 OFFCURVE",
"780 317 OFFCURVE",
"780 446 CURVE SMOOTH",
"780 499 OFFCURVE",
"848 606 OFFCURVE",
"934 645 CURVE",
"494 645 LINE",
"294 645 OFFCURVE",
"203 607 OFFCURVE",
"203 505 CURVE SMOOTH",
"203 435 OFFCURVE",
"280 388 OFFCURVE",
"280 312 CURVE SMOOTH",
"280 257 OFFCURVE",
"161 213 OFFCURVE",
"161 115 CURVE",
"356 115 LINE",
"331 198 OFFCURVE",
"324 322 OFFCURVE",
"324 420 CURVE SMOOTH",
"324 553 OFFCURVE",
"369 645 OFFCURVE",
"515 645 CURVE SMOOTH",
"752 645 LINE",
"876 538 OFFCURVE",
"735 417 OFFCURVE",
"661 393 CURVE",
"673 393 LINE SMOOTH",
"769 393 OFFCURVE",
"850 356 OFFCURVE",
"850 267 CURVE SMOOTH",
"850 204 OFFCURVE",
"814 108 OFFCURVE",
"752 108 CURVE SMOOTH",
"705 108 OFFCURVE",
"683 141 OFFCURVE",
"652 193 CURVE",
"552 124 LINE",
"603 110 OFFCURVE",
"688 103 OFFCURVE",
"752 103 CURVE SMOOTH"
);
}
);
width = 1144;
},
{
layerId = "5E5EA508-9E29-4BB2-A27E-EC4DBE9F737B";
name = Regular;
paths = (
{
closed = 1;
nodes = (
"912 9 OFFCURVE",
"1044 117 OFFCURVE",
"1044 249 CURVE SMOOTH",
"1044 361 OFFCURVE",
"957 408 OFFCURVE",
"860 468 CURVE SMOOTH",
"860 479 OFFCURVE",
"962 642 OFFCURVE",
"1026 728 CURVE",
"450 728 LINE",
"188 728 OFFCURVE",
"59 617 OFFCURVE",
"59 445 CURVE SMOOTH",
"59 397 OFFCURVE",
"75 358 OFFCURVE",
"75 307 CURVE SMOOTH",
"75 242 OFFCURVE",
"50 164 OFFCURVE",
"50 24 CURVE",
"405 24 LINE",
"400 156 OFFCURVE",
"398 274 OFFCURVE",
"398 408 CURVE SMOOTH",
"398 500 OFFCURVE",
"445 540 OFFCURVE",
"547 540 CURVE SMOOTH",
"626 540 LINE",
"627 476 OFFCURVE",
"573 408 OFFCURVE",
"532 361 CURVE",
"606 361 LINE SMOOTH",
"672 361 OFFCURVE",
"713 340 OFFCURVE",
"713 299 CURVE SMOOTH",
"713 262 OFFCURVE",
"679 227 OFFCURVE",
"627 227 CURVE SMOOTH",
"569 227 OFFCURVE",
"532 247 OFFCURVE",
"513 288 CURVE",
"492 43 LINE",
"535 22 OFFCURVE",
"592 9 OFFCURVE",
"685 9 CURVE SMOOTH"
);
}
);
width = 1084.05634;
},
{
layerId = "B909D2E0-37C2-42CE-B4A7-1FA9A56E9D28";
name = Regular;
paths = (
{
closed = 1;
nodes = (
"913 6 OFFCURVE",
"1046 116 OFFCURVE",
"1046 249 CURVE SMOOTH",
"1046 361 OFFCURVE",
"963 411 OFFCURVE",
"863 469 CURVE SMOOTH",
"863 478 OFFCURVE",
"966 643 OFFCURVE",
"1029 731 CURVE",
"448 731 LINE",
"184 731 OFFCURVE",
"54 617 OFFCURVE",
"54 443 CURVE SMOOTH",
"54 396 OFFCURVE",
"68 357 OFFCURVE",
"68 307 CURVE SMOOTH",
"68 241 OFFCURVE",
"46 162 OFFCURVE",
"46 21 CURVE",
"407 21 LINE",
"402 155 OFFCURVE",
"401 272 OFFCURVE",
"401 408 CURVE SMOOTH",
"401 498 OFFCURVE",
"448 536 OFFCURVE",
"548 536 CURVE SMOOTH",
"621 536 LINE",
"618 474 OFFCURVE",
"567 408 OFFCURVE",
"527 360 CURVE",
"604 360 LINE SMOOTH",
"669 360 OFFCURVE",
"708 339 OFFCURVE",
"708 300 CURVE SMOOTH",
"708 264 OFFCURVE",
"674 231 OFFCURVE",
"623 231 CURVE SMOOTH",
"564 231 OFFCURVE",
"527 251 OFFCURVE",
"508 291 CURVE",
"490 40 LINE",
"533 19 OFFCURVE",
"589 6 OFFCURVE",
"683 6 CURVE SMOOTH"
);
}
);
width = 1081.91549;
}
);
leftKerningGroup = Germandbls;
rightKerningGroup = Germandbls;
unicode = 1E9E;
},
{
color = 6;
glyphname = Schwa;
lastChange = "2021-10-28 08:58:29 +0000";
layers = (
{
background = {
components = (
{
name = C;
transform = "{-1, 0, 0, -1, 1094, 750}";
}
);
};
layerId = "F6D8640C-383C-48A8-B63C-DDE9F10207CE";
name = Regular;
paths = (
{
closed = 1;
nodes = (
"602 463 OFFCURVE",
"659 441 OFFCURVE",
"660 397 CURVE SMOOTH",
"660 396 OFFCURVE",
"660 396 OFFCURVE",
"659 396 CURVE SMOOTH",
"5 396 LINE",
"5 107 OFFCURVE",
"226 -30 OFFCURVE",
"522 -30 CURVE SMOOTH",
"829 -30 OFFCURVE",
"1076 105 OFFCURVE",
"1076 375 CURVE SMOOTH",
"1076 646 OFFCURVE",
"830 780 OFFCURVE",
"522 780 CURVE SMOOTH",
"279 780 OFFCURVE",
"58 663 OFFCURVE",
"16 513 CURVE",
"384 396 LINE",
"387 443 OFFCURVE",
"441 463 OFFCURVE",
"520 463 CURVE SMOOTH"
);
},
{
closed = 1;
nodes = (
"451 279 OFFCURVE",
"387 302 OFFCURVE",
"387 344 CURVE SMOOTH",
"387 345 OFFCURVE",
"387 346 OFFCURVE",
"388 346 CURVE SMOOTH",
"657 346 LINE SMOOTH",
"659 346 OFFCURVE",
"659 346 OFFCURVE",
"659 344 CURVE SMOOTH",
"659 302 OFFCURVE",
"594 279 OFFCURVE",
"522 279 CURVE SMOOTH"
);
}
);
width = 1086;
},
{
layerId = "96858A69-C8A6-410B-90BB-94EA0DA45935";
name = "2050";
paths = (
{
closed = 1;
nodes = (
"627 654 OFFCURVE",
"702 591 OFFCURVE",
"702 469 CURVE SMOOTH",
"702 424 OFFCURVE",
"701 380 OFFCURVE",
"598 380 CURVE SMOOTH",
"171 380 LINE",
"175 283 OFFCURVE",
"256 95 OFFCURVE",
"528 95 CURVE SMOOTH",
"718 95 OFFCURVE",
"799 148 OFFCURVE",
"842 308 CURVE SMOOTH",
"903 508 OFFCURVE",
"734 660 OFFCURVE",
"542 660 CURVE SMOOTH",
"436 660 OFFCURVE",
"333 608 OFFCURVE",
"304 587 CURVE",
"310 581 LINE",
"350 612 OFFCURVE",
"444 654 OFFCURVE",
"538 654 CURVE SMOOTH"
);
},
{
closed = 1;
nodes = (
"338 100 OFFCURVE",
"323 249 OFFCURVE",
"323 301 CURVE SMOOTH",
"323 341 OFFCURVE",
"344 380 OFFCURVE",
"359 380 CURVE SMOOTH",
"597 380 LINE SMOOTH",
"612 380 OFFCURVE",
"732 371 OFFCURVE",
"732 277 CURVE SMOOTH",
"732 152 OFFCURVE",
"665 100 OFFCURVE",
"545 100 CURVE SMOOTH"
);
}
);
width = 1034;
},
{
layerId = "5E5EA508-9E29-4BB2-A27E-EC4DBE9F737B";
name = Regular;
paths = (
{
closed = 1;
nodes = (
"607 503 OFFCURVE",
"668 473 OFFCURVE",
"669 412 CURVE SMOOTH",
"669 402 OFFCURVE",
"669 393 OFFCURVE",
"646 393 CURVE SMOOTH",
"40 393 LINE",
"41 144 OFFCURVE",
"232 -4 OFFCURVE",
"523 -4 CURVE SMOOTH",
"806 -4 OFFCURVE",
"1017 114 OFFCURVE",
"1027 361 CURVE SMOOTH",
"1039 617 OFFCURVE",
"810 755 OFFCURVE",
"526 755 CURVE SMOOTH",
"312 755 OFFCURVE",
"116 651 OFFCURVE",
"77 529 CURVE",
"368 435 LINE",
"379 479 OFFCURVE",
"442 503 OFFCURVE",
"524 503 CURVE SMOOTH"
);
},
{
closed = 1;
nodes = (
"427 241 OFFCURVE",
"373 291 OFFCURVE",
"373 335 CURVE SMOOTH",
"373 344 OFFCURVE",
"378 353 OFFCURVE",
"382 353 CURVE SMOOTH",
"644 353 LINE SMOOTH",
"649 353 OFFCURVE",
"674 351 OFFCURVE",
"674 330 CURVE SMOOTH",
"674 270 OFFCURVE",
"609 241 OFFCURVE",
"527 241 CURVE SMOOTH"
);
}
);
width = 1075.01408;
},
{
layerId = "B909D2E0-37C2-42CE-B4A7-1FA9A56E9D28";
name = Regular;
paths = (
{
closed = 1;
nodes = (
"606 498 OFFCURVE",
"667 469 OFFCURVE",
"668 410 CURVE SMOOTH",
"668 401 OFFCURVE",
"668 393 OFFCURVE",
"648 393 CURVE SMOOTH",
"35 393 LINE",
"36 139 OFFCURVE",
"231 -7 OFFCURVE",
"523 -7 CURVE SMOOTH",
"809 -7 OFFCURVE",
"1025 113 OFFCURVE",
"1034 363 CURVE SMOOTH",
"1044 621 OFFCURVE",
"813 758 OFFCURVE",
"525 758 CURVE SMOOTH",
"308 758 OFFCURVE",
"108 653 OFFCURVE",
"69 527 CURVE",
"370 430 LINE",
"380 474 OFFCURVE",
"442 498 OFFCURVE",
"523 498 CURVE SMOOTH"
);
},
{
closed = 1;
nodes = (
"430 246 OFFCURVE",
"375 292 OFFCURVE",
"375 336 CURVE SMOOTH",
"375 344 OFFCURVE",
"379 352 OFFCURVE",
"383 352 CURVE SMOOTH",
"646 352 LINE SMOOTH",
"650 352 OFFCURVE",
"672 350 OFFCURVE",
"672 332 CURVE SMOOTH",
"672 274 OFFCURVE",
"607 246 OFFCURVE",
"526 246 CURVE SMOOTH"
);
}
);
width = 1076.47887;
}
);
leftKerningGroup = O;
rightKerningGroup = O;
unicode = 018F;
},
{
color = 6;
glyphname = T;
lastChange = "2021-10-28 08:58:29 +0000";
layers = (
{
anchors = (
{
name = bottom;
position = "{464, 0}";
},
{
name = center;
position = "{464, 375}";
},
{
name = top;
position = "{464, 750}";
}
);
layerId = "F6D8640C-383C-48A8-B63C-DDE9F10207CE";
paths = (
{
closed = 1;
nodes = (
"13 750 LINE",
"13 446 LINE",
"254 446 LINE SMOOTH",
"255 446 OFFCURVE",
"256 445 OFFCURVE",
"256 444 CURVE SMOOTH",
"256 296 OFFCURVE",
"256 148 OFFCURVE",
"256 0 CURVE",
"671 0 LINE",
"671 148 OFFCURVE",
"671 296 OFFCURVE",
"671 444 CURVE SMOOTH",
"671 445 OFFCURVE",
"672 446 OFFCURVE",
"673 446 CURVE SMOOTH",
"914 446 LINE",
"914 750 LINE"
);
}
);
width = 927;
},
{
anchors = (
{
name = bottom;
position = "{440, 0}";
},
{
name = center;
position = "{440, 375}";
},
{
name = top;
position = "{440, 750}";
}
);
background = {
paths = (
{
closed = 1;
nodes = (
"242 571 LINE",
"250 571 OFFCURVE",
"258 570 OFFCURVE",
"265 569 CURVE",
"273 567 OFFCURVE",
"279 565 OFFCURVE",
"285 563 CURVE",
"298 558 OFFCURVE",
"308 551 OFFCURVE",
"316 544 CURVE",
"322 539 OFFCURVE",
"328 534 OFFCURVE",
"332 528 CURVE",
"339 520 OFFCURVE",
"344 512 OFFCURVE",
"349 501 CURVE",
"352 495 OFFCURVE",
"354 488 OFFCURVE",
"356 481 CURVE",
"358 473 OFFCURVE",
"359 464 OFFCURVE",
"359 454 CURVE",
"359 125 LINE",
"544 125 LINE",
"544 454 LINE",
"544 463 OFFCURVE",
"545 470 OFFCURVE",
"546 478 CURVE",
"548 485 OFFCURVE",
"550 492 OFFCURVE",
"552 498 CURVE",
"557 510 OFFCURVE",
"564 520 OFFCURVE",
"571 529 CURVE",
"576 535 OFFCURVE",
"581 540 OFFCURVE",
"587 545 CURVE",
"595 551 OFFCURVE",
"603 557 OFFCURVE",
"614 561 CURVE",
"620 564 OFFCURVE",
"627 566 OFFCURVE",
"634 568 CURVE",
"642 570 OFFCURVE",
"651 571 OFFCURVE",
"661 571 CURVE",
"787 571 LINE",
"787 645 LINE",
"116 645 LINE",
"116 571 LINE"
);
}
);
};
layerId = "96858A69-C8A6-410B-90BB-94EA0DA45935";
paths = (
{
closed = 1;
nodes = (
"142 645 LINE",
"142 640 LINE",
"282 640 LINE SMOOTH",
"419 640 OFFCURVE",
"426 500 OFFCURVE",
"426 375 CURVE SMOOTH",
"426 279 OFFCURVE",
"385 167 OFFCURVE",
"315 115 CURVE",
"520 115 LINE",
"537 160 OFFCURVE",
"479 367 OFFCURVE",
"479 488 CURVE SMOOTH",
"479 567 OFFCURVE",
"501 640 OFFCURVE",
"653 640 CURVE SMOOTH",
"788 640 LINE",
"788 645 LINE"
);
}
);
width = 909;
},
{
anchors = (
{
name = bottom;
position = "{459, 0}";
},
{
name = center;
position = "{459, 375}";
},
{
name = top;
position = "{459, 750}";
}
);
layerId = "5E5EA508-9E29-4BB2-A27E-EC4DBE9F737B";
paths = (
{
closed = 1;
nodes = (
"40 728 LINE",
"40 487 LINE",
"260 487 LINE SMOOTH",
"290 487 OFFCURVE",
"292 457 OFFCURVE",
"292 429 CURVE SMOOTH",
"292 292 OFFCURVE",
"283 152 OFFCURVE",
"268 24 CURVE",
"639 24 LINE",
"643 151 OFFCURVE",
"630 311 OFFCURVE",
"630 453 CURVE SMOOTH",
"630 471 OFFCURVE",
"636 487 OFFCURVE",
"669 487 CURVE SMOOTH",
"887 487 LINE",
"887 728 LINE"
);
}
);
width = 923.19718;
},
{
anchors = (
{
name = bottom;
position = "{460, 0}";
},
{
name = center;
position = "{460, 375}";
},
{
name = top;
position = "{460, 750}";
}
);
layerId = "B909D2E0-37C2-42CE-B4A7-1FA9A56E9D28";
paths = (
{
closed = 1;
nodes = (
"36 731 LINE",
"36 482 LINE",
"259 482 LINE SMOOTH",
"285 482 OFFCURVE",
"287 455 OFFCURVE",
"287 431 CURVE SMOOTH",
"287 293 OFFCURVE",
"279 151 OFFCURVE",
"266 21 CURVE",
"643 21 LINE",
"647 151 OFFCURVE",
"635 309 OFFCURVE",
"635 452 CURVE SMOOTH",
"635 468 OFFCURVE",
"641 482 OFFCURVE",
"670 482 CURVE SMOOTH",
"891 482 LINE",
"891 731 LINE"
);
}
);
width = 923.70423;
}
);
leftKerningGroup = T;
rightKerningGroup = T;
unicode = 0054;
},
{
color = 3;
glyphname = Tbar;
lastChange = "2021-10-28 08:58:29 +0000";
layers = (
{
background = {
anchors = (
{
name = bottom;
position = "{461, 0}";
},
{
name = center;
position = "{461, 375}";
},
{
name = top;
position = "{461, 750}";
}
);
};
components = (
{
name = T;
}
);
layerId = "F6D8640C-383C-48A8-B63C-DDE9F10207CE";
paths = (
{
closed = 1;
nodes = (
"785 229 LINE",
"785 317 LINE",
"140 317 LINE",
"140 229 LINE"
);
}
);
width = 925;
},
{
components = (
{
name = T;
}
);
layerId = "96858A69-C8A6-410B-90BB-94EA0DA45935";
paths = (
{
closed = 1;
nodes = (
"637 327 LINE",
"637 333 LINE",
"277 333 LINE",
"277 327 LINE"
);
}
);
width = 909;
},
{
components = (
{
alignment = -1;
name = T;
}
);
layerId = "5E5EA508-9E29-4BB2-A27E-EC4DBE9F737B";
paths = (
{
closed = 1;
nodes = (
"754 250 LINE",
"754 320 LINE",
"169 320 LINE",
"169 250 LINE"
);
}
);
width = 921.61972;
},
{
components = (
{
alignment = -1;
name = T;
}
);
layerId = "B909D2E0-37C2-42CE-B4A7-1FA9A56E9D28";
paths = (
{
closed = 1;
nodes = (
"758 247 LINE",
"758 320 LINE",
"165 320 LINE",
"165 247 LINE"
);
}
);
width = 922.07042;
}
);
leftKerningGroup = T;
rightKerningGroup = T;
unicode = 0166;
},
{
color = 6;
glyphname = U;
lastChange = "2021-10-28 08:58:29 +0000";
layers = (
{
anchors = (
{
name = bottom;
position = "{504, 0}";
},
{
name = ogonek;
position = "{732, 0}";
},
{
name = top;
position = "{504, 750}";
},
{
name = topright;
position = "{981, 750}";
}
);
background = {
components = (
{
name = O;
transform = "{1, 0, 0, 1, -46, 0}";
}
);
};
layerId = "F6D8640C-383C-48A8-B63C-DDE9F10207CE";
paths = (
{
closed = 1;
nodes = (
"435 750 LINE",
"435 604 OFFCURVE",
"435 482 OFFCURVE",
"435 356 CURVE SMOOTH",
"435 316 OFFCURVE",
"473 296 OFFCURVE",
"510 296 CURVE SMOOTH",
"548 296 OFFCURVE",
"585 316 OFFCURVE",
"585 355 CURVE SMOOTH",
"585 482 OFFCURVE",
"585 603 OFFCURVE",
"585 750 CURVE",
"1000 750 LINE",
"1000 598 OFFCURVE",
"1000 429 OFFCURVE",
"1000 277 CURVE SMOOTH",
"1000 72 OFFCURVE",
"755 -30 OFFCURVE",
"510 -30 CURVE SMOOTH",
"265 -30 OFFCURVE",
"20 72 OFFCURVE",
"20 277 CURVE SMOOTH",
"20 328 OFFCURVE",
"20 382 OFFCURVE",
"20 436 CURVE SMOOTH",
"20 541 OFFCURVE",
"20 649 OFFCURVE",
"20 750 CURVE"
);
}
);
width = 1020;
},
{
anchors = (
{
name = bottom;
position = "{491, 0}";
},
{
name = ogonek;
position = "{672, 115}";
},
{
name = top;
position = "{491, 750}";
},
{
name = topright;
position = "{930, 750}";
}
);
layerId = "96858A69-C8A6-410B-90BB-94EA0DA45935";
name = "2050";
paths = (
{
closed = 1;
nodes = (
"279 645 LINE",
"264 596 OFFCURVE",
"255 539 OFFCURVE",
"255 496 CURVE SMOOTH",
"255 237 OFFCURVE",
"438 151 OFFCURVE",
"617 151 CURVE SMOOTH",
"721 151 OFFCURVE",
"779 195 OFFCURVE",
"779 295 CURVE SMOOTH",
"779 402 OFFCURVE",
"667 549 OFFCURVE",
"652 645 CURVE",
"825 645 LINE",
"800 545 OFFCURVE",
"799 485 OFFCURVE",
"805 376 CURVE SMOOTH",
"816 170 OFFCURVE",
"659 95 OFFCURVE",
"496 95 CURVE SMOOTH",
"323 95 OFFCURVE",
"107 166 OFFCURVE",
"222 323 CURVE SMOOTH",
"245 355 OFFCURVE",
"254 389 OFFCURVE",
"254 423 CURVE SMOOTH",
"254 511 OFFCURVE",
"197 599 OFFCURVE",
"197 645 CURVE"
);
}
);
width = 979;
},
{
anchors = (
{
name = bottom;
position = "{501, 0}";
},
{
name = ogonek;
position = "{719, 24}";
},
{
name = top;
position = "{501, 750}";
},
{
name = topright;
position = "{970, 750}";
}
);
layerId = "5E5EA508-9E29-4BB2-A27E-EC4DBE9F737B";
paths = (
{
closed = 1;
nodes = (
"402 728 LINE",
"399 602 OFFCURVE",
"397 494 OFFCURVE",
"397 386 CURVE SMOOTH",
"397 299 OFFCURVE",
"466 265 OFFCURVE",
"533 265 CURVE SMOOTH",
"585 265 OFFCURVE",
"626 290 OFFCURVE",
"626 342 CURVE SMOOTH",
"626 465 OFFCURVE",
"602 592 OFFCURVE",
"599 728 CURVE",
"963 728 LINE",
"958 587 OFFCURVE",
"958 441 OFFCURVE",
"959 298 CURVE SMOOTH",
"961 93 OFFCURVE",
"735 -4 OFFCURVE",
"507 -4 CURVE SMOOTH",
"277 -4 OFFCURVE",
"38 92 OFFCURVE",
"63 287 CURVE SMOOTH",
"68 334 OFFCURVE",
"69 383 OFFCURVE",
"69 433 CURVE SMOOTH",
"69 535 OFFCURVE",
"57 638 OFFCURVE",
"57 728 CURVE"
);
}
);
width = 1011.33803;
},
{
anchors = (
{
name = bottom;
position = "{501, 0}";
},
{
name = ogonek;
position = "{721, 21}";
},
{
name = top;
position = "{501, 750}";
},
{
name = topright;
position = "{971, 750}";
}
);
layerId = "B909D2E0-37C2-42CE-B4A7-1FA9A56E9D28";
paths = (
{
closed = 1;
nodes = (
"406 731 LINE",
"404 602 OFFCURVE",
"402 492 OFFCURVE",
"402 382 CURVE SMOOTH",
"402 301 OFFCURVE",
"467 269 OFFCURVE",
"530 269 CURVE SMOOTH",
"580 269 OFFCURVE",
"621 293 OFFCURVE",
"621 344 CURVE SMOOTH",
"621 467 OFFCURVE",
"600 593 OFFCURVE",
"597 731 CURVE",
"968 731 LINE",
"964 588 OFFCURVE",
"964 439 OFFCURVE",
"964 295 CURVE SMOOTH",
"966 90 OFFCURVE",
"738 -7 OFFCURVE",
"507 -7 CURVE SMOOTH",
"275 -7 OFFCURVE",
"36 89 OFFCURVE",
"57 286 CURVE SMOOTH",
"62 333 OFFCURVE",
"62 383 OFFCURVE",
"62 433 CURVE SMOOTH",
"62 536 OFFCURVE",
"52 639 OFFCURVE",
"52 731 CURVE"
);
}
);
width = 1012.49296;
}
);
leftKerningGroup = U;
rightKerningGroup = U;
unicode = 0055;
},
{
color = 6;
glyphname = Uogonek;
lastChange = "2021-10-28 08:58:29 +0000";
layers = (
{
background = {
components = (
{
name = U;
}
);
};
layerId = "F6D8640C-383C-48A8-B63C-DDE9F10207CE";
name = Regular;
paths = (
{
closed = 1;
nodes = (
"663 -302 OFFCURVE",
"707 -294 OFFCURVE",
"762 -279 CURVE",
"762 -83 LINE",
"732 -95 OFFCURVE",
"709 -99 OFFCURVE",
"679 -99 CURVE SMOOTH",
"637 -99 OFFCURVE",
"613 -86 OFFCURVE",
"613 -64 CURVE SMOOTH",
"613 -35 OFFCURVE",
"654 -22 OFFCURVE",
"752 7 CURVE SMOOTH",
"841 33 OFFCURVE",
"1000 110 OFFCURVE",
"1000 277 CURVE SMOOTH",
"1000 429 OFFCURVE",
"1000 598 OFFCURVE",
"1000 750 CURVE",
"585 750 LINE",
"585 603 OFFCURVE",
"585 482 OFFCURVE",
"585 355 CURVE SMOOTH",
"585 316 OFFCURVE",
"548 296 OFFCURVE",
"510 296 CURVE SMOOTH",
"473 296 OFFCURVE",
"435 316 OFFCURVE",
"435 356 CURVE SMOOTH",
"435 482 OFFCURVE",
"435 604 OFFCURVE",
"435 750 CURVE",
"20 750 LINE",
"20 661 OFFCURVE",
"20 567 OFFCURVE",
"20 473 CURVE SMOOTH",
"20 407 OFFCURVE",
"20 340 OFFCURVE",
"20 277 CURVE SMOOTH",
"20 105 OFFCURVE",
"191 7 OFFCURVE",
"391 -22 CURVE",
"360 -52 OFFCURVE",
"344 -90 OFFCURVE",
"344 -134 CURVE SMOOTH",
"344 -241 OFFCURVE",
"429 -302 OFFCURVE",
"600 -302 CURVE SMOOTH"
);
}
);
width = 1020;
},
{
background = {
components = (
{
name = U;
transform = "{1, 0, 0, 1, 10, 0}";
}
);
};
layerId = "96858A69-C8A6-410B-90BB-94EA0DA45935";
name = "2050";
paths = (
{
closed = 1;
nodes = (
"600 -104 OFFCURVE",
"646 -76 OFFCURVE",
"674 -33 CURVE",
"674 -32 LINE",
"669 -33 OFFCURVE",
"664 -33 OFFCURVE",
"659 -33 CURVE SMOOTH",
"621 -33 OFFCURVE",
"591 -9 OFFCURVE",
"591 32 CURVE SMOOTH",
"591 66 OFFCURVE",
"603 104 OFFCURVE",
"683 138 CURVE SMOOTH",
"784 181 OFFCURVE",
"837 231 OFFCURVE",
"829 376 CURVE SMOOTH",
"823 485 OFFCURVE",
"824 545 OFFCURVE",
"849 645 CURVE",
"676 645 LINE",
"691 549 OFFCURVE",
"803 407 OFFCURVE",
"803 300 CURVE SMOOTH",
"803 200 OFFCURVE",
"752 156 OFFCURVE",
"641 156 CURVE SMOOTH",
"462 156 OFFCURVE",
"281 247 OFFCURVE",
"281 506 CURVE SMOOTH",
"281 549 OFFCURVE",
"288 596 OFFCURVE",
"303 645 CURVE",
"195 645 LINE",
"249 569 OFFCURVE",
"277 514 OFFCURVE",
"277 460 CURVE SMOOTH",
"277 416 OFFCURVE",
"258 375 OFFCURVE",
"220 323 CURVE SMOOTH",
"105 166 OFFCURVE",
"347 102 OFFCURVE",
"511 102 CURVE",
"737 102 OFFCURVE",
"460 55 OFFCURVE",
"460 -44 CURVE SMOOTH",
"460 -76 OFFCURVE",
"489 -104 OFFCURVE",
"545 -104 CURVE SMOOTH"
);
}
);
width = 1003;
},
{
layerId = "5E5EA508-9E29-4BB2-A27E-EC4DBE9F737B";
name = Regular;
paths = (
{
closed = 1;
nodes = (
"650 -260 OFFCURVE",
"694 -248 OFFCURVE",
"743 -227 CURVE",
"743 -72 LINE",
"719 -82 OFFCURVE",
"699 -85 OFFCURVE",
"675 -85 CURVE SMOOTH",
"634 -85 OFFCURVE",
"608 -70 OFFCURVE",
"608 -44 CURVE SMOOTH",
"608 -14 OFFCURVE",
"643 5 OFFCURVE",
"737 35 CURVE SMOOTH",
"829 64 OFFCURVE",
"966 136 OFFCURVE",
"964 298 CURVE SMOOTH",
"963 441 OFFCURVE",
"963 587 OFFCURVE",
"968 728 CURVE",
"604 728 LINE",
"607 592 OFFCURVE",
"631 466 OFFCURVE",
"631 343 CURVE SMOOTH",
"631 291 OFFCURVE",
"591 266 OFFCURVE",
"538 266 CURVE SMOOTH",
"471 266 OFFCURVE",
"402 301 OFFCURVE",
"402 388 CURVE SMOOTH",
"402 496 OFFCURVE",
"404 602 OFFCURVE",
"407 728 CURVE",
"57 728 LINE",
"68 642 OFFCURVE",
"74 556 OFFCURVE",
"74 470 CURVE SMOOTH",
"74 409 OFFCURVE",
"70 347 OFFCURVE",
"62 287 CURVE SMOOTH",
"38 118 OFFCURVE",
"224 27 OFFCURVE",
"416 4 CURVE",
"440 -19 OFFCURVE",
"369 -59 OFFCURVE",
"369 -115 CURVE SMOOTH",
"369 -206 OFFCURVE",
"442 -260 OFFCURVE",
"588 -260 CURVE SMOOTH"
);
}
);
width = 1016.40845;
},
{
layerId = "B909D2E0-37C2-42CE-B4A7-1FA9A56E9D28";
name = Regular;
paths = (
{
closed = 1;
nodes = (
"652 -266 OFFCURVE",
"696 -254 OFFCURVE",
"746 -234 CURVE",
"746 -73 LINE",
"721 -84 OFFCURVE",
"700 -87 OFFCURVE",
"676 -87 CURVE SMOOTH",
"634 -87 OFFCURVE",
"609 -72 OFFCURVE",
"609 -47 CURVE SMOOTH",
"609 -17 OFFCURVE",
"644 1 OFFCURVE",
"739 31 CURVE SMOOTH",
"831 60 OFFCURVE",
"971 133 OFFCURVE",
"969 295 CURVE SMOOTH",
"968 439 OFFCURVE",
"968 588 OFFCURVE",
"972 731 CURVE",
"601 731 LINE",
"604 593 OFFCURVE",
"625 468 OFFCURVE",
"625 345 CURVE SMOOTH",
"625 294 OFFCURVE",
"585 270 OFFCURVE",
"534 270 CURVE SMOOTH",
"471 270 OFFCURVE",
"406 303 OFFCURVE",
"406 384 CURVE SMOOTH",
"406 494 OFFCURVE",
"408 602 OFFCURVE",
"411 731 CURVE",
"52 731 LINE",
"62 645 OFFCURVE",
"67 557 OFFCURVE",
"67 470 CURVE SMOOTH",
"67 409 OFFCURVE",
"63 346 OFFCURVE",
"56 286 CURVE SMOOTH",
"36 116 OFFCURVE",
"220 24 OFFCURVE",
"413 1 CURVE",
"429 -23 OFFCURVE",
"366 -63 OFFCURVE",
"366 -118 CURVE SMOOTH",
"366 -211 OFFCURVE",
"440 -266 OFFCURVE",
"590 -266 CURVE SMOOTH"
);
}
);
width = 1016.88732;
}
);
leftKerningGroup = U;
leftMetricsKey = U;
rightKerningGroup = U;
rightMetricsKey = U;
unicode = 0172;
},
{
color = 6;
glyphname = V;
lastChange = "2021-10-28 08:58:29 +0000";
layers = (
{
anchors = (
{
name = bottom;
position = "{518, 0}";
},
{
name = top;
position = "{518, 750}";
}
);
layerId = "F6D8640C-383C-48A8-B63C-DDE9F10207CE";
paths = (
{
closed = 1;
nodes = (
"596 750 LINE",
"571 595 OFFCURVE",
"547 439 OFFCURVE",
"522 284 CURVE",
"521 284 OFFCURVE",
"521 284 OFFCURVE",
"520 284 CURVE",
"495 439 OFFCURVE",
"471 595 OFFCURVE",
"446 750 CURVE",
"0 750 LINE",
"75 500 OFFCURVE",
"149 250 OFFCURVE",
"224 0 CURVE",
"803 0 LINE",
"878 250 OFFCURVE",
"953 500 OFFCURVE",
"1028 750 CURVE"
);
}
);
width = 1028;
},
{
anchors = (
{
name = bottom;
position = "{592, 0}";
},
{
name = top;
position = "{592, 750}";
}
);
background = {
paths = (
{
closed = 1;
nodes = (
"702 245 OFFCURVE",
"700 239 OFFCURVE",
"698 233 CURVE",
"694 221 OFFCURVE",
"688 210 OFFCURVE",
"682 201 CURVE",
"677 195 OFFCURVE",
"673 190 OFFCURVE",
"668 186 CURVE",
"662 180 OFFCURVE",
"657 176 OFFCURVE",
"651 172 CURVE",
"644 167 OFFCURVE",
"637 164 OFFCURVE",
"631 162 CURVE",
"623 158 OFFCURVE",
"616 156 OFFCURVE",
"609 155 CURVE",
"601 153 OFFCURVE",
"593 153 OFFCURVE",
"585 153 CURVE",
"579 153 OFFCURVE",
"574 153 OFFCURVE",
"567 154 CURVE",
"561 155 OFFCURVE",
"555 156 OFFCURVE",
"547 159 CURVE",
"542 160 OFFCURVE",
"537 163 OFFCURVE",
"531 166 CURVE",
"523 170 OFFCURVE",
"514 175 OFFCURVE",
"504 184 CURVE",
"499 189 OFFCURVE",
"493 195 OFFCURVE",
"488 202 CURVE",
"482 210 OFFCURVE",
"477 220 OFFCURVE",
"473 231 CURVE",
"471 237 OFFCURVE",
"469 244 OFFCURVE",
"468 251 CURVE",
"402 635 LINE",
"157 635 LINE",
"161 621 OFFCURVE",
"166 606 OFFCURVE",
"171 591 CURVE",
"206 481 OFFCURVE",
"250 344 OFFCURVE",
"285 233 CURVE",
"299 188 OFFCURVE",
"312 147 OFFCURVE",
"323 115 CURVE",
"829 115 LINE",
"839 145 OFFCURVE",
"851 182 OFFCURVE",
"864 223 CURVE",
"898 331 OFFCURVE",
"941 466 OFFCURVE",
"976 577 CURVE",
"982 597 OFFCURVE",
"988 617 OFFCURVE",
"994 635 CURVE",
"768 635 LINE",
"703 252 LINE"
);
}
);
};
layerId = "96858A69-C8A6-410B-90BB-94EA0DA45935";
paths = (
{
closed = 1;
nodes = (
"864 645 LINE",
"870 566 OFFCURVE",
"862 115 OFFCURVE",
"636 115 CURVE SMOOTH",
"607 115 OFFCURVE",
"623 115 OFFCURVE",
"610 115 CURVE SMOOTH",
"365 115 OFFCURVE",
"336 520 OFFCURVE",
"336 645 CURVE",
"173 645 LINE",
"251 488 OFFCURVE",
"335 278 OFFCURVE",
"350 115 CURVE",
"823 115 LINE",
"794 382 OFFCURVE",
"983 609 OFFCURVE",
"993 645 CURVE"
);
}
);
width = 1143;
},
{
anchors = (
{
name = bottom;
position = "{534, 0}";
},
{
name = top;
position = "{534, 750}";
}
);
layerId = "5E5EA508-9E29-4BB2-A27E-EC4DBE9F737B";
paths = (
{
closed = 1;
nodes = (
"653 728 LINE",
"634 589 OFFCURVE",
"614 371 OFFCURVE",
"546 248 CURVE",
"539 248 OFFCURVE",
"543 248 OFFCURVE",
"539 248 CURVE",
"468 371 OFFCURVE",
"442 579 OFFCURVE",
"423 728 CURVE",
"37 728 LINE",
"112 497 OFFCURVE",
"188 256 OFFCURVE",
"251 24 CURVE",
"807 24 LINE",
"860 278 OFFCURVE",
"959 523 OFFCURVE",
"1021 728 CURVE"
);
}
);
width = 1052.29577;
},
{
anchors = (
{
name = bottom;
position = "{532, 0}";
},
{
name = top;
position = "{532, 750}";
}
);
layerId = "B909D2E0-37C2-42CE-B4A7-1FA9A56E9D28";
paths = (
{
closed = 1;
nodes = (
"645 731 LINE",
"626 590 OFFCURVE",
"605 380 OFFCURVE",
"543 253 CURVE",
"537 253 OFFCURVE",
"540 253 OFFCURVE",
"536 253 CURVE",
"472 380 OFFCURVE",
"446 581 OFFCURVE",
"426 731 CURVE",
"32 731 LINE",
"107 497 OFFCURVE",
"183 255 OFFCURVE",
"247 21 CURVE",
"806 21 LINE",
"862 274 OFFCURVE",
"958 520 OFFCURVE",
"1022 731 CURVE"
);
}
);
width = 1049.05634;
}
);
leftKerningGroup = V;
rightKerningGroup = V;
unicode = 0056;
},
{
color = 6;
glyphname = W;
lastChange = "2021-10-28 08:58:29 +0000";
layers = (
{
anchors = (
{
name = bottom;
position = "{687, 0}";
},
{
name = top;
position = "{687, 750}";
}
);
layerId = "96858A69-C8A6-410B-90BB-94EA0DA45935";
paths = (
{
closed = 1;
nodes = (
"1088 579 OFFCURVE",
"1118 496 OFFCURVE",
"1122 394 CURVE SMOOTH",
"1132 140 OFFCURVE",
"844 196 OFFCURVE",
"833 261 CURVE SMOOTH",
"767 645 LINE",
"618 645 LINE",
"539 250 LINE SMOOTH",
"531 212 OFFCURVE",
"409 159 OFFCURVE",
"344 271 CURVE SMOOTH",
"299 348 OFFCURVE",
"266 522 OFFCURVE",
"305 645 CURVE",
"202 645 LINE",
"212 555 OFFCURVE",
"360 314 OFFCURVE",
"335 115 CURVE",
"512 115 LINE",
"585 480 LINE SMOOTH",
"607 589 OFFCURVE",
"778 580 OFFCURVE",
"795 482 CURVE SMOOTH",
"858 115 LINE",
"1138 115 LINE",
"1138 349 OFFCURVE",
"1239 471 OFFCURVE",
"1260 645 CURVE",
"1056 645 LINE"
);
}
);
width = 1407;
},
{
anchors = (
{
name = bottom;
position = "{692, 0}";
},
{
name = top;
position = "{692, 750}";
}
);
background = {
anchors = (
{
name = bottom;
position = "{657.759, 0}";
},
{
name = top;
position = "{657.759, 750}";
}
);
};
layerId = "F6D8640C-383C-48A8-B63C-DDE9F10207CE";
name = Regular;
paths = (
{
closed = 1;
nodes = (
"955 613 OFFCURVE",
"934 477 OFFCURVE",
"914 340 CURVE",
"914 340 OFFCURVE",
"912 340 OFFCURVE",
"912 340 CURVE SMOOTH",
"853 750 LINE",
"552 750 LINE",
"496 340 LINE SMOOTH",
"496 340 OFFCURVE",
"492 340 OFFCURVE",
"491 340 CURVE",
"471 477 OFFCURVE",
"450 613 OFFCURVE",
"430 750 CURVE",
"4 750 LINE",
"65 500 OFFCURVE",
"126 250 OFFCURVE",
"186 0 CURVE",
"620 0 LINE",
"679 376 LINE SMOOTH",
"679 379 OFFCURVE",
"682 378 OFFCURVE",
"682 376 CURVE SMOOTH",
"742 0 LINE",
"1207 0 LINE",
"1264 250 OFFCURVE",
"1322 500 OFFCURVE",
"1380 750 CURVE",
"975 750 LINE"
);
}
);
width = 1384;
},
{
anchors = (
{
name = bottom;
position = "{691, 0}";
},
{
name = top;
position = "{691, 750}";
}
);
layerId = "5E5EA508-9E29-4BB2-A27E-EC4DBE9F737B";
name = Regular;
paths = (
{
closed = 1;
nodes = (
"983 606 OFFCURVE",
"973 481 OFFCURVE",
"958 351 CURVE",
"960 298 OFFCURVE",
"898 310 OFFCURVE",
"895 323 CURVE SMOOTH",
"835 728 LINE",
"566 728 LINE",
"505 321 LINE SMOOTH",
"503 313 OFFCURVE",
"474 302 OFFCURVE",
"460 325 CURVE",
"435 450 OFFCURVE",
"411 594 OFFCURVE",
"404 728 CURVE",
"46 728 LINE",
"96 512 OFFCURVE",
"175 264 OFFCURVE",
"217 24 CURVE",
"597 24 LINE",
"659 398 LINE SMOOTH",
"664 423 OFFCURVE",
"702 421 OFFCURVE",
"706 398 CURVE SMOOTH",
"767 24 LINE",
"1192 24 LINE",
"1237 271 OFFCURVE",
"1304 494 OFFCURVE",
"1355 728 CURVE",
"992 728 LINE"
);
}
);
width = 1388.85915;
},
{
anchors = (
{
name = bottom;
position = "{691, 0}";
},
{
name = top;
position = "{691, 750}";
}
);
layerId = "B909D2E0-37C2-42CE-B4A7-1FA9A56E9D28";
name = Regular;
paths = (
{
closed = 1;
nodes = (
"979 607 OFFCURVE",
"968 480 OFFCURVE",
"952 350 CURVE",
"954 304 OFFCURVE",
"900 314 OFFCURVE",
"897 325 CURVE SMOOTH",
"837 731 LINE",
"564 731 LINE",
"504 324 LINE SMOOTH",
"502 317 OFFCURVE",
"476 307 OFFCURVE",
"464 327 CURVE",
"440 454 OFFCURVE",
"416 597 OFFCURVE",
"407 731 CURVE",
"40 731 LINE",
"92 510 OFFCURVE",
"168 262 OFFCURVE",
"213 21 CURVE",
"600 21 LINE",
"662 395 LINE SMOOTH",
"666 417 OFFCURVE",
"699 415 OFFCURVE",
"703 395 CURVE SMOOTH",
"764 21 LINE",
"1194 21 LINE",
"1241 268 OFFCURVE",
"1306 495 OFFCURVE",
"1358 731 CURVE",
"990 731 LINE"
);
}
);
width = 1388.21127;
}
);
leftKerningGroup = W;
rightKerningGroup = W;
unicode = 0057;
},
{
color = 6;
glyphname = X;
lastChange = "2021-10-28 08:58:29 +0000";
layers = (
{
anchors = (
{
name = bottom;
position = "{504, 0}";
},
{
name = top;
position = "{504, 750}";
}
);
layerId = "F6D8640C-383C-48A8-B63C-DDE9F10207CE";
paths = (
{
closed = 1;
nodes = (
"524 377 OFFCURVE",
"523 378 OFFCURVE",
"523 380 CURVE SMOOTH",
"454 750 LINE",
"4 750 LINE",
"56 628 OFFCURVE",
"98 506 OFFCURVE",
"150 384 CURVE",
"150 383 OFFCURVE",
"150 383 OFFCURVE",
"150 382 CURVE",
"98 255 OFFCURVE",
"56 127 OFFCURVE",
"4 0 CURVE",
"439 0 LINE",
"523 371 LINE SMOOTH",
"523 372 OFFCURVE",
"524 374 OFFCURVE",
"524 375 CURVE"
);
},
{
closed = 1;
nodes = (
"492 321 OFFCURVE",
"493 319 OFFCURVE",
"493 318 CURVE",
"564 0 LINE",
"1016 0 LINE",
"965 122 OFFCURVE",
"923 244 OFFCURVE",
"872 366 CURVE",
"872 367 OFFCURVE",
"872 367 OFFCURVE",
"872 368 CURVE",
"922 495 OFFCURVE",
"963 623 OFFCURVE",
"1013 750 CURVE",
"579 750 LINE",
"550 609 OFFCURVE",
"522 467 OFFCURVE",
"493 326 CURVE",
"493 325 OFFCURVE",
"492 323 OFFCURVE",
"492 322 CURVE"
);
}
);
width = 1020;
},
{
anchors = (
{
name = bottom;
position = "{561, 0}";
},
{
name = top;
position = "{561, 750}";
}
);
background = {
paths = (
{
closed = 1;
nodes = (
"938 645 LINE",
"703 645 LINE",
"656 420 LINE",
"653 401 OFFCURVE",
"644 384 OFFCURVE",
"633 370 CURVE",
"645 358 OFFCURVE",
"654 342 OFFCURVE",
"659 324 CURVE",
"719 125 LINE",
"938 125 LINE",
"842 328 LINE",
"828 358 OFFCURVE",
"827 393 OFFCURVE",
"841 424 CURVE"
);
},
{
closed = 1;
nodes = (
"183 645 LINE",
"266 438 LINE",
"277 410 OFFCURVE",
"277 379 OFFCURVE",
"265 351 CURVE",
"171 125 LINE",
"392 125 LINE",
"437 318 LINE",
"441 335 OFFCURVE",
"449 351 OFFCURVE",
"460 365 CURVE",
"446 380 OFFCURVE",
"436 399 OFFCURVE",
"431 421 CURVE",
"386 645 LINE"
);
}
);
};
guideLines = (
{
locked = 1;
position = "{818, 372}";
}
);
layerId = "96858A69-C8A6-410B-90BB-94EA0DA45935";
paths = (
{
closed = 1;
nodes = (
"444 372 OFFCURVE",
"413 396 OFFCURVE",
"408 444 CURVE SMOOTH",
"386 645 LINE",
"213 645 LINE",
"274 584 OFFCURVE",
"308 551 OFFCURVE",
"348 506 CURVE SMOOTH",
"446 394 OFFCURVE",
"368 324 OFFCURVE",
"321 269 CURVE SMOOTH",
"253 188 OFFCURVE",
"223 153 OFFCURVE",
"177 115 CURVE",
"371 115 LINE",
"383 180 LINE SMOOTH",
"402 281 OFFCURVE",
"420 372 OFFCURVE",
"479 372 CURVE"
);
},
{
closed = 1;
nodes = (
"680 372 OFFCURVE",
"684 340 OFFCURVE",
"695 218 CURVE SMOOTH",
"704 115 LINE",
"950 115 LINE",
"929 123 OFFCURVE",
"817 243 OFFCURVE",
"793 266 CURVE SMOOTH",
"736 320 OFFCURVE",
"706 372 OFFCURVE",
"758 444 CURVE SMOOTH",
"798 499 OFFCURVE",
"847 568 OFFCURVE",
"896 645 CURVE",
"711 645 LINE",
"711 553 OFFCURVE",
"725 502 OFFCURVE",
"710 454 CURVE SMOOTH",
"692 396 OFFCURVE",
"630 372 OFFCURVE",
"597 372 CURVE"
);
}
);
width = 1122;
},
{
anchors = (
{
name = bottom;
position = "{516, 0}";
},
{
name = top;
position = "{516, 750}";
}
);
layerId = "5E5EA508-9E29-4BB2-A27E-EC4DBE9F737B";
paths = (
{
closed = 1;
nodes = (
"507 376 OFFCURVE",
"500 382 OFFCURVE",
"499 394 CURVE SMOOTH",
"440 728 LINE",
"48 728 LINE",
"102 619 OFFCURVE",
"142 516 OFFCURVE",
"192 410 CURVE",
"213 385 OFFCURVE",
"196 371 OFFCURVE",
"186 358 CURVE",
"131 241 OFFCURVE",
"91 132 OFFCURVE",
"41 24 CURVE",
"425 24 LINE",
"493 331 LINE SMOOTH",
"497 353 OFFCURVE",
"502 374 OFFCURVE",
"514 374 CURVE"
);
},
{
closed = 1;
nodes = (
"532 332 OFFCURVE",
"533 323 OFFCURVE",
"536 297 CURVE",
"594 24 LINE",
"1002 24 LINE",
"957 122 OFFCURVE",
"901 244 OFFCURVE",
"855 345 CURVE",
"843 357 OFFCURVE",
"837 368 OFFCURVE",
"848 384 CURVE",
"896 496 OFFCURVE",
"938 611 OFFCURVE",
"988 728 CURVE",
"607 728 LINE",
"584 597 OFFCURVE",
"565 474 OFFCURVE",
"539 353 CURVE",
"535 340 OFFCURVE",
"521 333 OFFCURVE",
"514 333 CURVE"
);
}
);
width = 1041.5493;
},
{
anchors = (
{
name = bottom;
position = "{514, 0}";
},
{
name = top;
position = "{514, 750}";
}
);
layerId = "B909D2E0-37C2-42CE-B4A7-1FA9A56E9D28";
paths = (
{
closed = 1;
nodes = (
"509 376 OFFCURVE",
"503 381 OFFCURVE",
"502 392 CURVE SMOOTH",
"442 731 LINE",
"42 731 LINE",
"96 620 OFFCURVE",
"136 515 OFFCURVE",
"186 407 CURVE",
"205 385 OFFCURVE",
"190 373 OFFCURVE",
"181 361 CURVE",
"127 243 OFFCURVE",
"86 131 OFFCURVE",
"36 21 CURVE",
"427 21 LINE",
"497 336 LINE SMOOTH",
"500 356 OFFCURVE",
"505 374 OFFCURVE",
"515 374 CURVE"
);
},
{
closed = 1;
nodes = (
"527 331 OFFCURVE",
"528 322 OFFCURVE",
"530 300 CURVE",
"590 21 LINE",
"1004 21 LINE",
"958 122 OFFCURVE",
"904 244 OFFCURVE",
"857 348 CURVE",
"847 358 OFFCURVE",
"842 368 OFFCURVE",
"851 382 CURVE",
"899 496 OFFCURVE",
"941 613 OFFCURVE",
"991 731 CURVE",
"603 731 LINE",
"579 599 OFFCURVE",
"559 473 OFFCURVE",
"533 349 CURVE",
"529 338 OFFCURVE",
"517 332 OFFCURVE",
"511 332 CURVE"
);
}
);
width = 1038.67606;
}
);
leftKerningGroup = X;
rightKerningGroup = X;
unicode = 0058;
},
{
color = 6;
glyphname = Y;
lastChange = "2021-10-28 08:58:29 +0000";
layers = (
{
anchors = (
{
name = bottom;
position = "{557, 0}";
},
{
name = top;
position = "{557, 750}";
},
{
name = topleft;
position = "{18, 750}";
}
);
layerId = "F6D8640C-383C-48A8-B63C-DDE9F10207CE";
paths = (
{
closed = 1;
nodes = (
"610 654 OFFCURVE",
"583 558 OFFCURVE",
"556 462 CURVE",
"556 461 OFFCURVE",
"554 461 OFFCURVE",
"554 462 CURVE",
"529 558 OFFCURVE",
"503 654 OFFCURVE",
"478 750 CURVE",
"-2 750 LINE",
"114 550 OFFCURVE",
"229 351 OFFCURVE",
"345 151 CURVE",
"345 151 OFFCURVE",
"345 151 OFFCURVE",
"345 151 CURVE SMOOTH",
"345 0 LINE",
"760 0 LINE",
"760 150 LINE SMOOTH",
"760 150 OFFCURVE",
"760 150 OFFCURVE",
"760 150 CURVE",
"870 350 OFFCURVE",
"981 550 OFFCURVE",
"1091 750 CURVE",
"637 750 LINE"
);
}
);
width = 1089;
},
{
anchors = (
{
name = bottom;
position = "{540, 0}";
},
{
name = top;
position = "{540, 750}";
},
{
name = topleft;
position = "{13, 750}";
}
);
background = {
paths = (
{
closed = 1;
nodes = (
"519 244 OFFCURVE",
"484 262 OFFCURVE",
"462 291 CURVE",
"452 305 OFFCURVE",
"444 321 OFFCURVE",
"441 339 CURVE",
"375 645 LINE",
"193 645 LINE",
"429 216 LINE",
"438 199 OFFCURVE",
"443 179 OFFCURVE",
"443 159 CURVE",
"442 125 LINE",
"661 125 LINE",
"661 161 LINE",
"661 179 OFFCURVE",
"665 198 OFFCURVE",
"674 214 CURVE",
"900 645 LINE",
"739 645 LINE",
"669 338 LINE",
"658 285 OFFCURVE",
"611 244 OFFCURVE",
"555 244 CURVE"
);
}
);
};
layerId = "96858A69-C8A6-410B-90BB-94EA0DA45935";
paths = (
{
closed = 1;
nodes = (
"755 525 OFFCURVE",
"726 364 OFFCURVE",
"682 310 CURVE SMOOTH",
"609 221 OFFCURVE",
"490 248 OFFCURVE",
"452 344 CURVE SMOOTH",
"415 438 OFFCURVE",
"438 557 OFFCURVE",
"438 645 CURVE",
"256 645 LINE",
"316 516 OFFCURVE",
"347 511 OFFCURVE",
"419 320 CURVE SMOOTH",
"439 267 OFFCURVE",
"445 222 OFFCURVE",
"445 186 CURVE SMOOTH",
"445 115 LINE",
"654 115 LINE",
"654 126 LINE SMOOTH",
"654 183 OFFCURVE",
"655 242 OFFCURVE",
"686 301 CURVE SMOOTH",
"752 426 OFFCURVE",
"827 520 OFFCURVE",
"853 645 CURVE",
"702 645 LINE"
);
}
);
width = 1083;
},
{
anchors = (
{
name = bottom;
position = "{553, 0}";
},
{
name = top;
position = "{553, 750}";
},
{
name = topleft;
position = "{17, 750}";
}
);
layerId = "5E5EA508-9E29-4BB2-A27E-EC4DBE9F737B";
paths = (
{
closed = 1;
nodes = (
"641 627 OFFCURVE",
"613 517 OFFCURVE",
"583 430 CURVE",
"567 410 OFFCURVE",
"540 416 OFFCURVE",
"532 437 CURVE",
"505 533 OFFCURVE",
"489 634 OFFCURVE",
"470 728 CURVE",
"53 728 LINE",
"157 543 OFFCURVE",
"254 385 OFFCURVE",
"361 187 CURVE",
"365 176 OFFCURVE",
"366 166 OFFCURVE",
"366 158 CURVE SMOOTH",
"366 24 LINE",
"738 24 LINE",
"738 145 LINE SMOOTH",
"738 157 OFFCURVE",
"738 169 OFFCURVE",
"744 182 CURVE",
"845 366 OFFCURVE",
"948 544 OFFCURVE",
"1041 728 CURVE",
"651 728 LINE"
);
}
);
width = 1087.73239;
},
{
anchors = (
{
name = bottom;
position = "{554, 0}";
},
{
name = top;
position = "{554, 750}";
},
{
name = topleft;
position = "{17, 750}";
}
);
layerId = "B909D2E0-37C2-42CE-B4A7-1FA9A56E9D28";
paths = (
{
closed = 1;
nodes = (
"637 631 OFFCURVE",
"609 522 OFFCURVE",
"579 434 CURVE",
"566 417 OFFCURVE",
"542 422 OFFCURVE",
"535 440 CURVE",
"508 536 OFFCURVE",
"491 637 OFFCURVE",
"471 731 CURVE",
"46 731 LINE",
"151 544 OFFCURVE",
"251 380 OFFCURVE",
"359 182 CURVE",
"362 173 OFFCURVE",
"363 164 OFFCURVE",
"363 157 CURVE SMOOTH",
"363 21 LINE",
"741 21 LINE",
"741 146 LINE SMOOTH",
"741 156 OFFCURVE",
"741 166 OFFCURVE",
"746 178 CURVE",
"848 364 OFFCURVE",
"952 545 OFFCURVE",
"1048 731 CURVE",
"649 731 LINE"
);
}
);
width = 1087.90141;
}
);
leftKerningGroup = Y;
rightKerningGroup = Y;
unicode = 0059;
},
{
color = 6;
glyphname = Yhook;
lastChange = "2021-10-28 08:58:29 +0000";
layers = (
{
anchors = (
{
name = bottom;
position = "{540, 0}";
},
{
name = top;
position = "{540, 750}";
},
{
name = topleft;
position = "{13, 750}";
}
);
layerId = "96858A69-C8A6-410B-90BB-94EA0DA45935";
paths = (
{
closed = 1;
nodes = (
"654 115 LINE",
"654 126 LINE SMOOTH",
"654 183 OFFCURVE",
"655 242 OFFCURVE",
"686 301 CURVE SMOOTH",
"752 426 OFFCURVE",
"796 508 OFFCURVE",
"815 535 CURVE SMOOTH",
"839 569 OFFCURVE",
"869 577 OFFCURVE",
"895 571 CURVE",
"895 666 LINE",
"891 666 OFFCURVE",
"888 666 OFFCURVE",
"884 666 CURVE SMOOTH",
"758 659 OFFCURVE",
"731 590 OFFCURVE",
"731 497 CURVE SMOOTH",
"731 417 OFFCURVE",
"709 343 OFFCURVE",
"682 310 CURVE SMOOTH",
"609 221 OFFCURVE",
"490 248 OFFCURVE",
"452 344 CURVE SMOOTH",
"415 438 OFFCURVE",
"438 557 OFFCURVE",
"438 645 CURVE",
"256 645 LINE",
"316 516 OFFCURVE",
"347 511 OFFCURVE",
"419 320 CURVE SMOOTH",
"439 267 OFFCURVE",
"445 222 OFFCURVE",
"445 186 CURVE SMOOTH",
"445 115 LINE"
);
}
);
width = 1083;
},
{
anchors = (
{
name = bottom;
position = "{557, 0}";
},
{
name = top;
position = "{557, 750}";
},
{
name = topleft;
position = "{18, 750}";
}
);
layerId = "F6D8640C-383C-48A8-B63C-DDE9F10207CE";
name = Regular;
paths = (
{
closed = 1;
nodes = (
"760 0 LINE",
"760 150 LINE SMOOTH",
"760 150 OFFCURVE",
"760 150 OFFCURVE",
"760 150 CURVE",
"826 270 OFFCURVE",
"894 388 OFFCURVE",
"926 449 CURVE SMOOTH",
"954 503 OFFCURVE",
"985 536 OFFCURVE",
"1060 512 CURVE",
"1060 750 LINE",
"1017 763 OFFCURVE",
"949 776 OFFCURVE",
"856 776 CURVE SMOOTH",
"740 776 OFFCURVE",
"646 733 OFFCURVE",
"613 637 CURVE SMOOTH",
"595 583 OFFCURVE",
"576 523 OFFCURVE",
"556 462 CURVE",
"556 461 OFFCURVE",
"554 461 OFFCURVE",
"554 462 CURVE",
"529 558 OFFCURVE",
"503 654 OFFCURVE",
"478 750 CURVE",
"-2 750 LINE",
"114 550 OFFCURVE",
"229 351 OFFCURVE",
"345 151 CURVE",
"345 151 OFFCURVE",
"345 151 OFFCURVE",
"345 151 CURVE SMOOTH",
"345 0 LINE"
);
}
);
width = 1089;
},
{
anchors = (
{
name = bottom;
position = "{553, 0}";
},
{
name = top;
position = "{553, 750}";
},
{
name = topleft;
position = "{17, 750}";
}
);
layerId = "5E5EA508-9E29-4BB2-A27E-EC4DBE9F737B";
name = Regular;
paths = (
{
closed = 1;
nodes = (
"738 24 LINE",
"738 145 LINE SMOOTH",
"738 157 OFFCURVE",
"738 169 OFFCURVE",
"744 182 CURVE",
"810 303 OFFCURVE",
"873 413 OFFCURVE",
"903 467 CURVE SMOOTH",
"930 517 OFFCURVE",
"960 545 OFFCURVE",
"1025 524 CURVE",
"1025 732 LINE",
"990 743 OFFCURVE",
"936 753 OFFCURVE",
"862 753 CURVE SMOOTH",
"744 751 OFFCURVE",
"664 703 OFFCURVE",
"638 607 CURVE SMOOTH",
"624 548 OFFCURVE",
"604 485 OFFCURVE",
"583 430 CURVE",
"567 410 OFFCURVE",
"540 416 OFFCURVE",
"532 437 CURVE",
"505 533 OFFCURVE",
"489 634 OFFCURVE",
"470 728 CURVE",
"53 728 LINE",
"157 543 OFFCURVE",
"254 385 OFFCURVE",
"361 187 CURVE",
"365 176 OFFCURVE",
"366 166 OFFCURVE",
"366 158 CURVE SMOOTH",
"366 24 LINE"
);
}
);
width = 1087.73239;
},
{
anchors = (
{
name = bottom;
position = "{554, 0}";
},
{
name = top;
position = "{554, 750}";
},
{
name = topleft;
position = "{17, 750}";
}
);
layerId = "B909D2E0-37C2-42CE-B4A7-1FA9A56E9D28";
name = Regular;
paths = (
{
closed = 1;
nodes = (
"741 21 LINE",
"741 146 LINE SMOOTH",
"741 156 OFFCURVE",
"741 166 OFFCURVE",
"746 178 CURVE",
"812 299 OFFCURVE",
"876 410 OFFCURVE",
"906 465 CURVE SMOOTH",
"933 515 OFFCURVE",
"963 544 OFFCURVE",
"1030 522 CURVE",
"1030 734 LINE",
"994 746 OFFCURVE",
"938 756 OFFCURVE",
"861 756 CURVE SMOOTH",
"743 754 OFFCURVE",
"662 707 OFFCURVE",
"635 611 CURVE SMOOTH",
"620 553 OFFCURVE",
"600 490 OFFCURVE",
"579 434 CURVE",
"566 417 OFFCURVE",
"542 422 OFFCURVE",
"535 440 CURVE",
"508 536 OFFCURVE",
"491 637 OFFCURVE",
"471 731 CURVE",
"46 731 LINE",
"151 544 OFFCURVE",
"251 380 OFFCURVE",
"359 182 CURVE",
"362 173 OFFCURVE",
"363 164 OFFCURVE",
"363 157 CURVE SMOOTH",
"363 21 LINE"
);
}
);
width = 1087.90141;
}
);
leftKerningGroup = Y;
rightKerningGroup = Yhook;
unicode = 01B3;
},
{
color = 6;
glyphname = Z;
lastChange = "2021-10-28 08:58:29 +0000";
layers = (
{
anchors = (
{
name = bottom;
position = "{447, 0}";
},
{
name = center;
position = "{447, 375}";
},
{
name = top;
position = "{447, 750}";
}
);
background = {
anchors = (
{
name = bottom;
position = "{446.048, 0}";
},
{
name = center;
position = "{446.048, 375}";
},
{
name = top;
position = "{446.048, 750}";
}
);
};
layerId = "F6D8640C-383C-48A8-B63C-DDE9F10207CE";
paths = (
{
closed = 1;
nodes = (
"16 750 LINE",
"16 452 LINE",
"333 452 LINE SMOOTH",
"334 452 OFFCURVE",
"334 451 OFFCURVE",
"334 451 CURVE",
"-13 0 LINE",
"886 0 LINE",
"886 299 LINE",
"595 299 LINE SMOOTH",
"594 299 OFFCURVE",
"593 299 OFFCURVE",
"594 300 CURVE",
"910 750 LINE"
);
}
);
width = 902;
},
{
anchors = (
{
name = bottom;
position = "{452, 0}";
},
{
name = center;
position = "{452, 375}";
},
{
name = top;
position = "{452, 750}";
}
);
background = {
paths = (
{
closed = 1;
nodes = (
"328 575 LINE",
"372 575 OFFCURVE",
"412 550 OFFCURVE",
"431 511 CURVE",
"451 471 OFFCURVE",
"446 424 OFFCURVE",
"419 390 CURVE",
"214 125 LINE",
"747 125 LINE",
"747 196 LINE",
"586 196 LINE",
"543 196 OFFCURVE",
"504 220 OFFCURVE",
"484 258 CURVE",
"464 296 OFFCURVE",
"467 342 OFFCURVE",
"492 377 CURVE",
"681 645 LINE",
"130 645 LINE",
"130 575 LINE"
);
}
);
};
layerId = "96858A69-C8A6-410B-90BB-94EA0DA45935";
paths = (
{
closed = 1;
nodes = (
"142 645 LINE",
"142 575 LINE",
"451 575 LINE SMOOTH",
"507 575 OFFCURVE",
"551 507 OFFCURVE",
"504 449 CURVE",
"247 115 LINE",
"759 115 LINE",
"759 196 LINE",
"444 196 LINE SMOOTH",
"368 196 OFFCURVE",
"353 257 OFFCURVE",
"397 310 CURVE",
"655 645 LINE"
);
}
);
width = 902;
},
{
anchors = (
{
name = bottom;
position = "{448, 0}";
},
{
name = center;
position = "{448, 375}";
},
{
name = top;
position = "{448, 750}";
}
);
layerId = "5E5EA508-9E29-4BB2-A27E-EC4DBE9F737B";
paths = (
{
closed = 1;
nodes = (
"43 728 LINE",
"43 478 LINE",
"358 478 LINE SMOOTH",
"371 478 OFFCURVE",
"380 463 OFFCURVE",
"370 451 CURVE",
"42 24 LINE",
"859 24 LINE",
"859 277 LINE",
"563 277 LINE SMOOTH",
"546 277 OFFCURVE",
"542 290 OFFCURVE",
"552 302 CURVE",
"856 728 LINE"
);
}
);
width = 902;
},
{
anchors = (
{
name = bottom;
position = "{448, 0}";
},
{
name = center;
position = "{448, 375}";
},
{
name = top;
position = "{448, 750}";
}
);
layerId = "B909D2E0-37C2-42CE-B4A7-1FA9A56E9D28";
paths = (
{
closed = 1;
nodes = (
"39 731 LINE",
"39 475 LINE",
"355 475 LINE SMOOTH",
"366 475 OFFCURVE",
"374 461 OFFCURVE",
"365 451 CURVE",
"35 21 LINE",
"863 21 LINE",
"863 280 LINE",
"567 280 LINE SMOOTH",
"552 280 OFFCURVE",
"549 291 OFFCURVE",
"558 302 CURVE",
"863 731 LINE"
);
}
);
width = 902;
}
);
leftKerningGroup = Z;
rightKerningGroup = Z;
unicode = 005A;
},
{
color = 6;
glyphname = a;
lastChange = "2021-10-28 08:58:29 +0000";
layers = (
{
anchors = (
{
name = bottom;
position = "{422, 0}";
},
{
name = ogonek;
position = "{678, 115}";
},
{
name = top;
position = "{422, 620}";
}
);
layerId = "96858A69-C8A6-410B-90BB-94EA0DA45935";
name = "2050";
paths = (
{
closed = 1;
nodes = (
"436 515 OFFCURVE",
"437 515 OFFCURVE",
"438 515 CURVE SMOOTH",
"609 514 OFFCURVE",
"683 440 OFFCURVE",
"683 342 CURVE SMOOTH",
"683 213 OFFCURVE",
"685 144 OFFCURVE",
"704 115 CURVE",
"607 115 OFFCURVE",
"663 115 OFFCURVE",
"546 115 CURVE",
"554 123 OFFCURVE",
"570 141 OFFCURVE",
"570 162 CURVE SMOOTH",
"570 236 OFFCURVE",
"456 284 OFFCURVE",
"327 284 CURVE SMOOTH",
"233 284 OFFCURVE",
"192 249 OFFCURVE",
"192 186 CURVE SMOOTH",
"192 149 OFFCURVE",
"209 123 OFFCURVE",
"225 110 CURVE SMOOTH",
"234 103 OFFCURVE",
"250 94 OFFCURVE",
"261 94 CURVE",
"259 93 OFFCURVE",
"256 92 OFFCURVE",
"252 91 CURVE SMOOTH",
"235 87 OFFCURVE",
"218 85 OFFCURVE",
"204 85 CURVE SMOOTH",
"82 85 OFFCURVE",
"52 217 OFFCURVE",
"140 240 CURVE SMOOTH",
"310 284 OFFCURVE",
"283 332 OFFCURVE",
"372 332 CURVE SMOOTH",
"430 332 OFFCURVE",
"496 236 OFFCURVE",
"552 236 CURVE SMOOTH",
"602 236 OFFCURVE",
"625 288 OFFCURVE",
"625 332 CURVE SMOOTH",
"625 407 OFFCURVE",
"556 511 OFFCURVE",
"439 511 CURVE SMOOTH",
"438 511 OFFCURVE",
"437 511 OFFCURVE",
"435 511 CURVE",
"435 515 LINE"
);
}
);
width = 838;
},
{
anchors = (
{
name = bottom;
position = "{427, 0}";
},
{
name = ogonek;
position = "{758, 10}";
},
{
name = top;
position = "{427, 620}";
}
);
layerId = "F6D8640C-383C-48A8-B63C-DDE9F10207CE";
name = Regular;
paths = (
{
closed = 1;
nodes = (
"166 628 OFFCURVE",
"284 650 OFFCURVE",
"399 650 CURVE SMOOTH",
"624 650 OFFCURVE",
"834 564 OFFCURVE",
"834 388 CURVE SMOOTH",
"834 259 OFFCURVE",
"834 129 OFFCURVE",
"834 0 CURVE",
"717 0 OFFCURVE",
"601 0 OFFCURVE",
"484 0 CURVE",
"484 70 OFFCURVE",
"484 140 OFFCURVE",
"484 210 CURVE SMOOTH",
"484 246 OFFCURVE",
"442 259 OFFCURVE",
"409 259 CURVE SMOOTH",
"358 259 OFFCURVE",
"332 235 OFFCURVE",
"332 210 CURVE SMOOTH",
"332 185 OFFCURVE",
"359 160 OFFCURVE",
"409 160 CURVE SMOOTH",
"433 160 OFFCURVE",
"469 164 OFFCURVE",
"485 203 CURVE",
"457 138 OFFCURVE",
"428 72 OFFCURVE",
"400 7 CURVE",
"352 -17 OFFCURVE",
"298 -26 OFFCURVE",
"246 -26 CURVE SMOOTH",
"120 -26 OFFCURVE",
"3 40 OFFCURVE",
"3 167 CURVE SMOOTH",
"3 264 OFFCURVE",
"83 361 OFFCURVE",
"262 361 CURVE SMOOTH",
"354 361 OFFCURVE",
"445 330 OFFCURVE",
"484 276 CURVE SMOOTH",
"484 279 OFFCURVE",
"484 282 OFFCURVE",
"484 285 CURVE SMOOTH",
"484 368 OFFCURVE",
"395 404 OFFCURVE",
"293 404 CURVE SMOOTH",
"214 404 OFFCURVE",
"129 383 OFFCURVE",
"69 345 CURVE",
"69 584 LINE"
);
}
);
width = 853;
},
{
anchors = (
{
name = bottom;
position = "{426, 0}";
},
{
name = ogonek;
position = "{741, 32}";
},
{
name = top;
position = "{426, 620}";
}
);
layerId = "5E5EA508-9E29-4BB2-A27E-EC4DBE9F737B";
name = Regular;
paths = (
{
closed = 1;
nodes = (
"223 604 OFFCURVE",
"316 621 OFFCURVE",
"407 621 CURVE SMOOTH",
"621 621 OFFCURVE",
"802 538 OFFCURVE",
"802 378 CURVE SMOOTH",
"802 249 OFFCURVE",
"803 132 OFFCURVE",
"807 24 CURVE",
"694 24 OFFCURVE",
"614 24 OFFCURVE",
"497 24 CURVE",
"499 81 OFFCURVE",
"502 140 OFFCURVE",
"502 200 CURVE SMOOTH",
"502 244 OFFCURVE",
"445 264 OFFCURVE",
"392 264 CURVE SMOOTH",
"332 264 OFFCURVE",
"302 238 OFFCURVE",
"302 205 CURVE SMOOTH",
"302 177 OFFCURVE",
"327 152 OFFCURVE",
"370 149 CURVE SMOOTH",
"391 148 OFFCURVE",
"423 149 OFFCURVE",
"438 180 CURVE",
"415 128 OFFCURVE",
"392 76 OFFCURVE",
"369 25 CURVE",
"327 5 OFFCURVE",
"281 -3 OFFCURVE",
"237 -3 CURVE SMOOTH",
"112 -3 OFFCURVE",
"13 77 OFFCURVE",
"32 182 CURVE SMOOTH",
"68 268 OFFCURVE",
"125 355 OFFCURVE",
"285 355 CURVE SMOOTH",
"370 355 OFFCURVE",
"456 310 OFFCURVE",
"498 268 CURVE SMOOTH",
"509 270 OFFCURVE",
"514 283 OFFCURVE",
"514 295 CURVE SMOOTH",
"514 376 OFFCURVE",
"429 427 OFFCURVE",
"324 427 CURVE SMOOTH",
"261 427 OFFCURVE",
"194 410 OFFCURVE",
"146 380 CURVE",
"146 569 LINE"
);
}
);
width = 849.83099;
},
{
anchors = (
{
name = bottom;
position = "{426, 0}";
},
{
name = ogonek;
position = "{743, 29}";
},
{
name = top;
position = "{426, 620}";
}
);
layerId = "B909D2E0-37C2-42CE-B4A7-1FA9A56E9D28";
name = Regular;
paths = (
{
closed = 1;
nodes = (
"215 607 OFFCURVE",
"312 625 OFFCURVE",
"406 625 CURVE SMOOTH",
"621 625 OFFCURVE",
"806 541 OFFCURVE",
"806 379 CURVE SMOOTH",
"806 250 OFFCURVE",
"807 132 OFFCURVE",
"811 21 CURVE",
"697 21 OFFCURVE",
"612 21 OFFCURVE",
"495 21 CURVE",
"497 80 OFFCURVE",
"500 140 OFFCURVE",
"500 201 CURVE SMOOTH",
"500 244 OFFCURVE",
"445 263 OFFCURVE",
"394 263 CURVE SMOOTH",
"335 263 OFFCURVE",
"306 238 OFFCURVE",
"306 206 CURVE SMOOTH",
"306 178 OFFCURVE",
"331 153 OFFCURVE",
"375 150 CURVE SMOOTH",
"397 150 OFFCURVE",
"429 151 OFFCURVE",
"444 183 CURVE",
"421 129 OFFCURVE",
"397 75 OFFCURVE",
"373 23 CURVE",
"330 2 OFFCURVE",
"283 -6 OFFCURVE",
"238 -6 CURVE SMOOTH",
"113 -6 OFFCURVE",
"12 72 OFFCURVE",
"28 180 CURVE SMOOTH",
"59 267 OFFCURVE",
"119 356 OFFCURVE",
"282 356 CURVE SMOOTH",
"368 356 OFFCURVE",
"455 313 OFFCURVE",
"496 269 CURVE SMOOTH",
"506 271 OFFCURVE",
"510 283 OFFCURVE",
"510 294 CURVE SMOOTH",
"510 375 OFFCURVE",
"424 424 OFFCURVE",
"320 424 CURVE SMOOTH",
"255 424 OFFCURVE",
"185 406 OFFCURVE",
"136 375 CURVE",
"136 571 LINE"
);
}
);
width = 850.25352;
}
);
leftKerningGroup = a;
rightKerningGroup = a;
rightMetricsKey = n;
unicode = 0061;
},
{
color = 6;
glyphname = aogonek;
lastChange = "2021-10-28 08:58:29 +0000";
layers = (
{
layerId = "96858A69-C8A6-410B-90BB-94EA0DA45935";
paths = (
{
closed = 1;
nodes = (
"650 -105 OFFCURVE",
"696 -77 OFFCURVE",
"724 -34 CURVE",
"724 -33 LINE",
"719 -34 OFFCURVE",
"714 -34 OFFCURVE",
"709 -34 CURVE SMOOTH",
"664 -34 OFFCURVE",
"614 -4 OFFCURVE",
"614 35 CURVE SMOOTH",
"614 74 OFFCURVE",
"650 109 OFFCURVE",
"704 115 CURVE",
"685 144 OFFCURVE",
"683 213 OFFCURVE",
"683 342 CURVE SMOOTH",
"683 440 OFFCURVE",
"609 514 OFFCURVE",
"438 515 CURVE SMOOTH",
"437 515 OFFCURVE",
"436 515 OFFCURVE",
"435 515 CURVE",
"435 511 LINE",
"442 511 OFFCURVE",
"438 511 OFFCURVE",
"439 511 CURVE SMOOTH",
"556 511 OFFCURVE",
"625 407 OFFCURVE",
"625 332 CURVE SMOOTH",
"625 288 OFFCURVE",
"602 236 OFFCURVE",
"552 236 CURVE SMOOTH",
"501 236 OFFCURVE",
"430 332 OFFCURVE",
"372 332 CURVE SMOOTH",
"283 332 OFFCURVE",
"310 284 OFFCURVE",
"140 240 CURVE SMOOTH",
"52 217 OFFCURVE",
"82 85 OFFCURVE",
"204 85 CURVE SMOOTH",
"218 85 OFFCURVE",
"235 87 OFFCURVE",
"252 91 CURVE SMOOTH",
"256 92 OFFCURVE",
"259 93 OFFCURVE",
"261 94 CURVE",
"250 94 OFFCURVE",
"234 103 OFFCURVE",
"225 110 CURVE SMOOTH",
"209 123 OFFCURVE",
"192 149 OFFCURVE",
"192 186 CURVE SMOOTH",
"192 249 OFFCURVE",
"233 284 OFFCURVE",
"327 284 CURVE SMOOTH",
"456 284 OFFCURVE",
"570 236 OFFCURVE",
"570 162 CURVE SMOOTH",
"570 141 OFFCURVE",
"554 123 OFFCURVE",
"546 115 CURVE",
"743 95 OFFCURVE",
"510 57 OFFCURVE",
"510 -45 CURVE SMOOTH",
"510 -77 OFFCURVE",
"539 -105 OFFCURVE",
"595 -105 CURVE SMOOTH"
);
}
);
width = 858;
},
{
background = {
components = (
{
name = a;
}
);
};
layerId = "F6D8640C-383C-48A8-B63C-DDE9F10207CE";
name = Regular;
paths = (
{
closed = 1;
nodes = (
"735 -308 OFFCURVE",
"779 -300 OFFCURVE",
"834 -285 CURVE",
"834 -89 LINE",
"804 -101 OFFCURVE",
"781 -105 OFFCURVE",
"751 -105 CURVE SMOOTH",
"709 -105 OFFCURVE",
"685 -92 OFFCURVE",
"685 -70 CURVE SMOOTH",
"685 -43 OFFCURVE",
"715 -5 OFFCURVE",
"834 0 CURVE",
"834 129 OFFCURVE",
"834 259 OFFCURVE",
"834 388 CURVE SMOOTH",
"834 564 OFFCURVE",
"624 650 OFFCURVE",
"399 650 CURVE SMOOTH",
"284 650 OFFCURVE",
"166 628 OFFCURVE",
"69 584 CURVE",
"69 345 LINE",
"129 383 OFFCURVE",
"214 404 OFFCURVE",
"293 404 CURVE SMOOTH",
"395 404 OFFCURVE",
"484 368 OFFCURVE",
"484 285 CURVE SMOOTH",
"484 282 OFFCURVE",
"484 279 OFFCURVE",
"484 276 CURVE SMOOTH",
"445 330 OFFCURVE",
"354 361 OFFCURVE",
"262 361 CURVE SMOOTH",
"83 361 OFFCURVE",
"3 264 OFFCURVE",
"3 167 CURVE SMOOTH",
"3 40 OFFCURVE",
"120 -26 OFFCURVE",
"246 -26 CURVE SMOOTH",
"298 -26 OFFCURVE",
"352 -17 OFFCURVE",
"400 7 CURVE",
"428 72 OFFCURVE",
"457 138 OFFCURVE",
"485 203 CURVE",
"469 164 OFFCURVE",
"433 160 OFFCURVE",
"409 160 CURVE SMOOTH",
"359 160 OFFCURVE",
"332 185 OFFCURVE",
"332 210 CURVE SMOOTH",
"332 235 OFFCURVE",
"358 259 OFFCURVE",
"409 259 CURVE SMOOTH",
"442 259 OFFCURVE",
"484 246 OFFCURVE",
"484 210 CURVE SMOOTH",
"484 140 OFFCURVE",
"484 70 OFFCURVE",
"484 0 CURVE",
"439 -37 OFFCURVE",
"416 -85 OFFCURVE",
"416 -140 CURVE SMOOTH",
"416 -247 OFFCURVE",
"501 -308 OFFCURVE",
"672 -308 CURVE SMOOTH"
);
}
);
width = 853;
},
{
layerId = "5E5EA508-9E29-4BB2-A27E-EC4DBE9F737B";
name = Regular;
paths = (
{
closed = 1;
nodes = (
"717 -265 OFFCURVE",
"761 -253 OFFCURVE",
"811 -232 CURVE",
"811 -77 LINE",
"786 -87 OFFCURVE",
"767 -90 OFFCURVE",
"742 -90 CURVE SMOOTH",
"699 -90 OFFCURVE",
"670 -73 OFFCURVE",
"670 -48 CURVE SMOOTH",
"670 -18 OFFCURVE",
"701 19 OFFCURVE",
"807 24 CURVE",
"803 132 OFFCURVE",
"802 249 OFFCURVE",
"802 378 CURVE SMOOTH",
"802 538 OFFCURVE",
"621 621 OFFCURVE",
"407 621 CURVE SMOOTH",
"316 621 OFFCURVE",
"223 604 OFFCURVE",
"146 569 CURVE",
"146 380 LINE",
"195 410 OFFCURVE",
"261 427 OFFCURVE",
"324 427 CURVE SMOOTH",
"429 427 OFFCURVE",
"514 376 OFFCURVE",
"514 295 CURVE SMOOTH",
"514 283 OFFCURVE",
"509 270 OFFCURVE",
"498 268 CURVE SMOOTH",
"457 310 OFFCURVE",
"370 355 OFFCURVE",
"285 355 CURVE SMOOTH",
"125 355 OFFCURVE",
"68 268 OFFCURVE",
"32 182 CURVE SMOOTH",
"13 77 OFFCURVE",
"112 -3 OFFCURVE",
"237 -3 CURVE SMOOTH",
"281 -3 OFFCURVE",
"327 5 OFFCURVE",
"369 25 CURVE",
"392 76 OFFCURVE",
"415 128 OFFCURVE",
"438 180 CURVE",
"423 149 OFFCURVE",
"391 148 OFFCURVE",
"370 149 CURVE SMOOTH",
"327 152 OFFCURVE",
"302 177 OFFCURVE",
"302 205 CURVE SMOOTH",
"302 238 OFFCURVE",
"332 264 OFFCURVE",
"392 264 CURVE SMOOTH",
"445 264 OFFCURVE",
"502 244 OFFCURVE",
"502 200 CURVE SMOOTH",
"502 140 OFFCURVE",
"499 81 OFFCURVE",
"497 24 CURVE",
"503 -9 OFFCURVE",
"436 -55 OFFCURVE",
"436 -120 CURVE SMOOTH",
"436 -211 OFFCURVE",
"509 -265 OFFCURVE",
"656 -265 CURVE SMOOTH"
);
}
);
width = 854.05634;
},
{
layerId = "B909D2E0-37C2-42CE-B4A7-1FA9A56E9D28";
name = Regular;
paths = (
{
closed = 1;
nodes = (
"719 -271 OFFCURVE",
"763 -259 OFFCURVE",
"814 -239 CURVE",
"814 -79 LINE",
"788 -89 OFFCURVE",
"769 -92 OFFCURVE",
"743 -92 CURVE SMOOTH",
"700 -92 OFFCURVE",
"672 -76 OFFCURVE",
"672 -51 CURVE SMOOTH",
"672 -21 OFFCURVE",
"703 16 OFFCURVE",
"811 21 CURVE",
"807 132 OFFCURVE",
"806 250 OFFCURVE",
"806 379 CURVE SMOOTH",
"806 541 OFFCURVE",
"621 625 OFFCURVE",
"406 625 CURVE SMOOTH",
"312 625 OFFCURVE",
"215 607 OFFCURVE",
"136 571 CURVE",
"136 375 LINE",
"186 406 OFFCURVE",
"255 424 OFFCURVE",
"320 424 CURVE SMOOTH",
"424 424 OFFCURVE",
"510 375 OFFCURVE",
"510 294 CURVE SMOOTH",
"510 283 OFFCURVE",
"506 271 OFFCURVE",
"496 269 CURVE SMOOTH",
"455 313 OFFCURVE",
"368 356 OFFCURVE",
"282 356 CURVE SMOOTH",
"119 356 OFFCURVE",
"59 267 OFFCURVE",
"28 180 CURVE SMOOTH",
"12 72 OFFCURVE",
"113 -6 OFFCURVE",
"238 -6 CURVE SMOOTH",
"283 -6 OFFCURVE",
"330 2 OFFCURVE",
"373 23 CURVE",
"397 75 OFFCURVE",
"421 129 OFFCURVE",
"444 183 CURVE",
"429 151 OFFCURVE",
"397 150 OFFCURVE",
"375 150 CURVE SMOOTH",
"331 153 OFFCURVE",
"306 178 OFFCURVE",
"306 206 CURVE SMOOTH",
"306 238 OFFCURVE",
"335 263 OFFCURVE",
"394 263 CURVE SMOOTH",
"445 263 OFFCURVE",
"500 244 OFFCURVE",
"500 201 CURVE SMOOTH",
"500 140 OFFCURVE",
"497 80 OFFCURVE",
"495 21 CURVE",
"494 -13 OFFCURVE",
"433 -59 OFFCURVE",
"433 -123 CURVE SMOOTH",
"433 -216 OFFCURVE",
"508 -271 OFFCURVE",
"658 -271 CURVE SMOOTH"
);
}
);
width = 853.91549;
}
);
leftKerningGroup = a;
leftMetricsKey = a;
rightKerningGroup = a;
rightMetricsKey = a;
unicode = 0105;
},
